/* XPM */
static char *d6b76a1cbbea4b47c298584c98c7dac8DDqiAjQwk5iBCAU2[] = {
/* columns rows colors chars-per-pixel */
"64 64 171 2 ",
"   c #0B0807",
".  c #0E0C0B",
"X  c #110E0D",
"o  c #14100F",
"O  c #130F12",
"+  c #161312",
"@  c #1A1514",
"#  c #1D1816",
"$  c #1D1719",
"%  c #1E1A19",
"&  c #211A17",
"*  c #231D1C",
"=  c #281F1E",
"-  c #26201E",
";  c #29211E",
":  c #261F22",
">  c #291F22",
",  c #262121",
"<  c #2C2523",
"1  c #2E2826",
"2  c #2D2728",
"3  c #2E2929",
"4  c #302724",
"5  c #322926",
"6  c #382D27",
"7  c #342C2A",
"8  c #392E2B",
"9  c #36302E",
"0  c #3C312E",
"q  c #342F30",
"w  c #373131",
"e  c #3D3432",
"r  c #3E3836",
"t  c #42352E",
"y  c #45382D",
"u  c #423632",
"i  c #443935",
"p  c #4A3C36",
"a  c #463639",
"s  c #453C3A",
"d  c #4B3E3A",
"f  c #513E36",
"g  c #503E3C",
"h  c #4D413D",
"j  c #514037",
"k  c #53433D",
"l  c #5A463E",
"z  c #5C483F",
"x  c #604C3F",
"c  c #4D4441",
"v  c #4F4844",
"b  c #544642",
"n  c #584742",
"m  c #554944",
"M  c #5B4B44",
"N  c #544B4A",
"B  c #5C4E49",
"V  c #5E514C",
"C  c #5D5451",
"Z  c #614E45",
"A  c #614E49",
"S  c #645146",
"D  c #685346",
"F  c #64534C",
"G  c #69564D",
"H  c #64584F",
"J  c #6C594D",
"K  c #725C4D",
"L  c #645652",
"P  c #6A5751",
"I  c #655954",
"U  c #6C5B53",
"Y  c #645C59",
"T  c #6C5E59",
"R  c #725D54",
"E  c #715F59",
"W  c #76604F",
"Q  c #6F6157",
"!  c #6D615B",
"~  c #746156",
"^  c #796355",
"/  c #74635B",
"(  c #7A665C",
")  c #75685F",
"_  c #7C695E",
"`  c #6C6260",
"'  c #746661",
"]  c #7A6660",
"[  c #756862",
"{  c #7C6B62",
"}  c #786C68",
"|  c #7A6E69",
" . c #7E7067",
".. c #7E716A",
"X. c #7F7771",
"o. c #816557",
"O. c #816756",
"+. c #836855",
"@. c #826B5D",
"#. c #8B715E",
"$. c #806D62",
"%. c #826D63",
"&. c #896F62",
"*. c #826F68",
"=. c #827063",
"-. c #827166",
";. c #857166",
":. c #847467",
">. c #8B7365",
",. c #8F7665",
"<. c #897867",
"1. c #857369",
"2. c #867368",
"3. c #84736A",
"4. c #847469",
"5. c #86776F",
"6. c #8B756B",
"7. c #89776B",
"8. c #86786F",
"9. c #8F786B",
"0. c #8B786C",
"q. c #8D7B6C",
"w. c #8C796E",
"e. c #8F7D6F",
"r. c #907666",
"t. c #957B65",
"y. c #947967",
"u. c #917769",
"i. c #937B6D",
"p. c #917F6F",
"a. c #9A7E6B",
"s. c #827770",
"d. c #857770",
"f. c #877A71",
"g. c #8B7A71",
"h. c #897B72",
"j. c #8D7C73",
"k. c #937D73",
"l. c #987E73",
"z. c #98806D",
"x. c #8D807B",
"c. c #958175",
"v. c #998372",
"b. c #9B8375",
"n. c #9B8777",
"m. c #94837B",
"M. c #968479",
"N. c #9A847B",
"B. c #99877B",
"V. c #96897F",
"C. c #9B897C",
"Z. c #9D897E",
"A. c #A18573",
"S. c #A08877",
"D. c #A18779",
"F. c #A18C7B",
"G. c #A38C7B",
"H. c #A48C7D",
"J. c #A98E7E",
"K. c #A9927E",
"L. c #928781",
"P. c #9B8780",
"I. c #9D8C83",
"U. c #9C908A",
"Y. c #A38D83",
"T. c #A49285",
"R. c #A99083",
"E. c #A89187",
"W. c #AE9789",
"Q. c #B49B8A",
"!. c #B49E92",
/* pixels */
"= * = , < 4 5 u b n f j l h k k 9 & + , , * 2 9 k h s 0 7 - + * 8 e u n J S h 8 + * u n H ( @._ ) U h 5 X < B U g.C.e.{ { 2.$.6.",
"= * , < < 5 * , 5 9 0 8 7 4 4 9 < * * * # + @ * 4 8 7 4 4 4 8 s m B F / =._ P d @ = n U / =.:._ ~ ( H 8 o < M ( w.4.p.w.v.Z.j.6.",
"7 7 8 9 w e 5 < < 7 i i 0 = @ , 1 3 8 8 8 , % * < < 7 e k b b V L P U ) | ! b s % # b P U ! [ U n B F u + 4 H _ n.G.w.:.k.M.g.s.",
"p h h h h m m c h b B U F u + % r h s s h i 9 e s e k B U ~ F B H U ^ ( _ U j 7 % # i S ! T F R J V B i @ , B { K.R.N.-.{ 2.2.| ",
"b B I U ) [ Y U ) _ P ) { n % % c V I V N M B H H A n M B J G R O.^ ) g.w.! J j = 4 J ( ' { ,.y.R b h 7 + 4 B ) G.E.I.j.{ ) / 4.",
"V P T { x.x.X.{ 4.4.( | 4.V < < b C Y U F U _ -.R R G K G G _ ( ~ R T ' [ F V h ; 8 J ) U U ,.i.( M 0 = X u P { V.m.g.5.w.g.! { ",
"P _ ! 5.U.L.T.m.k.{ ~ _ _ L 1 5 N N C I I ) { _ ^ ^ ~ +.@.G H ~ ~ P F B V F h 9 @ 7 B U ( $.;.:.( ~ i @ % i b B Y [ { 6.{ ! V T ",
"B ( w.-.| g.H.D.n.v.;.c.c.B - < c b V b V U ! U U ^ ^ ~ U F M B U F N h h b e - + e B P ( ~ ) _ ( F 8 + , u h b s B U U I F M B ",
"S ( k.6.$._ >.:.$.{ ) T ! s % @ e i n B m V I B F S S n h p h u u s s u e e < o % s V H H S P / P h , @ * < 7 e 7 7 e e e u 9 e ",
"G G $.$.U U R ^ $.B F M d 8 + + * < < 7 e e e 5 9 9 0 1 , , < < < 5 9 3 * * * @ 3 s B R ~ +.U V k < + , < < 4 5 7 5 0 7 7 7 , , ",
"O.J ~ _ ~ ~ ~ ^ ( ~ H k 8 @ + * , 3 4 4 1 - * * & = = = < < 5 u k i c h e 3 % % 5 i B R K J b 0 < @ , u u e e e d h n s e c j 8 ",
"~ ^ O.,.$.:.4._ U V h 8 # + , 7 9 7 s c s u 9 9 7 & # 0 u i l P #.P I / C s , @ 1 r h l h 9 8 ; o * u b N N b H R P V B C U R M ",
"F U ^ ~ U / ) ! F h 8 % + 7 s b B h e M G S n n S i * p M Z S R a.*.C T ' N 7 @ 5 c V M c 7 % @ - 9 c V I ! [ w.{ { S B L T ;.W ",
"M S S n d k c h s e = @ 7 s B U I U H H $.( K ~ ~ l - y n / ( G ^ $.E ! ' B 9 - s L T H m u , * u d d N C C I *.-.4.$.P ) *.9.^ ",
"9 0 9 < < 4 - < < * = 9 h b ( 4.2.) U $.$./ M U ~ j * i B { n.( ^ O.! [ 2.P n e c I T U { L e 8 n H P G N B F P T ) :.) | c.2.F ",
"e 7 9 4 < = # * o @ 9 p M H _ _ ( / U $._ R b n S d % e M G $._ ^ ~ I { ' ! I M F { { I ' I s h I / 8.R.D.i.6.( F P ) R 2.f.{ J ",
"s 8 8 u e 1 < <   ; i k G ~ U Q R H [ { R F H G D i + w M U _ ^ ) U ! d.{ T C b V -.{ R U V p b V P [ g.G.Z.w.6.( F F ~ / L T H ",
"B M n n h 0 8 <   4 d h M J H k M V Y [ ~ J ^ G Z u + , s V | { { ^ ) | -.T c e N [ 4.4.{ F p b F G R | 2.{ / 2.v.U U R F P B d ",
"V B F M b s 9 7 X - p h h b n f p c c c M F F N h 9 @ < u b | N.S.$./ /  .P u 5 e b B F B h < e b n F U U P G U ) ^ ( U M h s 5 ",
"b b M M k i e 9 # - u i i 0 6 7 < < 5 7 7 e e 5 < * @ 5 e N ~ Z.b.D.j.P P M 7 % < 2 9 u 0 4 # 8 p s b n n n M B H P U P A u < % ",
"u e i i u 0 u t 4 4 9 9 8 4 ; ; < * % % % , 7 < = # @ = 7 N [ m.6.m.c.U l e * X + @ @ * * # # 4 7 7 9 i i p d b c n b h c i , @ ",
"5 8 u p d p u u e e 9 i h j l d i 5 < @ + 5 p j p 8 # @ = i V [ ( ~ U P b 7 . % 1 u e 8 4 & + & % # * < 4 4 4 7 7 5 < = , - % % ",
"s U <.) P ^ ) I I H H R J S G R S h e @ o 9 j z d u = # + 4 s F R ^ S b r @ + e b V H N s 8 # + ; ; 4 4 8 4 9 0 0 < , , < < 4 < ",
"n R { { ~ L L I I / U m l K ^ ~ R N s * o e p d i 0 7 , . & s m ! U F s *   3 b B J G F n i , < n M n M S S l n b k b B k h h i ",
"n B B F F B i u s h b f z D G M G S b 1 @ d h d l s u 9 o @ 7 w v V V s * % e c N G H V b k t e Q / [ | $.>.y._ P I I { _ ( U H ",
"h k h k b M b u u 8 0 j l n S M Z B d < + p l h M N s p * + < 3 7 e u < % * 7 s k M M V n A p , h P U / | w.v.$.2.4...g.:.{ *.>.",
", < 8 p k n G n k p n J K S M Z l d p < o 9 e 9 i h k k 0 * , 3 9 4 * & ; ; < 9 d b Z G j 7 4 + < V ~ @.4.w.b.k.P.I.I.Y.Y.c.w.w.",
"< < 6 h p p l n z l B S S n h k j i 0 * + < < 4 7 5 u e 0 < 3 5 7 4 1 ; 0 5 % < e i j j 9 7 < @ < l J ( ( ) $.4.x.I.m.j.C.I.w.$.",
"< 4 < < 4 < 4 0 i y 0 0 8 6 4 4 4 * @ + X = 7 8 4 , < , < 5 9 7 5 e u t i j 0 4 7 8 7 6 4 = # ; 0 p n B n V F L L L I I U T U U ",
"= 9 e 5 5 8 < * # ; 4 9 8 7 5 u u = o + + + , 8 8 8 i i 7 e s s e s h M S R J n j u e u t 4 < 9 i s u 7 4 9 e e e e h c s s c c ",
"5 s b h n B p 0 * X 8 s l M b M S u ; # & + , e s b V F L N b N b B G F _ @./ P R F B U K j p k h M n e = , < < * * , < < 5 7 e ",
"s V T ( ( 6.~ n 7 . 8 s Z R J P R n u < % + 4 e B G ] { ' U N m H U F P / 6.^ R ^ ~ I ! U n n H P _ R n 0 8 u u 9 5 7 8 8 e s s ",
"c V / { -.*.g.P 9 o 7 h N ~ @.$.$.( b 7 + + ; 0 M P E { ( :.( P P U P L U { i.:.~ U P P B d i M U ^ U l 8 , s F L H H B M M F B ",
"P U P P ^ U / F u + 9 b M H _ 2.6.v._ k + + & 8 l F U G ~ { / E U F P ) ' { _ U U P A B b 0 , u b B S l 4 7 N E { { { P F / E U ",
") ( ( G P G H n e @ 9 B M M H _ _ ( U H < X # t n B H H F F H P / U P ! / E U A B B k i u < , s B F J l 5 e P *.x...) ^ ) E F F ",
") { { ( P M B s 1 + u F U { H U R R ~ G s + @ 4 8 u h l k s h b B B N N V F F M k h p 0 < < e M U R H M u u L g.I.{ { 6.N.$.U ~ ",
") _ { { Q H n t # * k F { G.{ $.2.w.( / F t # = , < 4 8 4 1 4 5 7 0 8 9 i u e 8 7 < < < 5 s B I ( $.@.U k 7 d ` x.2.{ 6.N./ / { ",
"I L L U U R b 4 % t M G { -./ U ..v.:.) P M 8 * & * 4 7 4 5 u u e 0 8 < < 7 8 < ; < 8 s b F I 4.g.2.) T s * q C m.g.*.2.6.R E v.",
"b l p s h d 0 = < i j S U / ~ M V ~ ( R F F d 4 & o 8 u p d M P L M b h 9 , < 8 p p n / ) { / E ' *.I L d $ 3 b | j.M.2.c.i.2.6.",
"3 0 6 4 0 y 6 < 5 e i h d l S l d h k b M H F i < @ 0 l B ~ ( $.2.;.( P n 6 @ 8 Z G / 2.{ *.*.L b b n N r @ , h B / k.$.*.{ { U ",
"7 e 0 y j i < < 4 8 9 u i u i t 8 t 0 8 9 e e 4 = 4 f G G *.i.i.Y.H.2.~ F 0 o 4 n ( b.H.n.6.k.k.P p a s w @ $ e h b B F B b b S ",
"u c k x R n 8 & 4 4 < < 4 < , 4 < ; = * % % = - < i Z R ( $.i.b.P.j.c.6.U p # 4 b F :.Y.!.N.Z.b.l.{ s 7 < @ + < u e 5 7 4 7 0 p ",
"s h n G $.~ p # 1 u n B l p 0 u 0 - @ # 4 1 7 0 s Z R ( @.9.i.c.N.i.9.c.~ d * y F K ~ :.N.n.n.b.E.N.E b < O X $ : = = < 7 4 8 8 ",
"n n g B U { B & < b U { | ) F l k 7 + @ 0 i i k R ^ ^ R ^ @.$.c.Q.A.9.i.( d * i U ~ ( _ *.k.W.Z.g.6.{ P i + O > 8 i t 7 u h d s ",
"S ~ F d d b m , < B ~ ..| | ^ R S u o ; p u d M R ;.( ~ U P U 4.n.N.v.$.S 8 = s P ( 4.2.*.g.N.k.k.k.2.U p & 8 k G S M d u i B n ",
"b U ^ ( U b h , , B / ' ' { _ -./ h @ & u h p B S U F B M F G B b L P Z i , , e c U 5.M.*.2.i.6.Y.Q.H.R i = k G $.{ ( ) ~ d b F ",
"Z R >.>.r.~ B 4 < b U 4... .$.,.^ i X X 7 p d p d n b d d s d d u 0 i 5 * % % 5 u B T { *.{ ( ~ / $.2.U d = p F ) / _ @.R ~ R F ",
"J R $.:.@.P M 7 4 B P { 2.w.4.~ F 0 .   * 7 8 < ; 7 0 8 4 7 7 e 8 , ; < < , + 7 d m T E ( _ ( ( l.G.9.R j , i M / :.$.@.^ R R ( ",
"S G R @.$.U B 9 1 F ( ( / ) | B n u . o 8 u 9 7 4 < 5 7 8 7 u h s s k h p 0 * # p b I / @.,.i.y.y.>.( F 4 * i h P 6.-.:.>.>.&.( ",
"Z H U @.i._ S s 4 N { 4.^ P R R N 8 . 4 z n s k n n d s k g d b b V A F Z j 7 X 8 d n P ~ R R K S l s 9 % - 7 8 d B / w.6.;.,.i.",
"l R { 6.2.) P s e N T 4.{ { _ R M 8 @ h R R b F U P V L U ( R R A M Z A Z n 8 X & 4 9 s h j u 8 7 7 , * , < ; * 4 8 k ~ ~ ( ;.&.",
"u n ! 0.~ B m 5 8 c b B ! { ( R S 8 * B ( $.R H ( *.{ P P { 2.k.N.k.$.A i 7 = X   * 4 < < 4 < < 4 4 , , 7 e 0 4 & @ : n G R ^ &.",
"0 B ~ $.~ b 5 # < s H U P P P S l , , M G ^ ^ ~ ( 2.:.U R 2.g.6.c.k.0.$.G l u &   % 5 0 e d k d d p u e h M B f t & + 8 F P ^ $.",
"< h F H M u : . < d A ~ U S F k e + 7 U _ @.P / ( ) 6.:.$.6.N.Y.w.l.9.l._ S p # @ 8 i j F U E S G B M M U P G M M i * * h H U U ",
"< 7 d u 0 8 % @ 4 u s m F Z u 8 , . e P ( 2./ U ~ P ( >.9.k.k.Y.Q.J.6.n.2.F s @ = p F b s V / P R ( ( R $.R U R P G i & < n H R ",
", = < < = & + * < , 5 9 e 9 , * @ X s J B P / ( 2.$.>.i.b.N.k.k.J.H.b.H.k.P e @ 0 B / U M N U ( ( ( ~ $.b.9.R R ~ O.K t @ 1 h V ",
"9 5 , = & ; , , * - = , , @ + @ + - e k A M F ~ { ) { / @.b.I.N.l.k.b.l.] F i @ 8 M ) ~ P R / ,.a.#.( R i.n.( $._ i.#.Z , + * p ",
"V N n d p l k i u 8 8 e 4 @ + + % 7 u p k F P R E A F F U 2.N.j.b.2.u.6.) F j = 7 b A U R R P R $.,.@.^ @.$._ >.u.b.a.K u * + # ",
"' T / U R ,.$.U P B c b u < < & @ 4 u s l M F R ( R U G U $.k.6.j.$._ ~ U S l , 8 S ^ U ~ R A A R ,.r.O.^ / ( ;.z.b.@.J s 8 < + ",
"w.' / 2.l.0.6.2.~ { P N h e 7 - @ 4 e p M M B G U P U F A ~ { ) | 2.( ~ U V b ; 8 G ( U P F G S G ^ ~ ~ ) ~ R R ( $.~ B i 8 1 = ",
":.*./ :.$.( ] j.{ | ^ B e , 1 * @ 4 8 0 p b N b M S F n b V ~ P P / ~ H F V h & < D R U R G S M l n M k b m n M N B B b p 8 - - ",
"v.l.~ R E _ P U I N n i 5 - , * = 4 5 7 9 e 0 9 p p p i u d b b h k b k s i 9 # , j M k h p p u 8 u u 0 u 0 t 9 0 u 8 8 0 < @ # ",
"R P F F B b h s e 7 5 , % @ * , ; , , , ; < ; , 7 4 , = ; 8 5 < 8 4 8 7 7 5 < < < 7 u 0 8 4 4 7 7 8 < < 4 < = ; 4 9 8 8 8 7 = & ",
"n d d k k e 1 < % % @ # = , 5 u 0 e 0 8 8 0 8 0 i i 7 % X # = , 7 u i e i l s e e s k M l 0 u l n b p 9 - * = 7 d l j k k l d 0 "
};
