/* XPM */
static char *_da1161d28284a51a22d1b4728e81592SWwvqoeFWxIVuYQ4[] = {
/* columns rows colors chars-per-pixel */
"64 64 199 2 ",
"   c #943C0E",
".  c #983D0E",
"X  c #992B1F",
"o  c #9E3B13",
"O  c #A13D13",
"+  c #A6371C",
"@  c #A53C1D",
"#  c #A93C1D",
"$  c #962424",
"%  c #982424",
"&  c #962922",
"*  c #9A2C22",
"=  c #982528",
"-  c #9E3123",
";  c #A52E26",
":  c #A32E29",
">  c #A23423",
",  c #AC3726",
"<  c #A63C20",
"1  c #AC3B24",
"2  c #A63429",
"3  c #A83729",
"4  c #B13C25",
"5  c #9A4B03",
"6  c #9B450E",
"7  c #9E480F",
"8  c #9E5201",
"9  c #9D4312",
"0  c #9F4910",
"q  c #A2430D",
"w  c #A55504",
"e  c #AA5605",
"r  c #A65C04",
"t  c #AD5C05",
"y  c #A55408",
"u  c #AD520D",
"i  c #AC5A08",
"p  c #B35D06",
"a  c #BA5D05",
"s  c #B2560F",
"d  c #B45D0A",
"f  c #B95E0C",
"g  c #A34413",
"h  c #A24911",
"j  c #AD4C12",
"k  c #A74119",
"l  c #AB431B",
"z  c #B34716",
"x  c #B34C16",
"c  c #B84D16",
"v  c #B1461A",
"b  c #B64B19",
"n  c #BA4D1C",
"m  c #B35412",
"M  c #BB5D13",
"N  c #B5521B",
"B  c #BB531B",
"V  c #BF5D19",
"C  c #AD6205",
"Z  c #AD6209",
"A  c #B36306",
"S  c #BB6406",
"D  c #B66B06",
"F  c #BB6A06",
"G  c #B4640A",
"H  c #BC640B",
"J  c #B6690A",
"K  c #BC6B0B",
"L  c #BF7106",
"P  c #BE7109",
"I  c #B76511",
"U  c #BC6212",
"Y  c #BC6A11",
"T  c #BF6119",
"R  c #A94021",
"E  c #BA4B20",
"W  c #C05F1A",
"Q  c #C26707",
"!  c #C26C06",
"~  c #CA6E07",
"^  c #C2660C",
"/  c #CA670A",
"(  c #C36B0C",
")  c #CB6D0C",
"_  c #D16F0C",
"`  c #C37206",
"'  c #CB7306",
"]  c #C5720C",
"[  c #CC730D",
"{  c #CD790D",
"}  c #D17C07",
"|  c #D2730D",
" . c #D37B0E",
".. c #D97F0E",
"X. c #C36313",
"o. c #C56B12",
"O. c #CC6C12",
"+. c #C0621A",
"@. c #CB6519",
"#. c #C46918",
"$. c #CD6C19",
"%. c #D06D13",
"&. c #D26E18",
"*. c #C57211",
"=. c #CD7416",
"-. c #CC7411",
";. c #C77811",
":. c #CF7811",
">. c #CD7911",
",. c #CF761A",
"<. c #D07210",
"1. c #D07113",
"2. c #D07313",
"3. c #D37013",
"4. c #D47113",
"5. c #D27512",
"6. c #D47410",
"7. c #D77710",
"8. c #D57214",
"9. c #D67315",
"0. c #D17415",
"q. c #D27412",
"w. c #D07910",
"e. c #D17B10",
"r. c #D27B11",
"t. c #D17913",
"y. c #D47811",
"u. c #D67B10",
"i. c #D67B12",
"p. c #D77A13",
"a. c #D67A13",
"s. c #D37D10",
"d. c #D37E11",
"f. c #D47C10",
"g. c #D57D11",
"h. c #D77C11",
"j. c #D77F11",
"k. c #D67E10",
"l. c #D57D13",
"z. c #D47D13",
"x. c #D77C13",
"c. c #D67E12",
"v. c #D77F13",
"b. c #D77B14",
"n. c #D77917",
"m. c #D57C14",
"M. c #D57E14",
"N. c #D67E14",
"B. c #D77F15",
"V. c #D77E16",
"C. c #D67D15",
"Z. c #D47B12",
"A. c #D87E10",
"S. c #D97F11",
"D. c #D97C12",
"F. c #D87D12",
"G. c #D97E13",
"H. c #DA7D13",
"J. c #D87B14",
"K. c #D87D14",
"L. c #DA7F14",
"P. c #DA7E16",
"I. c #D97E15",
"U. c #D97D13",
"Y. c #D27019",
"T. c #D77E18",
"R. c #DB7F18",
"E. c #D7800D",
"W. c #D5810E",
"Q. c #D8810E",
"!. c #DD820F",
"~. c #DC810E",
"^. c #DC830D",
"/. c #D68111",
"(. c #D88110",
"). c #D98113",
"_. c #D88012",
"`. c #DA8012",
"'. c #DB8113",
"]. c #DE8310",
"[. c #DF8012",
"{. c #DC8212",
"}. c #D88014",
"|. c #D98115",
" X c #DB8015",
".X c #DA8214",
"XX c #D98117",
"oX c #DB8017",
"OX c #DC8214",
"+X c #DC8116",
"@X c #DA8214",
"#X c #DA8218",
"$X c #DC8219",
"%X c #E1830F",
"&X c #E18312",
"*X c #E08113",
"=X c #E28413",
"-X c #E08512",
";X c #E08619",
/* pixels */
"( ) w.w. .o.) z +. .) ) ) ) [ #Xg.|.g.'.'. .g.F.V.Q.V.!.%.B 6.[ |.'. .'.F.J.2.2.u.F.OX| O.) | ].; 9.F.=.[ [ ~ O.-...F.) )  .].u.",
"( (  . . .o.) z +.| ) ) ) ) ~ V.g.|.g.'.'. .F.F.V.Q.V.!.%.B 6.[ |.'. .'.F.J.[ 2.u.'.OX| O.) | L.; 9.g.=.[ [ ) O.[  .'.2.) | F.K.",
"( ( {  . .o.) z T | ( ( ) o.~ w.g.|. .'.OX .F.F.V.Q.V.!.%.B | [ |.|. .'.F.u.[ -.u.F.L.[ O.) | &X; 4.u.=.[ [ ) -.[  .K.m.-.'  .K.",
"( ( { w. .o./ z W [ ( ( ) o.~ 2.g.|.g.g.|.F.F.K.V.E.V.!.%.B | [ |.|. .'.F.u.[ -.u.F.K.[ %.) | &X2 2.u.-.[ [ ) -.[ [ K.K.2.) | K.",
"( ^ [ w.d.( / z V ' ( ( ) o.~ ) g.g.g.g.'.g.F.K.|.E.V.!.$.B | [ |.|.F.'.F.J.[ ) u.F.K.[ -.O. .&X: %.| O.[ [ ) -.[ [ u.|.u.) | F.",
"^ ^ [ w.d.( / b V ' ( ( ( o.) ) w.V.g.g.|.g.V.V.|.E.V.].$.c _ [ |.|.F.'.F.u.) ) g.F.F.[ 2.O. .&X: %.| O.[ [ ~ -.-.) 5.'.u.-.2. .",
"H ^ [ :. .( / n V ) ( ( Q o./ )  .V.g.g.|.g.g.V.|. .m.].$.c _ | |.|.F.].F.J.) ) u.F.F.) 2.-. .-X: O.[ O.| | ~ -.2.O.5.'...2.2. .",
"H H [ :.d.( / n V ~ ( ( Q O./ )  .g.d.g.g. .g.V.|...m.!.$.c ) [ |.|.F.OXF.J.) ) m.g.F.) 2.2.7.-X: O.| O.| | ~ -.[ O.5.'. .0.2.| ",
"F X.o.' w.H ~ B m [ ( ( Q ( ) ^ { V. .}.d.d.d.g.g.d.V.^.@.c _ -.}.'.g.OXF.u.) O.u.OX| 2.O.) K.].- #.| -.) ~ ~ Y.-.[ | K.K.| [ 2.",
"F X.( ' | H [ n m ~ ( ( Q o.) ^ { V. .}.d.d.d.g.g. .V.^.@.c _ -.}.'.g.OXF.u.) O.5.$X| | O.) K.].> $.' O.) [ ' O.-.[ 6.K.K.5.[ 2.",
"S X.( { [ a { n m ~ ( o.Q o.) ^ [ d. .g.d.w.w.g.g. .V.^.@.c | -.'.'.g.OXF.u.) O.| |.| _ O.) K.].2 $.| ) 5.m.} ) -.[ u.K.F.u.[ 2.",
"S X.( >.~ a w.n x ( ( o.Q ( ( ^ [ w. .g.d.w.d.g.g.w.V.^.@.c | -.'.'.g.|.F.u.) O.| |.| ) O.) J.].2 $.| ) u.$X .[ -.) u.K.F.u.[ 5.",
"S ^ ] ;.Q H w.n x ( ( ( S ( ( ^ ( w.w. .d.w.d.d. .w.V.^.@.c | ) '.|.g.|.F.J.) O.[ $X' ) O.) u.-X2 %.| ) 5.$XE.[ O.) F.F.F.u.) 5.",
"S ^ ] *.H ^  .n j ( ^ ( S ( ( ^ ( :.w. .d.{ d. . . .V.^.@.b | ) }.|.g.|.F.J.) O.[ $X' ) %.) u.-X3 %.| ) 5.$XE.[ O.) K.F.F.g.' 0.",
"S H [ *.H o.{ n x ^ ^ ( ~ o.( H ~ -.w. .d.{ d.w.w.w.V.^.@.b _ O.'.|.g.OXF.J.) O.[ $X[ ) %.) u.-X3 &.| O.5.$X..-.%.) |.F...F.~ 0.",
"S H [ Y H o.' E x ^ H o.[ ,.-.H ( -.d.{ d.{ d.w. .w.V.Q.@.b _ O.'.|.g.OXK.K.) ) [ $X[ ) %.) u.-X2 %.| ) 5.|...-.%.) L.....F.~ 0.",
"f S ] H K ] { v x ^ H ( { -.-.Q H =.{ [ M.-.w. .{ V.w.g.O.n ) ) T.}...}.|.F.| ) ) F.| O.) ) J.%X, O.[ %.| }.}.%.O.[ |.'.K.K.) u.",
"a S ] H K ] ' v j ^ H ( { -.-.( H -.{ [ d.-.w. .{ V.w.u.O.n ) ( m.'.E.V.|.F. .) [ F.| O.) ) J.!., O.[ %.| }.E.%.O.[ |.'.K.J.) u.",
"a S ] H Q ] ' v j ^ H ( [ ;.-.( H -.{ [ d.-.>. .{ d.:.g.O.N ) ( t.g. .V.V.g.u.o.5.K.[ O.) ) J.!., O.[ %.| }. .%.O.[ |.'.J.u.) m.",
"f F ] H Q ] [ v j ^ H o.[ [ { -.H ( { [ :.:.:. .{ w.-. .) B [ Q -.g. .V.V. .u.O.5.K.[ O.) _ m.!., O.| ) | |. .%.%.[ |.'.J.u.) K.",
"f K ! f ( ] [ v j Q H o.] [ [ -.H ~ { [ :.-.{ { { w.{  .) B | Q ) g.g.u.u. .g.O.5.F.[ O.) ) J.!., O.| ) | |.} %.%.[ |.'.J.6.) R.",
"d K F a ( ] [ l j ^ H o.] ;.[ -.H Q -.[ >.-.-.{ { w.{  .) B | Q ( u.g.w.w. .g.) -.F.[ O._ ) J.!., =.5.) | #X{ %.O.' |.|.J.| ) $X",
"d K F a o.] [ l j ^ S *.] [ ] -.^ Q -.[ [ >.:.{ :.:.-. .^ B u.( ( u.g.5.5.g.g.) [ u.) O.[ ) J.!., 0.u./ 2.#X' %.O.' |.OXJ.| ~ $X",
"d K F f o.] [ l j ^ a *.] ;.] *.( ^ :.[ [ >.-.{ :.{ -. .^ B u.( ( u.g.-.-.g.g.) ) u.[ o.[ [ J.!., 0.u./ | #X' %.O.' |.OXJ.| ~ $X",
"f K F f ( P ] l h K G ] ] [ ] *.( Q ;.[ >.[ { { { { [ w.X.B ..] ( =. .{ -.w.g.) -.g.) O.) ) u.^.4 O. .) %.#X{ O._ ~ $XQ.g.0.) '.",
"f K F f ( ] ] l g F G ] ] ] ] ] ( H ;.[ [ [ { { :.{ [ w.X.B ..-.( =. .{ -.w. .( [ g.) O.) ) m.^.4 O. .) %.#X{ O._ ~ $XQ.g.0.) '.",
"f K F f ( P ] l g F S ] ] ] ] ] ( S -.] [ [ [ [ -.-.[  .X.B ..-.^ -.g.{ ( 5. .( [ g.) O.) ) m.^.4 $. .) 2.].{ O._ ~ #XQ.F.0.-.].",
"f K K f ( P ] # g F S ] *.] ] ] ^ H ] ] [ ] [ [ { { [  .X.B ..-.^ ) u.' ( 5. .( [ g.) O.) ) m.^.4 $. .) 2.]. .) _ ) #XQ.F.0.-.].",
"f F K f ( P ] # g S S ] *.] ] ! ^ S ( ] { ] ] ;.[ [ [ w.X.N } -.( ( w.{ ( 5. .( [ g.) o.) ) m.^.1 $. .) 6.'.w.) _ ) #X'.F.2.2.].",
"f F K p ( F ] # g S H ! *.( ] ! ^ S ( ] { ] ] ;.[ [ ] { X.N } *.o.Q w.{ ( 0. .( [  .) o.) ) u.^., $. ./ 9.].g.) _ [ |.'.F.-.0.].",
"f F K p ( P ] @ g S H F Y S ( ] H S ( ] { ] ] [ [ [ ] { X.N } ( o.^ w.[ ( t. .^ [  .[ o.) / m.^.1 $. ./ m.Q.g.) _ [ |.'.F.O.0.'.",
"f F K p ] F ] @ g H K S H A o.] H S ( ] ;.] ] ] [ [ ] { X.N } ( o.H  .[ ^ t.{ ^ [ g.[ o.) / 0.].1 $.} / m.Q.|.) _ [ |.'.F.O.0.'.",
"p J D A K F ` R q K K A H H H ] K G Y ] [ ] *.[ [ ] ` { X.N } H o.^ ' -.^  .o.^ { w.{ ^ O.) | ].R #. .~ w.g.#X[ O.[ '.;X| ) u.|.",
"p J D G J K ` < q K F p S H H ] K f K ] [ ] ] ] ( ] ] { U N } H X.^ ' -.Q  .o.^ { w.{ ( O.) | ].R $. .~ w.g.|.{ O.[ '.;X| ) u.|.",
"p J K G J D ` < q S F p G H S ] K a K ( [ ] ] ] ( K ( { U N } H ^ ^ [ o.Q  .o.^ { w.-.( O.( | '.R $.u.) w.g.|.{ O.[ |.$X| ) u.|.",
"d G K S J D ` @ g S F p f f H ( K p H ( ] ] ] ] ( S ( { U N ' H ^ H [ ( (  .( ^ >.:.-.( o.( { Q.R #.u.~ w.g.V.w.) | $X|.) ) u.|.",
"d G K H H D ] @ g S F A f f f K ( p H ( ] ] ] ] H S ( ;.U N ' a H H [ K o. .( ^ >.{ -.( o.( { Q.R #.u.( 5.g.g.w.) | $XV.~ -.u.|.",
"i G D H G D ] < g H F G f f f K ( p H K ] ] ] ] H S ( [ U N ! f H ^ [ H *.{ ( H :.{ -.( ( ^ -.E.k #.u.Q 5.g.w.g.) { #Xw./ 2.m.'.",
"i G D H G A ` @ g G F G p f p S ( p G K ] ( ] ] H K ( [ U N ! f H ( ] H -.{ ^ H :.[ -.( X.^ { E.k #.u.Q -.g. .V.) [ #X{ ( 0.m.'.",
"i G J G G A ] @ g G K G p p p A ( p G F ] ( ( ] S K ] ` U N S U H o.] S -.{ ^ H :.{ -.( ^ ^ { E.@ #.u.Q -.g.{ V.) [ |.{ Q 9.K.}.",
"d C J S p G ` > h p K p G S G G K a p G *.] F *.G ( ( [ H l ^ a S [ ^ H ] >.H ^ -.[ { [ H ( [ E.# #.w.Q -. .w.V.( | K.o.^ | g.g.",
"d C J S t G ` > h p K A G K p G K a p G *.] F ] A ( K ] H l S a S [ H H ] [ H ^ -.[ { [ H ( [ E.# #. .Q -. .w.g.( { m.o.( | g.g.",
"i C G S t G ` > h p K G G K p G K p p G ] ( F *.A K K ] f l S a S -.H ( [ ] H H -.[ { ] H ^ [ W.# #.{ ^ -.|  .d.( { u.) ^ [  .g.",
"i C G S t G ` > h p K G G K p G K p p G *.( F ( A K K ] f k S p K *.a ( ;.] ( a ] ] { ] ^ ^ [ W.# #.-.H -. .w.d.( [ 5.) ^ [ g.g.",
"i C A G t Z ` - h p J G A J p G K p p p ( ( F o.A K K ] a O S d ( o.a o.;.] Q a ( ] { [ ^ H ] /.# #.-.H -.| w.w.o.[ 5.) ^ | g.g.",
"e C C G t C ` - h p K G A J i G K p p p ( K F o.A K K ] f O S f ] ( a ] *.] Q f ( [ [ [ ( H ~ /.@ #.-.H -.w.w.w.o.[ | ( ^ 5.u.m.",
"e C C G i C L X h p K G A K i G S p p p ( K F ( f K K ( d O S G ] H A ] *.] F M H *.[ [ ( a ( /.@ #.{ H -. .{ :.o.) [ ( ^ -.w.w.",
"e C C G i t L * 0 i K G A J i G S p p p K K F ( G K K ( d O S G ] H S ] *.] S M H *.] [ ( a (  .@ #.[ S [  .{ { o.~ [ ( ^ -.w.w.",
"e C J A t C F - 6 A G A i J i A J p d p K K K K f F J ] m O H K ( f S ] *.( ( G S o.] { ( f ( } + #.[ ^ ( d.[ w.o.( [ ^ ^ -.' w.",
"e C J A C C F * 7 A G A i K i A S p d p K K S K f F J ` m O H K ( p S ] *.( ( G S o.] { Q a ( { + #.[ S ( :.[ w.( ~ [ ^ ^ -.| w.",
"y C G A A Z F X 0 A G C t J i A S t i p J F A J a F J ` m O H K ( p A ] ( ( ( G a K ] [ Q a ^ { + #.;.H ( :.[ w.^ ~ [ ^ ^ )  .{ ",
"e C C A Z C F X 6 p G t e G i A S t i d J F A H f F J F s O H K K p A ( ( ( ( S a H ] [ ( f H { + #.] H ( { ] w.^ [ [ ^ ^ ~ w.{ ",
"y C C i C t F * 6 C G C t G t A S t t t J K G H f F G F s O H K K d A ( o.( ! H a H ( ] ( a H { # #.] a ( >.] w.( [ -.^ H Q 5.-.",
"y C r i Z r K * 6 C G C t G i A J t i t J J G H f F G F m o H K K p A ( ( ( ] K f f K ] ( f H [ # #.] a ( [ ] w.( [ 5.^ H Q -.=.",
"y C r i t r F & 6 C G C r G t A G t e t J J A S p A G F s o H K K t p K K K ` K f f K ] ( f a [ # #.] a ( ;.] :.o.! w.^ H S ) =.",
"y C r i t w F & 6 t G t r G e C G e e t J J A G p A G F m o H K K t p K K K ` K f p K ] ( H f ] # #.] a ^ ;.] :.*.Q w.^ H S ( =.",
"w A r C p 8 J % 9 t G t y A w G G e e i J A G G p J G F s O p J K d d S K K o.( S d M Q ` G d ! + Y ] a H ;.] >.*.( :.~ S H S { ",
"w C r t t 8 A $ 9 t G t y A w G G e e t G A G G p J G F s o p K K p d S F K K ( S d M K ` G d ! 1 Y ] a H *.~ :.*.! :.] a H H [ ",
"8 i r Z t 8 A $ . t G t w A w i A w e t G A G G p J G F m o p J K p d H F J K ( K a f H ` S d Q 1 Y ] a H ] Q [ -.F :.-.H H H ( ",
"5 t r Z t 8 A =   C G r w A y t C w y t G A G i d J G F u o p J K t d H F K K K K A f H F S f S 1 I ] a H ( S ;.;.F -.;.H H H ^ ",
"5 r r t t 8 A =   C C r y p y t Z w y t G A A i d G G F u o t G K t i H F J K K K A f H F J f S 1 I ] a H K S ] ;.F ;.=.H H H H ",
"5 w r t t 8 A =   C C r y t y t Z w e t G A G t i J G F u o t G G t i G F J K K K S f f S K p S + G ] a H K S ( ;.F -.=.( H H H ",
"5 w r r t 8 C =   C C r y r y i Z y e t G A C t t A Z F u o t G S i i G D J J F Y S f f S K p H + G ] a H K S ( ;.K ] ;.( S a f ",
"5 w r r e 8 C $   r C t y r w t C y e t G C C t t A Z F u o t G G e i G F S J F J F a M S K p H + I ] a H K S ( [ ( ( -.( S a H "
};
