/* XPM */
static char *_d452b9798324d31ed7bad22bd6bad5dWC17ZXWDdp3vwoyl[] = {
/* columns rows colors chars-per-pixel */
"64 64 252 2 ",
"   c #641E1E",
".  c #5C2B1A",
"X  c #5E341C",
"o  c #632C14",
"O  c #692A16",
"+  c #652D1D",
"@  c #6B2D1C",
"#  c #682518",
"$  c #722D16",
"%  c #74251B",
"&  c #79251B",
"*  c #732C1C",
"=  c #7C2D1D",
"-  c #782715",
";  c #64321D",
":  c #6C311D",
">  c #6A3619",
",  c #74341C",
"<  c #7B331D",
"1  c #75391E",
"2  c #7B3A1E",
"3  c #753215",
"4  c #64280E",
"5  c #5D1F20",
"6  c #751F20",
"7  c #5F2A25",
"8  c #5B3523",
"9  c #5F3930",
"0  c #6C2623",
"q  c #652C24",
"w  c #6C2C23",
"e  c #6A2E28",
"r  c #672929",
"t  c #742423",
"y  c #742C23",
"u  c #7B2C24",
"i  c #742C2A",
"p  c #7C2D2B",
"a  c #7A2626",
"s  c #653323",
"d  c #6C3323",
"f  c #633A23",
"g  c #6C3C24",
"h  c #66332B",
"j  c #6C342D",
"k  c #6D3C2C",
"l  c #653B2B",
"z  c #743423",
"x  c #7B3523",
"c  c #743C24",
"v  c #7B3B24",
"b  c #74342A",
"n  c #7C342B",
"m  c #753B2C",
"M  c #7C3B2B",
"N  c #6A3532",
"B  c #6C3C35",
"V  c #663936",
"C  c #723532",
"Z  c #7B3432",
"A  c #733A34",
"S  c #7B3C32",
"D  c #753C39",
"F  c #7B3D3B",
"G  c #6F2F30",
"H  c #6C4024",
"J  c #6C432B",
"K  c #654728",
"L  c #734225",
"P  c #7B4025",
"I  c #73432B",
"U  c #7B422C",
"Y  c #744A2E",
"T  c #7A492B",
"R  c #644634",
"E  c #6B4B3C",
"W  c #6B4336",
"Q  c #744434",
"!  c #7C4333",
"~  c #7A4C33",
"^  c #73433C",
"/  c #7C433E",
"(  c #744B3A",
")  c #7C4C3D",
"_  c #754A33",
"`  c #6B513D",
"'  c #74523E",
"]  c #765137",
"[  c #73512E",
"{  c #59543E",
"}  c #713F48",
"|  c #6D4E4B",
" . c #6C4946",
".. c #744542",
"X. c #7C4542",
"o. c #734E45",
"O. c #7C4B43",
"+. c #744D4C",
"@. c #7B4D4D",
"#. c #76474A",
"$. c #6C5143",
"%. c #6D554A",
"&. c #695B4E",
"*. c #755244",
"=. c #7A5444",
"-. c #755E46",
";. c #74534C",
":. c #7A554D",
">. c #735C4A",
",. c #7B5B4D",
"<. c #7A5C45",
"1. c #694E53",
"2. c #774C52",
"3. c #6E5954",
"4. c #755452",
"5. c #795353",
"6. c #7C5B52",
"7. c #7C5D5B",
"8. c #755859",
"9. c #6B644C",
"0. c #7A614D",
"q. c #78624B",
"w. c #6D6759",
"e. c #756254",
"r. c #7C6352",
"t. c #7C635C",
"y. c #736A5D",
"u. c #7C6B5D",
"i. c #726957",
"p. c #6F715D",
"a. c #72725E",
"s. c #7A735C",
"d. c #7D795E",
"f. c #7C5D62",
"g. c #6F5F62",
"h. c #6E6463",
"j. c #6E6A62",
"k. c #746464",
"l. c #7B6564",
"z. c #756A62",
"x. c #7B6C63",
"c. c #746B6B",
"v. c #7B6C6D",
"b. c #7A646D",
"n. c #6E7667",
"m. c #757462",
"M. c #7B7365",
"N. c #757965",
"B. c #7B736C",
"V. c #757C6D",
"C. c #7C7B6D",
"Z. c #777669",
"A. c #7E6E71",
"S. c #737472",
"D. c #7C7472",
"F. c #757B73",
"G. c #7B7C74",
"H. c #7E7F7A",
"J. c #77797B",
"K. c #6D7575",
"L. c #832D1D",
"P. c #8B2D1D",
"I. c #832614",
"U. c #83341E",
"Y. c #8B331E",
"T. c #833B1E",
"R. c #902F1F",
"E. c #832623",
"W. c #852C24",
"Q. c #8A2C25",
"!. c #832C2B",
"~. c #8B2C2A",
"^. c #872627",
"/. c #922D29",
"(. c #912A26",
"). c #833424",
"_. c #8B3324",
"`. c #843B24",
"'. c #8A3B25",
"]. c #83342B",
"[. c #8C352B",
"{. c #843B2B",
"}. c #8A3A2C",
"|. c #933324",
" X c #91342B",
".X c #93392C",
"XX c #933A26",
"oX c #853531",
"OX c #8C3632",
"+X c #823C33",
"@X c #8C3934",
"#X c #8D3C3A",
"$X c #813B3A",
"%X c #923A32",
"&X c #943736",
"*X c #862A30",
"=X c #824126",
"-X c #85432D",
";X c #8A432E",
":X c #8A4325",
">X c #94412C",
",X c #834333",
"<X c #8A4533",
"1X c #84443B",
"2X c #834A3C",
"3X c #894638",
"4X c #914231",
"5X c #924638",
"6X c #81523E",
"7X c #844746",
"8X c #83534C",
"9X c #825B4D",
"0X c #865648",
"qX c #835453",
"wX c #835C54",
"eX c #895B53",
"rX c #8A5C5C",
"tX c #895755",
"yX c #915658",
"uX c #8F4D4F",
"iX c #80624A",
"pX c #82645B",
"aX c #876458",
"sX c #96615B",
"dX c #8A5D65",
"fX c #945E62",
"gX c #836463",
"hX c #826B64",
"jX c #83666C",
"kX c #8A6B6A",
"lX c #866B67",
"zX c #82746B",
"xX c #847B6D",
"cX c #867569",
"vX c #827574",
"bX c #827B74",
"nX c #887B77",
"mX c #866A72",
"MX c #7E806B",
"NX c #7B8173",
"BX c #7E807A",
"VX c #758B7E",
"CX c #6B8676",
"ZX c #82847A",
"AX c #757983",
"SX c #778685",
"DX c #7E9289",
"FX c #789797",
"GX c #7B8F96",
"HX c #848B87",
"JX c #81979A",
"KX c #838F8E",
/* pixels */
"z z z z z z z z 1 1 v < < v W zX, 1 v 1 1 v v 2 v , v < ).x : ~ r.J v < x M x `.z c c , z v c 3 x.R o O * e : 4 @ @ @ @ @ @ @ @ ",
"}.}.}.}.}.}.}.}.'.).}._.Q.u B gX).).{.).).{.}.{.[.x ).)._.[.y 2XwXb )._.W.OX]._.].].].).].].].x 7.B % & a p u * y y y y y y y y ",
").).).).).).).).).].@X}.}.M ^ jX).{.}.{.].}.}.{.@X].{.].}.@Xn 0XwXA {.}.OX#X{.}.{.}.{.].{.}.{.).l.^ b n i i b y y y y y y y y y ",
"P P P P P P P P < z M v v L R x., c v c z c v c M c L c M M g ' >.l v v v ! c v 1 v 2 , 1 v c , y.R ; : q 7 s ; ; ; ; ; ; ; ; ; ",
"T.T.T.T.T.T.T.T.'.).{.`.T.v Q gX).'.}.`.`.'.}.`.{.v `.`.'.{.z 6XaXL '.'.`.-Xv T.`.'.'.`.`.'.'.T.t.J O O @ d c , , , , , , , , , ",
" X X X X X X X X|.Q.[.W.Y._.S fXW.[.[.Q.Q.[.[.Q.[.W._.Q.|.~.u 3XyXn _.R.Q.}.W.Y.Q._._.Q.Q._._.W.rXS % & % u u - & & & % & & & & ",
"A A A A A A A A S A D D S ! ..jXA D F D D D D D F A ^ D $XF V 4.7.B S +XF X.A m D D D A D D D A jXo.A D N V N h N N N N N N N N ",
"H.H.H.H.H.H.H.H.ZXG.BXG.xXC.S.JXG.ZXZXH.H.H.BXH.bXG.H.G.nXnXS.DXFXK.xXxXbXZXC.C.H.H.H.G.H.BXH.F.GXJ.B.bXG.J.BXbXH.H.H.H.H.H.H.H.",
"P I I c T H 0.j.g g I g g I I g K m j J H U k C.' J J Y L L I g L L L I I I I I Z.W U T H M M J P P L P P P L c 9.r.J U c L c m ",
"].].n u {.y 8X8.# * y y * y y % : a t e @ E.0 gX#X[.~. X/./. X~././.~.~.~.[.[.[.hXZ [.{.x OX~.M }.}.].].}.}.].].;.eXn ].).{.].].",
"}.OXoX].@Xu 8X7.u n ].n n n n n c oX*XZ x ~.i lX) A m M M M +XM M M M M M S S S jXZ [.}.n &X&X+XOXOXOXOXOXOX[.].+.yXZ OX].@XOX@X",
"v M m z {.: =.3.+ : d d : d d : ; y 0 s ; = + y.! z z `.x ).{.x x x x x x n M M z.j x P g }.}.c M M M v M M x z $.8Xz M 2 v M M ",
"2 v v v :X, 0X6.$ , c , , , , , > x = c , ).@ u.3Xv `.'.`.'.:X`.'.`.`.`.'.'.{.{.s.m '.=Xc }.}.P =X`.`.`.=X=X`.v >.eXM '.T.=X`.{.",
"U.).).).XX= 7XqX& = x = = = u = 3 W.E.x < Q.y aX~ c c v 2 v v v v v v v v v v M pXn _.`.x  XQ.< _._._._._._.).).O.uXW._.U.'.)._.",
"m A D m +Xb :.8.q q h q q e e q 8 i 0 h q i 7 k.7XZ n oX].].oXp ].].].].oXoXoXoXh.N n I k $XZ k S m m m S S m m 1.qXC Z b S A S ",
"x.x.v.u.cXe.H.SXz.M.B.M.M.B.B.M.m.kXjXB.x.lXh.JXBXn.m.M.u.x.M.z.M.M.x.m.M.M.M.M.FXj.hXM.m.kXlXM.zXhXx.hXzXzXx.x.SXHXl.lXu.zXzXzX",
"-.-.-.-.-.-.-.-.-.q.>.-.0.-.y.SX*.=.<.=.=.=.=.*.:.>.,.*.=.,.%.a.G.&.,.<.>.e.>.<.-.-.-.-.q.q.-.-.HXw.E o.o.| ;.*.$.$.$.$.$.$.$.$.",
"@X@X@X@X@X@X@X@X}.@XoXOX%XoX7XdXE.~.~.^.^.~.~.E.^.!.!.E.^.~.a $XyX$X%X%X@X#XOX%XOX}.}.OX@X@XOX}.f.V # # 0 r r # 6 6 6 6 6 6 6 6 ",
",X,X,X3X,X,X,X,X-X,X! -X-XU *.x.x M {.M M {.{.M {.M ,Xv {.+Xm =.pXQ ,X<X,X2X,X<X,X,X,X,X,X,X,X,XlX^ * u a i p = d d d d d d d d ",
";X;X;X<X<X;X;X;X;X<X,X;X;X-X=.hX< x ).x ).`.`.).].x {.x _.}.z ) eX! ;X;X;X3X-X;X<X;X;X<X<X<X<X-Xu.R o : : s d : @ @ @ @ @ @ @ @ ",
"-X-X-X-X-X-X-X-X;X<X<X<X;X-X=.hXx `.`.`.`.{.{.`.].v {.< _.{.z ) eX! :X;X-X3X-X;X;X-X-X;X<X<X;X-Xu.R o : d s d : : : : : : @ : : ",
",X,X,X,X,X,X,X,X-X3X,X,X-XU *.x.v M M M M -X-XM M M U v {.+Xm =.pXQ ,X;X,X2X,X;X,X,X,X,X,X,X,XU lX^ * u a i p = d d d d d d d d ",
"@X@X@X@X@X@X@X@X@X#X#X@X%X}.7XdXa !.!.!.!.!.!.!.!.p ].E.~.~.i 1XyX$X%X%X@X#X@X%X@X@X@X@X#X#X@XOXl.V # 0 0 r 0 @ t t t t t t t t ",
"0.0.0.0.0.0.0.0.q.r.e.0.iX-.y.SX,.0.r.0.0.0.0.,.,.>.0.-.,.r.&.N.H.9.0.iX,.r.-.q.r.0.0.r.r.r.r.,.KXy.*.=.:.4.,.=.>.>.>.>.>.>.>.>.",
"u.u.u.r.hX3.ZXDXw.z.x.z.y.x.x.y.p.l.hXw.s.pXh.FXF.z.l.x.i.y.x.t.y.u.x.x.x.x.x.m.FXy.aX9.s.pXpXi.x.x.x.x.x.x.x.y.CXHXy.u.i.s.u.u.",
"e r r 0 i 5  .3.a !.!.!.p !.!.p b !.*Xy ).Q.i dXF p !.!.u p !.E.p p !.!.!.p p n h.h x + k i i s a a a a a a t t #.uXi !.u ].p !.",
"a u u a !.t 7XwXx {.{.{.`.{.{.`.P [.}.c =X'.b pX~ M `.'.v v {.).v v `.`.`.{.M M gXZ  X= {.~.~.n v v v v v v x , %.eXn {.n {.M +X",
"d d : : n + =.e.T.`.'.`.`.`.`.`.v _.[.2 T.Y.x pX! x U.'.T.`.'._.`.`.`.`.`.`.{.{.u.b `., P ].).c ).T.T.).`.`.T.< o.0Xx '.).{.{.}.",
"d ; ; ; z . ' 9.x x {.x x x n x c ].].z v U.b t.! z x ).x v `.).v x x x ].M M M y.g < > c z x > z z z z x x z * $.0Xz ).< v v `.",
"n z z y ].0 O.6.M +X,X+X+X,X,X+XI @X#Xm U {.D x.O.S +X,XM U ,X+XM M +X+X+X! ! ! hXn [.< {.[.[.v M M M m S m M b %.9Xm {.v -XU -X",
"0 0 @ # a   X.4.E.Q.~.Q.Q.Q.Q.Q.W.(./.u _.(.E.rX@X^.^.(.W.W.Q.^.W.Q.Q.Q.Q.~.!.!.t.i W.@ b p u z W.W.W.W.Q.Q.W.E.X.uXE.(.P.Q.Q.Q.",
"B W W B X.V t.B.I Y ~ _ Y ~ ~ Y [ ~ 2XY [ T W N.-._ Y ~ Y Y ~ U Y ~ ~ ~ ~ ~ ] ] G...1XJ ' / 1X( Y Y Y Y Y Y I J w.hX( ) ~ ] ( ) ",
"C.C.C.C.C.C.C.C.MXG.S.bXxXzXJ.GXG.G.G.G.G.G.H.H.bXG.NXC.bXbXS.KXJXn.M.zXB.H.B.xXbXG.G.G.ZXbXC.C.FXK.Z.cXzXG.G.V.V.V.V.V.V.V.V.V.",
"j j j j j j j j m A B S +XS #.jXh h h h h h N N j h l h j N h o.7.V n S D F A S A C j A A A b j b.o.S +XZ A A k p p p p p p p p ",
"[.[.[.[.[.[.[.[.P._.Q.Q.P.L.+XfX& & & & & & & & & % * - & & % +XuXn Q.|.Q.[.L.Y.[.[.[.[.[.[._._.rX1X_.|.Q.].}._.[.}.[.[.[.[.[.[.",
"x x x x < x x x '.}.{.`.`.< Q hXz z , , z z z z z : g > , z d ) eXc `.'.`.{.x T.x x < x x x < < pX( v '.`.{.-X=Xc c c c c c c c ",
"U U U U U U U U < z z v =Xc E z.+ + + + s s s s s X f X s d . E 6.l 1 v c m c v U U U U U U M m z.E c v v m m : {.{.{.{.{.{.}.{.",
"].].].].].].].].}.oX].@X@XM ..gXy y y y y i i i i e b e i i r ..rXA ].}.{.+X].}.].].].].].].n x l.^ n }.@X$X+X).].].].].].].].].",
"}.}.}.}.}.}.}.}._.}.}.[._.u D dXy y y y y y u u p y b y a a 0 X.tXb )._.].}.x _.}.}.}.}.}.}.}.].7.Q u U.[.oX}.).M M M M M M M M ",
"x x < < x x x x , v c v < , ( cXq q q q q q d d y + d : z b q ) aXg v `.v m , 2 x x , x x x < , zX' 1 < < v v , ).).).).).).).).",
"nXbXD.B.zXzXD.AXD.D.vXvXvXvXvXvXbXB.G.B.cXxXS.KXSXF.F.C.G.G.G.G.NXG.G.G.G.G.G.F.SXb.kXxXV.nXvXZXG.G.G.G.G.G.G.B.AXHXk.cXzXC.C.bX",
"^ E  .( ( ) 7.A.o.o.o.*.*.*.*.o.=.*.4.o.=.=.| mX@...^ / / / X.X.O.O.X./ / / / ^ D.@.2X' ` O.^ E X./ / / X./ / F k.lX..O.( ( W E ",
"< x n x < < ) pX{.{.{.{.{.{.+X{.`.M 1X{.}.{.S rX+X].u W.Q.W.W.W.).).W.W.W.W.).).gXn L., c }.W.x ].).W.W.W.W.W.E.*.0Xy ).< x x ).",
"XX.X}._.Y.T.2XwX;X;X4X4X4X4X4X4XXX}.5X<X>X>X,XsX1XM v `.'.'.{.{.=X`.`.`.`.`.`.=XpXn P.T.`.%X X'.`.v `.`.'.'.`.v *.0Xu _.Y.'.'..X",
").).].{.`.U =.t.{.{.-X,X,X,X,X,X<X,X1X+X<X<X! eXQ m c v v M M M c c c c v c c L y.S '.`.M [.W.v c c c c v v v c %.9Xb }.`.'.).].",
"v M M {.{.! ;.k.,X,X1X1X1X1X1X1X3X! / ! 3X2X^ 7.1XS n ].}.[.}.}.{.].].].].].{.{.j.A {.U m oXn I ].].).].].].].).&.6.m ,XM M n n ",
"`.{.{.{.).M *.l.<X3X3X3X3X3X3X3X;X+X1X,X<X3X( pX3X+X].[..X[.[.}.{.{.[.[.[.}.}.}.z.A ].v M @XoX! }.[.[.[.[.[._._.%.8Xb {.v {.M {.",
"3 < ).L.I.= O.gX).).`.`.`.`.`.`.Y.).@X{.'.'.S aXm z 3 < < < < x , , , , < < , 1 hXn I.= <  XW., , , , , < < < $ *.0X= U.= < = W.",
"A.v.v.v.v.A.vXnXB.c.S.c.x.hXh.J.B.B.B.B.B.B.D.bXvXZ.S.z.x.v.h.F.AXg.hXhXc.S.c.zXnXG.B.c.c.B.B.D.K.c.t.t.k.c.c.v.nXvXvXv.v.v.v.D.",
":.;.;.*.;.:.6.6.,.6.t.6.9X9Xe.nX:.6.6.6.,.6.wXwXqX:.,.=.8XeX:.hXmX4.9X9X,.7.;.9XeXwX6.,.,.6.,.:.vXhX9X9X6.6.6.6.6.6.:.;.;.;.,.6.",
"q q + + + q d d 4 . h + 4 o 8 t.z b x x x x x n x z c , ).{.b 2XwXm v v m S z x x x x x n x z y 6.W o 4 + s + # d : : : d d d d ",
"* * * * * * * * = y n y * @ k hXL.).)._.).).).)._.).`.< _._.u 1XeXc T.U.).@X]._.).).).).'.).).U.pX( 3 $ x M x < $ $ = = , , < < ",
"b b b b b b y y * 0 i 0 * + 9 l.x {.{.{.{.{.{.{.@X{.-Xv {.}.z ) aXm `.).}.3X@X}.{.{.{.{.{.{.{.{.8.W @ $ x b y x x x x x x x x x ",
"q w w e w w w w z q C i n b R v.b z M M M M M M ].n M z M M k ( wXk x ).].$Xn ).M M n x n M M M l.o.z x n b b M y b b b b z y y ",
"d d z z z z z z : o w y * @ V x.x {.{.{.{.{.{.{.}.{.-Xv {.<Xm 0XaXQ {.'.}.$XM `.{.{.{.{.{.{.{.{.k.^ @ = u w + , z z z z z z z x ",
"O O O O O O @ @ 3 o * % - O s hX= L.U.).U.U.U.).Q.L.T.= U.)., ! =.d U.Y.= M x 2 U.U.U.).).).L.= t.B # - = * : , $ $ $ $ $ $ $ , ",
"5.2.+.@.@.2.2.1.4.| | | ;.4.t.kX8X+.5.#.8XqX .8.2.2.5.qX@.@.qXrXgX7.5.;.+.;.4.4.8.#.tX8X+.7.5.8XlXgX5.+.+.4.4.5. .7.} 2.2.4.+.@.",
"Z.m.m.N.M.Z.NXVXM.m.a.m.m.a.N.MXs.m.V.a.s.xXN.DXV.N.N.N.M.s.N.MXN.N.m.m.m.m.N.N.HXm.d.s.p.N.a.a.V.N.a.p.m.m.m.m.CXZXm.C.m.N.m.s.",
"p n b n p Z X.qX!.!.!.].!.p p n u n $Xp u n D rXF Z n n n n n n a p !.!.!.].].].dXh @ % 0 G 0 t t 0 t t a p a t o.tXC Z i n n !.",
"].].{.].].n O.pX_.[.[.[.}.].[.}._.{.3X].).v Q aX1X+Xx ).{.{.].].].[.}.[.}.}.[.].lXh O * y b 0 x y y y y u u * % o.0Xn }.x {.[. X",
"c c L P c g ` 9.1 c c c c L L L P c U c v L K i._ J > 1 P P L c L L L c c c H H y.8 X g l h X g f f X ; f f ; X { >.f L c L P M ",
"P._.'.XX XOX7XwX_. X[._._._.}._._.W. X/.|._.M eX@X[.W._.XXXX_._.{.`._._._.}.}.}.rXj u W.u a % W.y = * * u u = % o.uX]..X_.XX_. X",
"v v v `.[.oXO.6.).}.}.{.).{.{.v v z ].]._.`.B pX+Xn x ).`.`.`.{.M M {.{.{.{.{.-X7.h * u u b 0 z w + @ @ y y 0 # | tXn {.).`.v ].",
"P L v {.].S o.3.u ].{.{.].{.{.x P m S {.].x W hX/ S M {.{.M M M M M M {.{.M M M t.l @ * y C h d d e e b b b 0 # 1.qXC {.x U m S "
};
