/* XPM */
static char *_b9509cfd8e34ed7ee2710ac4a68a40d3d2VidIiilG5pWk7[] = {
/* columns rows colors chars-per-pixel */
"64 64 227 2 ",
"   c #4B1A1A",
".  c #7D1B19",
"X  c #7E211C",
"o  c #521923",
"O  c #4D2422",
"+  c #502423",
"@  c #7B453A",
"#  c #473E41",
"$  c #4E4243",
"%  c #51474E",
"&  c #534548",
"*  c #44514B",
"=  c #4D5755",
"-  c #4E5857",
";  c #5B535D",
":  c #585D55",
">  c #534951",
",  c #6B585C",
"<  c #715B5D",
"1  c #6C5749",
"2  c #5B7247",
"3  c #5A6056",
"4  c #434265",
"5  c #564E63",
"6  c #5C5561",
"7  c #5B5868",
"8  c #515173",
"9  c #5B5A72",
"0  c #4F5273",
"q  c #67536E",
"w  c #66596C",
"e  c #615D73",
"r  c #725C71",
"t  c #715F6F",
"y  c #696A6B",
"u  c #64706E",
"i  c #78756E",
"p  c #6C6A75",
"a  c #6C6679",
"s  c #716E74",
"d  c #726372",
"f  c #6F7C79",
"g  c #747272",
"h  c #737B77",
"j  c #766768",
"k  c #3D3D5F",
"l  c #9A110F",
"z  c #97110E",
"x  c #831D19",
"c  c #891D1A",
"v  c #811B17",
"b  c #9D1110",
"n  c #971110",
"m  c #8B0B0A",
"M  c #A4110F",
"N  c #A31111",
"B  c #A61F1C",
"V  c #B91919",
"C  c #80231E",
"Z  c #942E2A",
"A  c #99322D",
"S  c #9C3530",
"D  c #81433C",
"F  c #A96F35",
"G  c #C27F3C",
"H  c #9D4645",
"J  c #9D565D",
"K  c #9B5755",
"L  c #825A43",
"P  c #A84846",
"I  c #A15E59",
"U  c #936C55",
"Y  c #907054",
"T  c #857376",
"R  c #87706F",
"E  c #A9766D",
"W  c #AC7974",
"Q  c #B27D78",
"!  c #A86B53",
"~  c #21826D",
"^  c #2B9476",
"/  c #1F816D",
"(  c #5A8D6F",
")  c #438E7F",
"_  c #519679",
"`  c #599375",
"'  c #5C8E70",
"]  c #71877E",
"[  c #63927B",
"{  c #C9843D",
"}  c #C7833B",
"|  c #DA8938",
" . c #F1983F",
".. c #B38658",
"X. c #989867",
"o. c #9E8476",
"O. c #9E8778",
"+. c #888A7F",
"@. c #A28779",
"#. c #B4817A",
"$. c #A5907D",
"%. c #A8917F",
"&. c #BE9972",
"*. c #BD9770",
"=. c #BB8E62",
"-. c #C98B4B",
";. c #DD964D",
":. c #DE9446",
">. c #D8985B",
",. c #D08F51",
"<. c #E6994A",
"1. c #F29E49",
"2. c #E79D53",
"3. c #FAA54D",
"4. c #F7A753",
"5. c #EDA254",
"6. c #CA9D6E",
"7. c #C5996B",
"8. c #DA9C62",
"9. c #CA9E74",
"0. c #C9A37C",
"q. c #D1A77C",
"w. c #CDB479",
"e. c #D3B57B",
"r. c #E2A063",
"t. c #E19F62",
"y. c #6E6C83",
"u. c #716E86",
"i. c #757288",
"p. c #8B7897",
"a. c #807D88",
"s. c #589A85",
"d. c #418D80",
"f. c #778D86",
"g. c #689782",
"h. c #7C928D",
"j. c #7F9391",
"k. c #63AF9A",
"l. c #64B09B",
"z. c #8B8C82",
"x. c #88988C",
"c. c #91948D",
"v. c #84829A",
"b. c #829793",
"n. c #949892",
"m. c #948F96",
"M. c #AC9384",
"N. c #AE9289",
"B. c #AC9496",
"V. c #B09799",
"C. c #87A191",
"Z. c #89A292",
"A. c #BDA594",
"S. c #BCA58A",
"D. c #9492AD",
"F. c #9998B3",
"G. c #8F8CA5",
"H. c #A19DB2",
"J. c #83AFA7",
"K. c #9CACA2",
"L. c #87B4A6",
"P. c #B1AFA2",
"I. c #A2B1A7",
"U. c #B4B1A5",
"Y. c #ADAAB5",
"T. c #A8A5B9",
"R. c #B1ACB5",
"E. c #BCBABD",
"W. c #B6B9BC",
"Q. c #ABB0B1",
"!. c #D5979E",
"~. c #D29790",
"^. c #C4A381",
"/. c #CBAA90",
"(. c #E6A59C",
"). c #D699A1",
"_. c #DCAAA6",
"`. c #C5ADB5",
"'. c #C9AFB8",
"]. c #CBB6AC",
"[. c #E8ABA4",
"{. c #EFB2B7",
"}. c #F0B3B8",
"|. c #F0B2B7",
" X c #E2B1AD",
".X c #EEC49A",
"XX c #F0C59A",
"oX c #D9C2AE",
"OX c #DAC4B1",
"+X c #CDC2BE",
"@X c #FFD7A3",
"#X c #BDB8C1",
"$X c #A9A9C2",
"%X c #C3BBC5",
"&X c #B7C1C3",
"*X c #C9C8CB",
"=X c #CAD1C9",
"-X c #CBC8DC",
";X c #D3CCD8",
":X c #DAD8DA",
">X c #EEDBCD",
",X c #E7DAD5",
"<X c #FFDBD2",
"1X c #F3D8D7",
"2X c #F0DDCE",
"3X c #DDE2DC",
"4X c #E2E2DE",
"5X c #F3E1D2",
"6X c #DCDAE1",
"7X c #CDCAE0",
"8X c #E2DEE1",
"9X c #F4DEE2",
"0X c #E3E3E2",
"qX c #E5E1EA",
"wX c #E7E5E5",
"eX c #FEEDE5",
"rX c #F8E3E7",
"tX c #EEF1E8",
"yX c #E3F8EC",
"uX c #E6F6EA",
"iX c #FFF4EF",
"pX c #FFFBEE",
"aX c #F0F1E9",
"sX c #FFF5F1",
"dX c #F6F3FF",
"fX c #FCF8F7",
"gX c #FFEEF4",
/* pixels */
"T U r.4.3.5.9.].;XT.D.H.6XsX_.(.[._.gX6XH.D.T.;X].6.5.3.4.r.U R T U r.4.3.5.9.].;XT.D.F.6XgX_.(.[._.gX6XF.D.T.;X].6.5.3.4.r.U R ",
"U 9.8.} ;.-.q.O.; 9 u.e 6 T O W #.O T 6 e u.9 6 O.q.-.;.{ >.q.U U 9.8.} ;.-.q.O.; 9 u.e 6 T O W Q O T 6 e u.9 6 O.q.-.;.{ >.^.L ",
"r.>.@X6..X&.0.OX6 -XdXqXR.% < 1X1X< % Y.qXdX7X6 OX^.*..X6.@X8.>.8.8.@X6..X&.^.OX; -XdXqXY.% < 1X1X< % Y.qXdX7X6 OX0.&.XX6.@X8.,.",
"4.} 6.Y M.2X$.eXa u.s s 6X'.y 8XwXy W.8Xg s u.a eX$.>XM.Y 6.{ 1.4.{ 6.Y M.2X$.eXa u.s s 8XE.y ,XwXy E.0Xg p u.a eX$.>XM.Y 6.{ 1.",
"3.;..XM.$ E.:XY.4 8 p 4XtX=X- W.&X= =XtX4Xp 8 4 T.:X#X$ M..X;.1.3.;..XM.$ #X:XY.4 8 p 4XtX=X- W.&X= =XtX4Xp 8 4 T.:X#X$ M..X;. .",
"5.-.&.2X%X5 t r p.q `.sXpXU.* h.b.* P.pXsX'.q p.r t 5 #X5X&.-.2.2.-.&.2X%X5 r r p.q `.sXpXP.* h.b.* P.pXsX`.q p.r r 5 #X5X&.-.<.",
"9.0.^.$.:Xd o J !.}.K I E M.: ] f.: M.E I K {.).J o t :X$.0.q.7.6.0.0.$.:Xd o J ).}.K K E N.: ] f.: M.E I K }.!.J o t :X$.0.q.=.",
"].O.oXeXY.r J . x A c X D o.z.K.I.+.@.D C c A x . J r T.eXOX@.A./.O.oXeXY.r J . x A c X D @.z.K.I.z.@.D X c A v . J r T.eXoX@.A.",
";X; 6 a 4 p.).v B M z Z <X,Xg :X:Xg ,X<XZ z N B v !.p.4 a 6 ; *X;X; , a 4 p.).. B N n Z <X,Xi :X:Xi ,X<XZ z N B v !.p.4 a 6 w %X",
"$X9 -Xu.8 q {.S N V b P iXc.n.3X0Xn.c.iXP l V M A }.q 8 u.-X9 T.$X9 -Xu.8 q }.S N V N P iXc.n.3X0Xn.c.iXP l V M A {.q 8 u.-Xe D.",
"D.y.dXs p `.K c n b m H B.f yXx.x.yXf B.H m b z c K `.p p dXy.D.F.a dXs p `.K c n b m H B.f yXx.C.yXf B.H m N z c K `.p p dXu.v.",
"T.e qXg 3XsXI X Z P P   u J.L.[ g.L.J.u   H P Z X K sX4Xs qXe H.T.7 qXs 4XsXI X Z P P   u J.L.[ g.L.J.u   P P Z X K sX4Xg qXa G.",
"6X6 Y.6XtXpXE @ <XiXV.u ) ~ k.s.s.l.~ d.u B.iX<XD E pXtX6XY.6 ;X;X6 Y.6XtXpXE D <XiXV.u ) ~ l.s.s.k.~ ) u B.iX<XD E pXtX6XY.7 *X",
"gXT % E.=XP.N.o.,Xc.f J.~ ^ _ ' [ _ ^ / J.f c.,X@.M.P.=XE.% T 9XrXT % E.=XP.N.o.,Xc.f J.~ ^ _ ( ` _ ^ ~ J.f c.,X@.M.P.=XE.% T 1X",
"_.O < y = * : z.i n.yXL.l._ 2 X.X.2 _ l.L.yXn.i z.3 * = y < O _. XO < y = * : z.i n.yXL.l._ 2 X.X.2 _ l.L.yXn.i z.: * = y < O ~.",
"(.W 1X8XW.h.] K.:X3Xb.[ s.( X.w.e.X.( s.[ x.3X:XK.] h.W.,X1XW (.(.W 1X,XW.h.] K.:X3Xb.[ s.( X.w.w.X.' s.[ b.3X:XK.] h.W.,X1XQ ~.",
"[.Q 1XwX&Xb.f.I.:X0XC.g.s.[ X.w.e.X.' s.g.x.0X:XI.f.j.&XwX1XQ (.[.Q 1XwX&Xb.f.I.:X0Xx.g.s.' X.w.e.X.` s.g.C.0X:XI.f.b.&XwX1XQ ~.",
"_.O < y = * : z.i n.yXL.l._ 2 X.X.2 _ l.L.yXn.i z.3 * = y < O _. XO < y = * : z.i n.yXL.l._ 2 X.X.2 _ l.L.yXn.i z.: * = y < + ~.",
"gXT % E.=XP.N.o.,Xc.f J.~ ^ _ ' [ _ ^ ~ J.f c.,X@.M.P.=XE.% T 9XrXT > E.=XP.M.o.,Xc.f J.~ ^ _ ' [ _ ^ ~ J.f c.,X@.M.P.=XE.% T 1X",
"6X7 Y.6XtXpXE @ <XiXV.u ) ~ l.s.s.l.~ ) u B.iX<XD E pXtX6XY.6 ;X;X; Y.8XtXpXE @ <XiXV.u ) ~ k.s.s.l.~ ) u B.iX<XD E pXtX6XY.7 *X",
"T.e qXg 3XsXI X Z P P   u J.L.[ g.L.J.u   H P Z X K sX4Xs qXe H.T.7 qXg 4XsXK X Z P P   u J.L.[ g.L.J.u   H P Z X K sX4Xg qXa G.",
"D.y.dXs p `.K c z l m H B.f yXx.C.yXf B.H m b n c K `.p p dXy.D.F.a dXs p `.K c z b m H B.f yXb.C.yXf B.H m b z c K `.p p dXu.v.",
"$X9 -Xu.8 q {.S N V M P iXn.n.3X4Xn.c.iXP l V N A }.q 8 u.-X9 T.$X9 -Xu.8 q }.A M V b P iXc.n.3X0Xn.c.iXP l V M A }.q 8 u.-Xe D.",
";X; 6 a 4 p.).. B M z Z <X,Xi :X:Xg ,X<XZ n N B v !.p.4 a w ; *X;X; , a 4 p.).. B M z Z <X,Xg :X:Xi ,X<XZ z N B . !.p.4 a 6 w %X",
"].O.oXeXY.r J . x S c X D o.z.K.I.+.@.D X c A x . J r T.eXoXO.A./.O.oXeXY.r J . x A c X D @.z.K.I.z.@.D X c A x . J r T.eXoX@.A.",
"6.0.0.$.:Xd o J !.}.K I E M.: ] f.: M.E K K {.).J o t :X$.0.q.7.6.0.0.$.:Xd o J ).}.K I E M.: ] f.: M.E K K {.).J o r :X$.0.q.=.",
"5.-.&.5X%X5 r r p.q `.sXpXU.* h.b.* P.pXsX`.q p.r t 5 #X5X&.-.<.2.-.&.5X%X5 r r p.q `.sXpXP.* h.b.* P.pXsX`.q p.r r 5 #X5X&.-.:.",
"3.;..XM.$ #X:XY.4 8 p 4XtX=X- W.&X= =XtX4Xp 8 4 T.:X#X$ M..X;.1.3.;..XM.$ #X:XY.4 8 p 4XtX=X= W.&X= =XtX0Xp 8 4 T.:X#X$ M..X;. .",
"4.} 6.Y M.2X$.eXa u.p s 8XE.y ,XwXy E.0Xg p u.a eX$.>XM.Y 6.{ 5.5.{ 6.Y M.2X$.eXa u.p s 8XE.y 8XwXy E.0Xg p u.a eX$.>XM.Y 6.{ 1.",
"r.>.@X6..X&.0.OX; -XdXqXR.> < 1X1X< % Y.qXdX7X6 oX^.&..X6.@X8.>.8.8.@X6..X&.^.OX6 -XdXqXY.% < 1X1X< % Y.qXdX-X; oX^.*..X6.@X8.,.",
"U 9.8.{ ;.-.q.@.; 9 y.e 6 T O W #.O T 6 e u.9 ; O.q.-.;.{ >.^.U U q.8.{ ;.-.q.@.; 9 y.e 6 T O W #.O T 6 9 u.9 ; @.q.-.<.{ >.^.L ",
"R U >.1.1.2.7.A.;XT.D.H.;X9X_.(.(._.9X;XH.D.T.;X/.7.<.1.5.>.U R R U >.1.1.<.7.A.;XT.D.T.;XrX_.(.(._.rX;XH.D.T.;X/.7.<.1.1.>.U j ",
"T U 8.4.3.2.6./.;X$XF.T.;XrX_.(.[._.rX;XT.F.$X;X/.6.2.3.4.8.U R R U 8.4.3.2.7./.;X$XF.T.;XrX_.(.[._.rX;XT.F.$X;X/.6.2.3.4.8.U R ",
"U 9.8.{ ;.-.q.@.; 9 y.9 6 T O W #.O T 6 e u.9 ; O.q.-.;.{ >.^.U U q.8.{ ;.-.q.@.; 9 y.e 6 T O W #.O T 6 e y.9 ; O.q.-.;.{ 8.^.L ",
"t.>.@X6..X&.^.OX6 -XdXqXR.> < 1X1X< % R.qXdX7X6 oX^.*..X6.@X8.>.>.>.@X6..X&.^.OX6 -XdXqXR.> < 1X1X< > R.qXdX7X6 OX^.&..X6.@X8.,.",
"4.} 6.Y %.2X$.eXa u.p s 6XE.y ,XwXy W.0Xg p u.a eX$.>XM.Y 6.{ 5.4.{ 6.Y M.2X$.eXa u.p g 8XE.y ,XwXy E.0Xs p u.a eX$.2XM.Y 6.{ 1.",
"3.:..XM.$ E.:XY.4 8 p 4XaX=X- W.&X= =XtX4Xp 8 4 T.:X#X$ M..X;.1.3.;..XM.$ E.:XT.4 8 p 0XtX=X- W.&X= =XtX4Xp 8 4 T.:X#X$ M..X;. .",
"5.-.&.5X%X5 t r p.q `.sXpXU.* h.b.* P.pXiX`.q p.r t 5 #X5X&.-.<.2.-.&.2X%X5 t r p.q `.sXpXP.* h.b.* P.pXsX`.q p.r t 5 #X5X&.-.:.",
"6.0.0.$.:Xd o J !.}.K K E M.3 ] f.: M.E K K {.!.J o t :X$.0.q.7.6.0.0.$.:Xd o J !.}.K I E M.: ] f.: M.E I K }.!.J o t :X$.0.q.=.",
"].o.oXeXY.r J . . A c C D o.z.K.I.+.@.D X c A x . J r T.eXoXO.A./.O.oXeXT.r J . x A c X D @.z.K.I.z.@.D C c A x . J r T.eXoX@.A.",
";X; 6 a 4 p.).. B N z Z <X,Xi :X:Xi ,X<XZ z N B v !.p.4 a 6 ; *X;X; 6 a 4 p.).. B M z Z <X,Xi :X:Xi ,X<XZ z N B . !.p.4 a 6 6 %X",
"$X9 -Xu.8 q {.S N V l P iXc.n.3X4Xn.c.iXP l V M A |.q 8 u.-X9 T.$X9 7Xu.8 q {.S M V b P iXc.n.3X0Xn.c.iXP l V M A }.q 8 u.-Xe D.",
"D.y.dXs p `.K c n l m H B.f yXx.C.yXf B.H m b z c K `.p p dXy.D.F.a dXs p `.K c z b m H B.f yXx.C.yXf B.H m l z c K '.a p dXu.v.",
"T.e qXg ,XsXI X Z P P   u J.L.[ g.L.J.u   P P Z X K sX4Xg qXe H.T.7 qXg 4XsXI X Z P P   u J.L.[ g.L.J.u   P P Z X I sX0Xs qXa G.",
"6X6 Y.6XtXpXE D <XiXV.u ) ~ l.s.s.l.~ ) u B.iX<XD E pXtX6XY.6 ;X6X6 Y.6XtXpXE @ <XiXV.u ) ~ l.s.s.k.~ ) u B.iX<XD E pXtX8XY.w *X",
"gXT % W.=XP.M.o.,Xc.f J.~ ^ _ ( [ _ ^ ~ J.f c.,X@.M.P.=XE.> T 9XrXT % E.=XP.N.@.,Xc.f J.~ ^ _ ' [ _ ^ ~ J.f c.,X@.M.P.=XE.% T 1X",
"_.O < y = * : z.i n.yXL.l._ 2 X.X.2 _ l.L.yXn.i z.3 * = y < O _. XO < y - * : z.i n.yXL.l._ 2 X.X.2 _ l.L.yXn.i z.: * = y < O ~.",
"(.W 1X8XW.h.] K.:X3Xx.[ s.( X.w.w.X.( s.[ h.3X:XK.] h.W.,X1XW (.(.W 1X8X#Xh.] K.:X3Xx.[ s.( X.w.w.X.( s.[ h.3X:XK.] h.W.8X1XQ ~.",
"[.Q 1XwX&Xb.f.K.:X0XC.g.s.' X.w.e.X.' s.g.x.0X:XI.f.j.&XwX1XQ (.[.W 1XwX&Xb.f.I.:X0XC.g.s.' X.w.e.X.' s.g.C.0X:XI.f.j.#XwX1X#.~.",
"_.O , y = * : z.i c.yXL.k._ 2 X.X.2 _ k.L.yXn.i z.3 * = y , O _. XO , y = * : z.i c.yXL.k._ 2 X.X.2 _ k.L.yXn.i z.: * = y , + ~.",
"gXT % E.=XP.N.o.,Xc.f J.~ ^ _ ' [ _ ^ / J.f c.,X@.M.P.=XE.> T 9XrXT > E.=XP.N.o.,Xc.f J.~ ^ _ ' [ _ ^ ~ J.f c.,Xo.M.P.=XE.> T 9X",
"6X6 Y.6XtXpXE @ <XiXV.u ) ~ l.s.s.l.~ ) u B.iX<XD E pXtX:XR.6 ;X;X6 R.6XtXpXE @ <XiXV.u ) ~ l.s.s.l.~ ) u B.iX<XD E pXtX:XY.w *X",
"T.e qXs :XsXI X Z P P   u J.L.[ g.L.J.u   P P Z X K sX4Xs qXe H.T.7 qXs :XsXK X Z P P   u J.L.[ g.L.J.u   P P Z X K sX4Xs qXa G.",
"D.y.dXs p `.K c n N m H B.f yXC.C.yXf B.H m b z c K `.p p dXy.D.F.a dXs p `.K c z l m H B.f yXb.C.yXf B.H m M z c K `.p p dXu.v.",
"$X9 -Xu.8 q {.S N V l P iXc.c.3X0Xn.c.iXP l V M A }.q 8 u.-X9 T.$X9 -Xu.8 q }.S M V M P iXc.n.3X0Xn.c.iXP l V M A }.q 0 u.-Xa D.",
";X; 6 a 4 p.).. B M z Z <X,Xi :X:Xg ,X<XZ z N B . !.p.4 a w ; *X;X; , a 4 p.!.. B M z Z <X,Xg :X:Xg ,X<XZ n M B . !.p.4 a , ; %X",
"].O.oXeXY.r J . x S c X D W z.K.I.+.@.@ X c S x . K r T.eXOX@.A./.@.oXeXY.r J . x S c C D @.z.K.I.z.@.@ X c S x . J r Y.eXOX@.A.",
"6.0.0.$.:Xd o J !.}.K K E N.: ] f.: M.E I K {.).J o t :X$.0.q.7.6.0.0.$.:Xd o J ).}.K I W N.: ] f.: M.W K K {.).J o t :X$.0.q.=.",
"5.-.&.5X%X6 d r p.q `.sXpXU.* h.b.* P.pXiX`.q p.r d 5 E.5X&.-.<.2.-.&.2X#X6 d r p.q `.sXpXU.* j.b.* U.pXpX`.q p.r d 7 #X5X&.,.;.",
"3.:..XM.$ E.:XY.4 8 p ,XtX=X- W.&X= =XtX4Xp 8 4 T.:X%X$ M..X;.1.3.;..XM.$ #X:XY.4 8 p :X:XW.* K.Q.* W.:X=Xy 0 k D.*XH.# O./.-.| ",
"4.} 6.Y M.2X$.eXa u.s s 6XE.y ,XwXy W.0Xg s u.a eX$.>XM.Y 6.{ 5.4.} 6.Y M.>X$.eXa u.s y W.n.; W.W.- n.R.; 7 9 6 +XR U.T 1 ..F } ",
"t.>.@X6..X*.^.OX; -XdXqXY.% , 1X1X< % Y.qXdX7X; oX^.*..X6.@X8.>.8.8.@X6..X*.^.oX; -XdX6Xm.# > '.9XT # R.;X:X-Xi.].S.S. X../...F ",
"U q.8.{ <.-.q.@.6 9 u.a 7 T + W #.O T w a u.e w O.q.-.<.{ >.^.U U ^.8.{ <.-.q.@.; e u.e > j   E _.< y m.i.v.a.a.A.^...8.F ..#.@ ",
"R L ,.1. .<.=.A.%XD.v.G.*X9X~.~.~.~.9X*XG.v.D.%XA.=.<. .1.,.L R R L ,.<. .<.=.A.%XD.v.G.H.'.Q Q #.@.'.R.i.i.i.V.O.Y G } -.! @ 1 "
};
