/* XPM */
static char *_9c425bf51b549abf68a2dcef4ad7c55eSmvgE4gPDSKlXvi[] = {
/* columns rows colors chars-per-pixel */
"64 64 143 2 ",
"   c #273943",
".  c #2D3F49",
"X  c #32454B",
"o  c #374A52",
"O  c #3A4D54",
"+  c #3C4E58",
"@  c #3D5056",
"#  c #3F5258",
"$  c #42545B",
"%  c #45585E",
"&  c #455761",
"*  c #475A61",
"=  c #4A5D64",
"-  c #4D5F69",
";  c #4E6167",
":  c #4F616A",
">  c #52646B",
",  c #56686F",
"<  c #556771",
"1  c #576971",
"2  c #5A6C73",
"3  c #5D6F79",
"4  c #5E7076",
"5  c #5F7279",
"6  c #62757B",
"7  c #65797E",
"8  c #657781",
"9  c #677981",
"0  c #6A7D83",
"q  c #6D7F89",
"w  c #6E8187",
"e  c #6F8189",
"r  c #72858B",
"t  c #76888F",
"y  c #758791",
"u  c #778A90",
"i  c #7A8C93",
"p  c #7C8E98",
"a  c #7D9197",
"s  c #7F9199",
"d  c #82959B",
"f  c #88979E",
"g  c #86999F",
"h  c #8496A0",
"j  c #879AA0",
"k  c #8A9DA3",
"l  c #8C9EA8",
"z  c #8DA1A6",
"x  c #8FA2A9",
"c  c #92A5AC",
"v  c #98A7AE",
"b  c #96A8AF",
"n  c #95A7B1",
"m  c #97A9B1",
"M  c #9AACB4",
"N  c #9DAFB9",
"B  c #9DB1B6",
"V  c #9FB2B9",
"C  c #A2B5BB",
"Z  c #A8B7BE",
"A  c #A6B8BE",
"S  c #A4B6C0",
"D  c #A7BAC1",
"F  c #AABDC4",
"G  c #ACBEC8",
"H  c #ADC1C7",
"J  c #AFC1C9",
"K  c #B1C0C7",
"L  c #B2C5CB",
"P  c #B0C2CC",
"I  c #B1C3CD",
"U  c #B3C6CC",
"Y  c #B3C6CD",
"T  c #B2C4CE",
"R  c #B3C5CF",
"E  c #B4C7CD",
"W  c #B2C5CC",
"Q  c #B5C8CE",
"!  c #B6C9CF",
"~  c #B5C9CE",
"^  c #B4C6D0",
"/  c #B5C7D1",
"(  c #B5C7D1",
")  c #B7CAD0",
"_  c #B6C8D2",
"`  c #B7C9D3",
"'  c #B7C9D1",
"]  c #B8CBD1",
"[  c #B8CBD2",
"{  c #B9CCD2",
"}  c #B9CCD3",
"|  c #BACDD3",
" . c #B8CAD4",
".. c #B9CBD5",
"X. c #BACDD4",
"o. c #BBCED4",
"O. c #BBCED5",
"+. c #BACCD6",
"@. c #BBCDD7",
"#. c #BCCFD5",
"$. c #BCCFD6",
"%. c #BACCD3",
"&. c #BCCED8",
"*. c #BDCFD9",
"=. c #BCCED8",
"-. c #BDD0D6",
";. c #BED1D7",
":. c #BDD0D6",
">. c #BED1D8",
",. c #BFD2D8",
"<. c #BED0DA",
"1. c #BFD1DB",
"2. c #BFD1D9",
"3. c #C0D3D9",
"4. c #C0D3DA",
"5. c #C1D4DA",
"6. c #C0D2DC",
"7. c #C1D3DD",
"8. c #C2D5DC",
"9. c #C3D6DC",
"0. c #C2D4DE",
"q. c #C3D5DF",
"w. c #C4D7DD",
"e. c #C2D4DB",
"r. c #C5D8DF",
"t. c #C6D9DF",
"y. c #C6D8DF",
"u. c #C4D6E0",
"i. c #C5D7E1",
"p. c #C5D7E1",
"a. c #C6D9E0",
"s. c #C7DAE1",
"d. c #C6D8E2",
"f. c #C7DAE1",
"g. c #C8DAE4",
"h. c #C9DBE5",
"j. c #CADCE6",
"k. c #CBDDE7",
"l. c #CADDE3",
"z. c #CCDEE8",
"x. c #CCDEE8",
"c. c #CDE0E6",
"v. c #D4E7ED",
/* pixels */
"M G _ T P _ @..._ _ / T J J / *.k h S @.,.i.../ T k r n J T 6.@.{ $.{ ;.{ B g d M L T [ ! L ;.[ P C 6 k H T P P L D C H F J H a ",
"V C J @.*./ J G _ T T / _ .._ _ y y M G P ,./ J / x s G ,.T ..P [ _ @.,.{ F c s N $.! ! $._ @.! ! F e b L P J E C m z N B Z S p ",
"n x M J ..P F G J G G J / T F V 3 9 x M S @. .T G d i J 0.P / L T G ! { L L C t c e.[ P e.@.E P { L i C { L H E M x g z k x c 0 ",
"M m M C G J P _ T / / / / J V x > 9 c m m P / P / d r G h...6.0.@.H _ { P ;.P y d 3.! F ;.L A A ! F w M [ T F A m z g l g g k 6 ",
"l N V n x M C V G P / J F C c d 1 e M M c S G J P p 9 S h.@.6.,.,.P ! T F { P t a 3.{ G _ Z b B L A 6 k L ! A b z k h c l z c 0 ",
"e c C n l M N c S G J S V M l p > 8 n N m G T ..n 9 6 S k.i.i.$.d.3.0.;.! ,.T j z ;.! G G c l c H F 7 d A E A l k k h c g g j 6 ",
"3 d N C N C C V C S V n c c d e = > p l c C C S p 5 5 N ,...*.P ;.w.r.e.;.{ D z g M l j g r t u b S 7 0 s c l t a i t i q 0 w = ",
"& 3 i j h d d h s p e 8 8 8 > + = & 6 y i d y r 3 & $ r h p s t d c b c c g w 6 9 7 > , > % > > r b 2 ; : 6 7 > 6 6 2 6 > , 5 O ",
"O 6 p s d p 8 < & > 8 > : 6 5 9 p d l m N M x h y e r y e + 1 0 6 0 r i p t e 0 6 % O X @ > = ; 6 5 4 6 9 q 0 7 2 % 6 k k k g 7 ",
"> s C G P S h e = 5 l m M S F _ .._ / _ @.*.*.@.@.T J C h - 0 g C C C A F J T ! c u 6 % = 9 0 r t y a j c N B C t 7 g P L J A d ",
"c T i.d.z.k.*.T h k _ k.6.@./ 0.6.*._ / _ ..*.,.*.*.6./ m 6 n r.3.;.{ _ [ $.e.w.@.F b 0 7 h c m l c V F L ! { @.N g N ;.! G m e ",
"S ..@.P ..6.i.k.S h C *.../ P ,./ / _ _ _ T J G / ..0.T l < l d.F H H H H G D S ! { J a t m B M b C H ! ! T E ! { m C T C x y = ",
"m J _ / *.,.@.,./ y d F T ../ @._ ..*.*._ G C V G P ,._ x : d [ C S F L T L J H C P F p r b b z M A L { { _ [ @.r.C S { S c y & ",
"N T ,.6.d.i.,.0.*.y d G ..,./ G ..../ G C M m n M N T ..C 6 l [ L L T ! ! ! ! ! H T F t e M B b S P { ;.;.{ @.;.e.C H d.[ C i % ",
"M G T / @..._ *.C 6 d / *.0.*.P T J S M c c m M V M G @.F 9 p M E E T L L P L P $._ A y i D L H ! { ;.;.@.{ { @.L c Z w.{ A d = ",
"c G ..,.i.,.T _ C q c $.T L G V n c l g d g l b n l N E J r s m F H T [ { { ! ! { J B y d L ;.{ ! _ { { $.;.3.e.D g b { { H c 4 ",
"i A L ;.d.;.[ F C 7 5 j u p 6 9 6 2 2 ; > > = 7 t r V N V u i c J H E [ ! H H [ ,.-.c 7 t V [ ! ;.P ! 3.$.@.e.e.F r j [ L J M , ",
"7 c B G _ ! _ F b 4 2 d t a w i u r u q 6 > o = 2 > q 9 r 9 d H H H H H V x z c H E c 5 7 k B A M C D Z F e.c.;.d , y E @.@.C 2 ",
"6 k c C P ! ;.L c 0 i C C P G _ 3.[ 3.[ C d 6 t c g l u u q d H L E ! H m g d k x B a : $ > 6 w d z b b Z $.;.F 0 > i T E T C 0 ",
"6 l c M F L $.L d w c ! { 0.,.0.l.3.w.$.F g 9 d D F [ H P C v { H H F V c k k z z x a 5 5 w t a u 7 > 2 r i i s 2 > i c a t r ; ",
"5 k c b Z H ! G a t Z { ! E J F [ P E P Z d 6 r l Z E [ 3.L c S G C m z k l l l z k a a B H H H 3.M 7 4 a c M F F C ! @.C b z 0 ",
"6 x m B F T { F a a E $.! T _ L $.! 3.$.) m 7 6 j C Z Z E F i l [ H B z z c c z x d r d H -.J S ,.[ l t M ;.@.[ w.{ ;.0.{ ! B r ",
"> g c m Z F G b 6 q L ! ! L ;.! F D P H W m 2 $ u b c Z $.3.d z A V c g d j h d g y 0 d F L Z B A ! B c [ l.{ ! { E { $.@.;.A a ",
"+ r a d k l k r > 9 { ,.;.! ;.L P P E P o.F q = t M m F e.3.w r r r q 6 5 7 7 6 > ; : t C L H T F H m b ! L F w.F ! e.@.P E J m ",
"# 2 6 6 y p r i : w ;.w.,.L { 3.E [ w.E H $.0 2 u m E P [ E d % 2 2 4 6 0 e q 7 2 ; = 4 M m C [ C A k b { { ! ! ! { ! L [ $.G c ",
"4 d l h b M z z 0 r H { w.;.e.e.w.K P E P F 2 2 k D E E E P u 6 g j b Z H F C N M i 7 0 C N m V E P l b ;.r.l.c.@.$.! J E @.L C ",
"k T e.! _ { H A 0 w F @.k.0.0.e.l.E E $.$.E 6 , c P H [ [ P u m l.3.o.3.3.$.[ { 3.N i r C m c b G B r d L ;.e.0.3.3.{ J P ! E G ",
"z ! r.P A F B j > 9 L 0.r.! { e.$.t.t.;.E ! 9 = c E F 3.[ F 9 E l.) F W E E [ 3.;.F c d A C Z E F m 0 g ;.l.w.$.l.k.l.e.;.;.@.E ",
"b L ;.S b m k 0 % 2 M V N c M C K 3.[ F M N q 2 D 3.E 3.[ C > F e.[ [ 3.3.[ L E [ F M g D Z F E T M 7 i L ! F C H ! @.@._ L D C ",
"H { e.L V V z 7 $ % w 6 0 q w 7 t i r u q 9 2 w Z W P P ) C > Z l.w.3.3.w.w.3.3.3.P b d H F Z N E b , , r 0 6 6 9 r i d d i q 6 ",
"L H ! T A C k 2 % > i r a d w = % 2 2 t 9 6 > 4 t t g u v c > v v m v x M G [ Q Z N f r C Z C m M g = $ = O % 2 7 0 r i i e 6 , ",
"{ H _ ,.! J c 4 , i ,.$.w.$.b 5 q D [ l.E Z i 4 % O > O 9 t $ u q t t 7 7 0 6 = > 2 > $ 0 t d g 6 5 O o $ o > i P H J L L A m z ",
"c e.F T ,.L A 9 2 m ;.! E ;.M 4 m A E @.;.3.$.! s t V N C F [ J r.! F { F c > 2 d p t i z C A C d i e > > > = r F r.! L { L E E ",
"c r.! E { F V 6 , N 0.L H 3.F t S T ;.e.e.e.,.{ B z ! ! ! L [ L ! J F ;.,.{ i 0 L [ ;.,.3.,._ H $.L F C T F d g M ! J H E T E C ",
"w T _ _ 3.;.E a , B d.E F { G d F E $.$.@.;.;.@.N d H { ;.! ;.;.C V M A H ! i 7 L { @.T F H L ! e.{ ! ! k.{ s r m P T T L [ ;.M ",
", C ! L [ ;.! k w Z l.r.,.e.E m A J _ _ ! { ;.,.S i c m m d d d d i i z M G k c L E P A C F ,.k.T E ! P _ C q 0 B L _ J V F { z ",
"w P ,.F C A C d 2 w g c b c d t S T ;.;.@.;.e.e.M 6 r u i 0 0 0 w 7 9 p r r 4 g F G A M m B D H J ! ;.[ ;.C w w C ! T C h c A d ",
"$ y k r 9 r r 0 6 4 4 7 0 7 1 = C L 3.e.;.{ { { d 1 y k B V H L ! F H [ b t 2 g ! H B l g z b m m N S H 3.F 0 5 H ;.J M g k M a ",
"O e b c b C C C F S V M V C k q c A { ,.{ ! L H z y A ! ,.{ r.l.;.{ $.e.C g 4 a c j t 6 > , 4 6 r r y s M z 4 2 V H M l l j j t ",
"O y P ;.0.r.! _ P 3.3.! ,.k.P d g B ! ,.$.! L H d i ! 3.;.J ! ! d.w.@.T c a > 4 d h g t 6 > % @ % % $ # , 2 $ > a z r r d i q 2 ",
"$ c e.{ H P P H H P _ ;.J ! ! u p M C P { P T L g g ! E { L ! ! E T @._ F a 4 d F G H A Z j g 2 $ O $ > 2 5 4 > e t 0 0 9 0 6 X ",
"r D e.E H L L L H F J ! G T L t r c M D [ T P C k l @.$.e.@.;.@.! L _ ! L c u V [ { e.e.k.@.;.c = u B B m B C V B A C C M c a % ",
"d Z T J T ! J H ! T H ! E { ! i t m m V E @.[ C a d ! [ ,.[ _ L { P L L ! C k J H P [ $.k.,.w.M > F v.e.@.e.0.r.;.d.0.l.l.w.J t ",
"x C F F ! [ E _ L J A H J J C 9 r m c c S { $.C i g ;.3.d.3.;.! { P J J ! V d B ! _ ;.{ e.L ! l r [ r.F ! ;.E ! H ! H ! ;.0.{ h ",
"z M M m C C A L ! [ F H H C l 2 7 c b c Z T ! N 7 u { ;.r.e.e.{ @.! ! ! { N r d T { e.$.;.D F g M $.E Z ! _ F L L ! F G P [ T d ",
"7 d c m V B m N G ! A Z B l t ; 7 b C C P ! H c > w ! { e.,.r.e.;.@.;.;.;.N q t M C H H ! Z F d A _ ! L { T H $._ ;.! _ _ @.! h ",
"= w g k c c k g p z d i i 7 2 $ 6 k z c C B c r > t 3.e.e.;.r.r.e.3.e.{ { m 9 r m M Z F ;.P L d F E { _ E L T ! A L F H H T T k ",
"o > > $ = 2 2 4 6 i r r r 6 6 1 > 0 6 6 r r 7 = $ 7 L H A V D F 0.e.;.T H x 6 w B M B S ;.P F r ,.$.@.T J _ { F J { T L J _ ;.M ",
"9 d k d l M S T P { 6.3._ P P T C B B r = & $ $ % 2 r t w 7 9 e g g l a t 9 = > u z c k C z w m J $...J T E P L P T / P J @.T c ",
"C ..*.P T _ / _ *... ...*.*.@.[ { w.{ r = > > > > > > 2 6 9 7 4 = $ , 7 w r 4 6 t i t r i 5 $ t M G / / .._ T .._ _ .._ / ,.P x ",
"n / 6...@.@./ P @._ P P T _ @.;.F 0.T 0 7 M A C D D D S A S F F k 9 d C H _ H F T F A A H g 7 c l N S P / G F / P J T P J P N y ",
"9 n P T _ @._ _ ..,.6./ S S T e._ r.G 0 i ! { J G T { _ H D F L [ d c E ! { ! L E P L ! ,.B e d M C S G P F S _ / P T T G F l 8 ",
": l T / T / / _ P / / S m c M S _ ;.H u t B V M _ L H P ! [ ! L ! a c ! ! _ E E T ! { ! r._ d r V V n n M M N F / G G G C M p 1 ",
"< n ,.@./ _ / _  .G C M M M M m m Z [ c y b H _ { ! H C B B A F b w g F T ! H T L P P A T L d 6 n M c l c m M C P F F S M x i 2 ",
"6 M *./ P T G S G V c x m N N M B C 0.C r b [ L G F S m h d z M x r p c F E F ! L A F C S C i 6 p M C M M N M M S N M m k d y 5 ",
"> h M x l l p e 0 9 6 3 5 9 y a M c J x 7 m { M b k a a h l g i r > = 2 i z g M k p g k h u > % - p n k d d i y r 9 9 8 1 > = + ",
"8 6 0 r 8 5 6 6 6 6 8 3 = = 2 6 d i h u = = 7 6 6 6 0 9 5 6 4 = 2 = & > 6 0 w r 0 0 w q 9 2 ; % $ < 2 < 3 8 9 9 8 1 2 2 - $ o   ",
"+ 1 d M M M N M C V S C c l l g , ; 7 r 4 5 6 % O % 6 d a r e r x j j z c c b B b M M c j d g l 6 - : e l c c c M M S G M d 9 = ",
". 9 S ,.,.6.6.@.0.@.0.h.i.0.*.J 2 6 j A A F A g 6 2 r D ,.L L w.{ @.3.0.e.;.0.l.3.3.;.[ T ! ;.r.V 8 q J z.0.6.0.@._ ,.6._ G V l ",
"O d *.6...@.@._ ..J T @.@.0.d.@.r k E l.w.l.c.r.L d 0 c ;.$.L { ! _ { [ ! T ! { P F A D L { $.{ c > 6 G ..C C S / G G F S P ..P ",
"$ c *./ G T / _ _ G J P G P ..T g N { e.E T ;.3.l.M 0 a ! r.! L e.;._ L L P F S b c c m C G L E D 9 r G ..P T J P G J J G T P C ",
"> V 6.T / ..T _ T J / ..P T ..T z C L { ;.;.$.@.e.F s d H { A A C M c z c b l d a d h h k c A ! P i e m J / / F / ^ _ / G P G M ",
"q J 6.P ..@.J T P G T ../ ..*._ d m D L 3.0.;.$.;.A r 6 a i 7 w q 0 7 6 6 6 > $ 1 , 2 5 0 t a d c r q c P / P T / T / P F P J M ",
"s / ..S _ @.J / ..J J T J / @.T d V J T { _ ! ;.[ b 2 > d h d N C C M c k i 7 ; = @ O ; 0 i q 2 : : 6 c P F F 6.P / ,.,._ ..G c "
};
