/* XPM */
static char *_b68189a028b46a58b3afad391bc64170va53PRl8qjoUVPo[] = {
/* columns rows colors chars-per-pixel */
"64 64 132 2 ",
"   c #190F06",
".  c #1D1007",
"X  c #1E1109",
"o  c #23160D",
"O  c #24180F",
"+  c #261710",
"@  c #2C1611",
"#  c #271912",
"$  c #2C1D15",
"%  c #2E1F18",
"&  c #311E17",
"*  c #321F18",
"=  c #2E2017",
"-  c #2E2119",
";  c #34231B",
":  c #39251E",
">  c #35281F",
",  c #362720",
"<  c #392720",
"1  c #372921",
"2  c #3B2C24",
"3  c #3E2F28",
"4  c #3E3027",
"5  c #3E3128",
"6  c #412D26",
"7  c #432F28",
"8  c #45332C",
"9  c #49342E",
"0  c #46382F",
"q  c #463730",
"w  c #4B3631",
"e  c #473931",
"r  c #4D3A33",
"t  c #503732",
"y  c #513933",
"u  c #503834",
"i  c #513935",
"p  c #513A34",
"a  c #533A35",
"s  c #523B35",
"d  c #503B36",
"f  c #543834",
"g  c #543B36",
"h  c #573B37",
"j  c #503C35",
"k  c #503D36",
"l  c #513D36",
"z  c #513C37",
"x  c #503D37",
"c  c #533C36",
"v  c #543D37",
"b  c #513C36",
"n  c #523D38",
"m  c #523F38",
"M  c #533F38",
"N  c #523F39",
"B  c #543C38",
"V  c #553D39",
"C  c #563D38",
"Z  c #553E38",
"A  c #573E39",
"S  c #543F3A",
"D  c #523E38",
"F  c #583C38",
"G  c #5B3F3B",
"H  c #583F3A",
"J  c #4E4037",
"K  c #4F4138",
"L  c #514038",
"P  c #514039",
"I  c #534039",
"U  c #54413A",
"Y  c #55413A",
"T  c #57403A",
"R  c #55423B",
"E  c #56423B",
"W  c #56433C",
"Q  c #56433D",
"!  c #55443D",
"~  c #57443D",
"^  c #57443E",
"/  c #57463F",
"(  c #54423B",
")  c #59403B",
"_  c #58413B",
"`  c #5A413C",
"'  c #5B423D",
"]  c #5C403C",
"[  c #5D413D",
"{  c #5C433E",
"}  c #5F433F",
"|  c #58453E",
" . c #58453F",
".. c #5B443E",
"X. c #59463F",
"o. c #5D443F",
"O. c #5A443E",
"+. c #56483F",
"@. c #5A4740",
"#. c #5E4540",
"$. c #5B4640",
"%. c #574940",
"&. c #5A4942",
"*. c #5C4942",
"=. c #5D4A44",
"-. c #5E4B44",
";. c #5F4C45",
":. c #5B4942",
">. c #614541",
",. c #624642",
"<. c #644844",
"1. c #654945",
"2. c #644B46",
"3. c #674B47",
"4. c #654C47",
"5. c #604B45",
"6. c #664D48",
"7. c #674E49",
"8. c #694D49",
"9. c #684F4A",
"0. c #6A4E4A",
"q. c #635049",
"w. c #6A514C",
"e. c #6C504C",
"r. c #6D514D",
"t. c #6C534E",
"y. c #6E524E",
"u. c #6D544F",
"i. c #6E5550",
"p. c #6F5651",
"a. c #705752",
"s. c #725954",
/* pixels */
"u.i.a.s.s.i.w.6.9.9.g t.6.6.6.6.9.9.9.t.t.t.2.,.h { ,.,.2.2.} Z 9 ;.q.@.*.-.*.-.;...T T ! ..W M L ! ! &.r w -.! ..W Z M s c Z Z ",
"o.o.o.#.#.{ Z g 4.2.w 4.#.{ ' _ ' _ { ' { _ H s g Z H _ G { H w 2 M ! M W ..T T W M r r c M c r 9 r w r 8 3 M r c r r r r r s s ",
"Z c s s s r 9 9 v v 6 ..T _ T T s s g s t w 9 9 w s s y s v y 9 ; 8 w 9 c L r r r w 9 9 w r w 9 9 w 9 q 2 < r w w w w w r r r w ",
"T M s r r r 9 8 9 9 : T v T T T s c v r 9 8 9 9 9 r w w r c s 9 ; 8 8 8 r r 9 w 9 9 8 9 9 w w 9 9 w 9 9 < < c r w w r r r r w w ",
"M r r 9 9 9 8 8 9 w : M r r r r r r c r 9 8 8 9 8 8 9 8 9 r r 9 2 8 8 6 9 9 8 9 8 8 8 8 9 9 9 9 9 9 8 8 ; ; r w w r r s s r w 9 ",
"r r w 9 9 9 8 8 6 8 ; r r r w w w r r w 9 9 8 9 3 7 8 8 8 w w 8 2 8 8 6 8 8 3 8 7 8 8 8 8 8 8 8 8 9 8 8 ; ; r w w w r r w w 9 9 ",
"r r w w w 9 9 8 < 3 % r r r r r w e w w w e 9 5 3 5 8 5 8 9 8 3 : 8 8 8 9 6 < 8 7 8 8 8 8 8 8 8 9 w 8 9 < , r w 9 9 w w w w w 9 ",
"w w 9 9 w 9 9 8 8 9 ; L r r w w 8 8 8 8 0 8 5 2 8 8 9 8 8 9 8 < ; 6 9 w w 6 < 8 8 8 9 9 9 8 8 8 8 9 8 9 < ; w 9 8 8 w w w w u u ",
"9 9 9 9 9 9 9 9 w < ; 3 w 9 8 8 8 r 9 < 2 5 3 5 2 5 8 8 9 8 5 5 : 8 w 9 8 8 6 < 6 w 9 8 9 8 7 9 8 3 9 8 ; ; 7 8 8 8 8 8 w w 9 8 ",
"9 9 9 9 9 9 9 9 r 3 < 9 r r w w 5 9 5 1 8 0 8 8 5 8 8 9 9 8 8 5 & 2 8 8 8 8 7 3 7 w 9 8 9 8 8 w w q r w 2 3 w w w 8 8 8 8 8 8 7 ",
"7 7 8 8 7 7 7 7 3 ; % < 6 6 2 3 2 5 > ; 8 9 8 8 2 3 5 8 5 5 3 2 & < 8 8 8 8 8 6 7 9 6 2 8 8 7 9 9 8 9 8 < < 7 7 r w 9 9 9 9 9 7 ",
"; ; ; ; ; ; ; ; 2 ; & ; 2 < : : ; ; = = ; ; % ; $ % & = ; - % % $ * ; ; ; & & * : : % $ : ; ; 2 8 3 8 8 < < 8 6 < 2 2 6 7 6 6 < ",
"....o...o...o..._ c y r c r r r 8 0 9 9 8 < : 9 M L L L ! T T T ! ! W L r r r T 9 8 < 2 9 9 8 r r w r L r r W c < 3 8 r r r w 9 ",
"................5.#.#...' ' ' ' T ....&.T 8 9 5.r r c M L M M M W L M c r w r ! &.L 9 r *.@.W ;.! x ! &.! &.-.W 8 r W #.-.*.#.#.",
"' ' { { { { { { v Z Z g s s g v 9 w 9 w 9 : : T c c M L T T T T ! T T W M r c @.r 8 < 8 L c w L L w r L M ( W w 8 w s M M c s Z ",
"Z Z H H H H H H s Z H v s v H _ Z r 9 r w : : c r r r r r c c c c r r M r 8 9 r L 9 2 9 ..T r W W r r L c M M 8 M Z W W M M Z ' ",
"v v v v v s s s s y s s c c y w s v y 9 6 * : c ' ' T v s s y r r r w w 9 w r r 6 8 ; 8 ..L T c c r c c c c 9 8 9 w s s y y c Z ",
"w w w w w w 9 9 9 9 9 w w w r r s c y w 7 ; : Z v s y w 9 9 9 9 9 9 8 8 8 8 8 8 2 6 & 6 c r r 9 9 9 9 w w 9 8 6 7 8 9 9 9 9 w w ",
"w w r r r r w w 9 w w 9 9 9 r T r r r w 8 ; 2 T r r r 9 9 8 8 8 9 9 8 8 8 8 8 8 2 6 * 3 c w w 8 9 9 9 9 9 9 8 8 8 8 8 8 9 9 9 9 ",
"r w r r r r r r w r r 9 8 8 r T w r 9 9 8 ; : c r r 9 9 9 8 8 8 9 9 9 9 8 8 8 8 6 8 * 3 r 9 9 8 9 9 8 8 9 9 9 9 9 8 7 8 9 9 9 8 ",
"9 9 9 w w w w w w w w 8 3 3 9 r w r w w 8 ; ; w 9 9 9 9 8 8 8 9 9 8 9 8 8 8 8 8 6 8 & 1 0 5 8 3 9 9 8 8 8 8 9 9 9 8 6 8 8 9 8 8 ",
"8 9 9 9 9 9 9 9 9 w 9 8 3 3 8 9 9 w 9 9 9 ; ; 9 9 9 9 9 9 9 9 9 8 8 9 9 9 8 8 8 8 8 - < 0 5 8 3 8 9 9 9 8 8 9 9 w 9 8 8 8 9 9 9 ",
"3 3 5 5 5 3 3 3 3 3 3 2 2 2 2 2 3 3 2 5 3 % $ 5 5 5 5 3 5 5 5 5 2 2 5 5 5 4 2 2 3 5 $ ; 8 2 2 1 2 3 5 5 3 2 3 5 8 8 5 3 2 2 5 8 ",
"; ; ; ; ; ; ; - % % % - ; ; = $ ; ; ; ; ; O o 1 ; ; - ; ; ; ; ; = = - - - - = $ ; ; . + > - - $ % - ; ; = % % = ; ; ; ; = % ; ; ",
"< < 2 1 ; ; ; > ; o $ < 2 2 2 1 > ; ; ; < < ; ; ; < 2 2 3 5 < ; o - 1 < 1 2 2 2 5 5 1 > ; 1 2 2 < ; ; ; $ = 1 > = < 5 2 2 5 2 ; ",
"%.%.&.%.+.! ! +.J 8 e +.&.%.&.! ! K J L ! ! L r K ! ! ! +.+.! r 8 r +.+.! ! %.%.:.%.! ! ! ! +.%.+.J J r 8 e ! +.r L +.+.+.+.! J ",
"L L L L L r r r r 3 8 L L L L r r r w r c L r w r r r r r L r e 2 0 K L J K L K ! L K J J J K K L r r w < 8 L ! w w r L L L r r ",
"r r c r r w w w 9 < 6 r r r r 9 r w w w r r r w w r r w r r r 9 ; 5 w r w r r r r r r r r r r w w w r 9 < < w L r 9 9 c L w w r ",
"T T W T T c c L r 2 6 r r r c w c r r r r r r r c c c r c L c w ; 3 w r r r c r r r c L M c c r w r Z r 2 2 r c M w 9 c T r r T ",
"c c c r r r r r 8 : 2 9 9 9 r 9 9 9 9 9 8 8 8 8 9 r r 9 w r w 8 $ < 9 w w r r r w w w r r r r r 7 8 r 9 : : 7 8 r 9 8 9 r w w w ",
"v c s w 9 9 r c 9 : 6 w r y c y r r w 9 9 9 9 9 9 r s y s s r 8 ; 7 r c r r r r r r r r c c c c w 9 s w < 2 9 w v s 9 8 9 s y w ",
"r r w 8 8 8 9 r 6 ; ; 8 8 9 r 9 9 9 9 8 7 7 8 8 8 9 9 9 w r 8 6 ; 3 w w 9 9 9 8 9 9 9 9 9 9 9 w r 9 9 8 : : 8 9 r r 8 2 6 r w 6 ",
"r r 9 8 8 8 9 9 2 % & 8 r 9 8 9 8 8 8 8 w w w 9 8 9 9 9 r r 9 2 % < 8 8 7 8 8 8 8 9 8 8 8 8 9 9 8 8 r 9 ; ; 8 w 9 8 6 8 8 9 9 8 ",
"r r w 9 9 9 9 0 3 ; ; 8 r 9 8 9 7 8 9 9 9 9 9 9 9 9 9 9 w w 8 < ; 3 w w 9 8 9 9 9 q 9 9 9 9 w w 9 9 r 9 ; ; 8 9 9 8 8 8 8 8 8 8 ",
"9 8 8 8 8 8 8 8 < % % 3 9 8 8 9 7 8 9 9 8 3 3 7 3 8 8 8 8 9 3 ; % < 8 9 8 8 9 8 8 8 8 8 8 8 8 9 8 8 9 6 % & 2 3 6 8 8 8 6 3 8 8 ",
"9 9 9 9 9 9 9 9 < ; ; 3 9 9 9 w 8 8 9 w w q 9 w 8 9 9 9 9 w 9 3 % < 9 9 9 w w w q 9 8 9 q 9 9 q 8 8 8 6 ; ; 3 8 9 0 w w 9 9 9 w ",
"< < < < < 2 2 2 ; % # ; < < ; < ; % % ; 3 2 2 3 ; ; < < < 3 2 ; # ; < < < < < < 2 ; ; < 3 < < < ; ; ; ; # % ; ; ; < 3 3 < ; : < ",
"; ; ; ; ; ; ; ; 3 ; ; < < : ; ; 3 ; % ; ; # # $ ; ; < ; < 2 < < ; < 2 < ; ; ; ; ; $ # ; ; ; % ; ; ; ; : ; ; < : ; ; ; ; ; ; ; ; ",
"r w w w w r c c ..T T ! ..T r r ;.! M r 8 ; , 8 r L ( L L W W L L ! ! L M L L c r 8 7 r c w 9 w T r T ..L T ..M c r c c c c r w ",
"T L M c L T ..&.L L T ! ..! L c L L L L 8 < 9 &.L %.&.! L W W L M W T M M W ..! W w w W @.L r M ! M ! &.T ! ..c T L L T ! ! c r ",
"M M c c c c M M c c c c c c c c r r r r w , ; r L x r L L L x r c c c c s s r r r r < ..M r r c L M c c c c c c M M c c c c L L ",
"c r r r r r r c c c c c c c c c r r r r 9 ; ; w r r r r r r r r r r r r r r r r w w : W c r r r c c r r r r r r c c c M M c c r ",
"c r r r r r y c c c c c c c c c w r w w 9 ; ; 9 w r r r w 9 w w w w w w w w w w 9 8 ; M r r r s c r r r r r r r r r r c r r w 9 ",
"c c r r r r s s r r r r r r r r w r w w 9 ; ; 9 q r r w 8 3 8 8 w 9 9 9 9 9 9 8 8 8 * c r r r s r r r r w w r r 9 9 9 9 8 8 8 7 ",
"r r r r r r r r r r r r r r r w w r w w 8 ; ; 9 8 q w w 8 3 8 9 9 9 8 8 8 8 8 8 9 7 & r r r r s r r w 9 w w w w 9 9 8 6 6 6 7 8 ",
"9 9 8 8 8 8 9 9 9 9 9 9 9 9 9 9 w w q w 8 ; ; q 3 8 9 9 8 8 9 w 9 9 8 8 8 8 8 8 9 7 $ r r r r r r r 9 9 9 9 9 9 r 9 8 6 6 7 8 9 ",
"8 8 8 7 7 8 8 8 9 9 9 9 9 9 9 9 8 9 9 9 8 ; ; 9 3 8 8 9 9 9 q w 9 9 9 9 9 9 9 9 9 7 @ w w w w w 9 9 9 9 9 9 9 9 9 9 8 8 8 8 9 9 ",
"8 8 8 8 8 8 8 8 8 8 8 8 8 8 8 8 8 8 8 8 8 - ; 9 9 8 8 8 9 8 8 8 9 9 9 9 9 9 8 8 9 6 @ 9 9 w 9 9 9 8 8 8 8 8 8 8 8 8 8 8 8 8 8 8 ",
"2 2 2 3 3 7 8 8 e 8 9 8 8 8 e 5 e 5 8 e 3 $ % 2 8 8 8 8 q e 9 8 9 8 5 5 8 q 9 8 8 ; ; 3 q 9 8 8 8 8 8 9 9 9 8 8 8 8 5 5 5 8 9 q ",
"2 3 2 2 2 2 2 2 2 1 2 5 2 4 5 > 2 1 1 2 1 $ $ ; < 1 1 1 2 2 2 1 5 5 5 5 5 3 2 2 2 - $ 1 2 2 1 2 1 1 1 2 2 < 1 ; 1 1 1 < < 1 < < ",
"& & & $ # # # + % # % $ o $ - + $ - - - - % % % % % % % % % $ $ + % ; ; % $ $ $ ; # # - ; % $ - $ $ % % - $ + o % % ; ; ; - % $ ",
"W T L M M M r r w 8 3 ; % 2 e 9 8 e w 8 w r r 8 w q 9 9 9 8 8 5 % , 8 8 8 3 3 5 w 8 9 e q 8 8 q 8 5 8 9 9 5 < ; 9 q w q 9 9 8 8 ",
"T M M M T L c r &.! L 8 2 w :.%.W &...L W ;.*.x ! ! W W W L M r < 9 M W M r r L L L W ! W r M L M r M L W x 9 3 ..! T L M M M L ",
"' T Z W ....T c w r r 7 , 8 K w r M c r r T M 9 M r r r r r w 9 ; 6 w r w 8 8 9 9 w r r r w w w w w 9 w r w 6 ; r r w 9 9 9 w w ",
"g s s s Z M r 9 w r M 8 < w L w L Z Z M M Z M r Z M M M M M c r < 7 r M r r w r w r r s c M s r c r w r M r 8 2 M c s r r r r r ",
"Z g s s Z Z r 9 r c r 3 ; 9 ! r r r r c s r r r r r r r r r r w ; 2 9 r r r r s 8 8 9 w r c r w r w 9 w r w 7 < w w r r r w w 9 ",
"s s s s s s r r 9 M r 9 ; w r w r r r r r r r r w w r r r r w w 2 : r r w M r s r r w w w 9 9 8 w w w 9 w w 7 ; w r w w w w 8 8 ",
"w w w w w w w w 9 c w 8 % 9 r w r r r r r r r r w w r r r r w w < ; w r w M r r w w w w 9 8 8 8 8 w 9 9 9 8 2 ; w w w w w 9 8 8 ",
"9 9 9 9 9 9 8 9 8 r 8 8 # 5 e 9 w w w w w w w w 9 w w w w w w 9 ; * 9 w 9 r w w 9 9 9 8 8 8 8 8 7 8 9 8 8 8 < ; w w w w 9 9 8 8 ",
"8 8 8 8 8 8 8 8 8 w 8 3 + 5 8 9 9 9 9 9 9 9 9 9 9 9 9 9 9 9 9 9 ; % 8 w 8 r 9 9 8 9 8 8 8 8 8 8 8 8 8 8 9 9 2 ; 9 9 9 9 9 9 8 8 ",
"8 8 8 8 8 8 9 8 9 e 5 5 $ 5 9 e 9 9 9 9 9 9 9 9 9 9 9 9 9 9 9 8 ; % 9 q 8 w 9 8 9 9 9 8 9 8 9 8 w 8 3 5 w w 3 % 9 9 9 9 9 8 9 8 ",
"8 8 8 8 8 8 8 8 8 9 5 8 $ 2 8 8 8 8 8 8 8 8 8 8 8 8 8 8 8 8 8 8 ; % 8 8 3 q 8 8 8 8 8 8 8 8 8 8 8 3 1 < 8 9 2 % 8 8 8 8 8 8 8 5 ",
"< < < , 1 1 1 1 1 2 1 2 O ; 1 2 1 1 1 1 1 1 1 1 1 1 1 1 1 1 1 1 - + < 1 ; 2 1 1 1 1 1 1 1 1 1 1 1 1 ; - ; ; ; # 1 1 1 1 1 1 1 1 ",
"% % % % % % $ $ $ - $ -   # = - $ $ $ $ $ $ $ $ % % - - - - $ $ + X - - + - % - $ $ $ $ $ $ $ $ $ - - # o + # + % % - - - - - $ "
};
