/* XPM */
static char *result[] = {
/* columns rows colors chars-per-pixel */
"64 64 203 2 ",
"   c #320D1E",
".  c #340E2B",
"X  c #2E1123",
"o  c #2E1D25",
"O  c #2A1C2D",
"+  c #34142B",
"@  c #311B2C",
"#  c #3E0434",
"$  c #3C0D33",
"%  c #3F0738",
"&  c #3E0D39",
"*  c #2E1734",
"=  c #2D1B31",
"-  c #3B1233",
";  c #311C33",
":  c #3E1138",
">  c #381839",
",  c #2B2525",
"<  c #252C25",
"1  c #292B26",
"2  c #2C252A",
"3  c #2B2B2B",
"4  c #32222B",
"5  c #32292C",
"6  c #2D322C",
"7  c #34312B",
"8  c #3B312E",
"9  c #333B2D",
"0  c #2D2B31",
"q  c #2D2835",
"w  c #332630",
"e  c #342C32",
"r  c #3C293E",
"t  c #2E3334",
"y  c #2C3A33",
"u  c #323433",
"i  c #3A3435",
"p  c #343A35",
"a  c #3D3A34",
"s  c #32353A",
"d  c #3B343A",
"f  c #343A3A",
"g  c #3C3C3C",
"h  c #410735",
"j  c #410A36",
"k  c #44063A",
"l  c #4A033C",
"z  c #420B3B",
"x  c #480A3D",
"c  c #41113A",
"v  c #432A35",
"b  c #43273C",
"n  c #4B2E3C",
"m  c #423C36",
"M  c #46343C",
"N  c #4C353D",
"B  c #423D3A",
"V  c #493B3C",
"C  c #34413C",
"Z  c #3C423B",
"A  c #3C483E",
"S  c #43433E",
"D  c #414B3F",
"F  c #373441",
"G  c #363A42",
"H  c #3B3C43",
"J  c #4A0541",
"K  c #470943",
"L  c #4B0B44",
"P  c #4B014A",
"I  c #520243",
"U  c #54024E",
"Y  c #5A044E",
"T  c #441040",
"R  c #4E1144",
"E  c #501447",
"W  c #5C194E",
"Q  c #560052",
"!  c #5C0054",
"~  c #580A50",
"^  c #560258",
"/  c #5E0159",
"(  c #591756",
")  c #610054",
"_  c #65015C",
"`  c #69005E",
"'  c #641D56",
"]  c #472B41",
"[  c #492C4A",
"{  c #502D48",
"}  c #413440",
"|  c #4D3543",
" . c #433D43",
".. c #4D3C44",
"X. c #4E344C",
"o. c #4D3D4D",
"O. c #523544",
"+. c #543A43",
"@. c #53364D",
"#. c #533A4C",
"$. c #593C4D",
"%. c #5E255B",
"&. c #5E2A5B",
"*. c #4E3351",
"=. c #543750",
"-. c #543A51",
";. c #593C53",
":. c #5E335B",
">. c #632456",
",. c #642A56",
"<. c #65245A",
"1. c #69255B",
"2. c #652A5B",
"3. c #6A2A5D",
"4. c #603156",
"5. c #650261",
"6. c #6D0164",
"7. c #6F0F6A",
"8. c #720165",
"9. c #75016A",
"0. c #7C006D",
"q. c #6C1D69",
"w. c #731064",
"e. c #760271",
"r. c #7E0072",
"t. c #7E0F75",
"y. c #7F0679",
"u. c #761E74",
"i. c #7A1D74",
"p. c #662462",
"a. c #6A2464",
"s. c #672961",
"d. c #6B2C63",
"f. c #6D246A",
"g. c #71256C",
"h. c #712B6C",
"j. c #693263",
"k. c #703364",
"l. c #72346C",
"z. c #752272",
"x. c #792274",
"c. c #752D71",
"v. c #7A2976",
"b. c #782D78",
"n. c #7A3472",
"m. c #3D4443",
"M. c #3C4646",
"N. c #3E4948",
"B. c #434343",
"V. c #414B45",
"C. c #4A4945",
"Z. c #43464A",
"A. c #49414B",
"S. c #424A4B",
"D. c #4B494C",
"F. c #53404C",
"G. c #524050",
"H. c #80006E",
"J. c #810B6F",
"K. c #830075",
"L. c #890176",
"P. c #820C71",
"I. c #880E76",
"U. c #86007A",
"Y. c #8B017C",
"T. c #850D79",
"R. c #8A0C7B",
"E. c #90007D",
"W. c #831C75",
"Q. c #811278",
"!. c #851C7A",
"~. c #80206A",
"^. c #87237B",
"/. c #8D0281",
"(. c #8C0D83",
"). c #930284",
"_. c #980386",
"`. c #930B85",
"'. c #95038A",
"]. c #9A028B",
"[. c #96098B",
"{. c #990B8D",
"}. c #891781",
"|. c #8C1B82",
" X c #911483",
".X c #961489",
"XX c #9D108D",
"oX c #971B88",
"OX c #9A1F8E",
"+X c #960391",
"@X c #9B0492",
"#X c #9C0B91",
"$X c #9E0898",
"%X c #9C1F90",
"&X c #A0058C",
"*X c #A00194",
"=X c #A40A93",
"-X c #A50E9D",
";X c #8E2280",
":X c #AB06A4",
">X c #AB0DA0",
",X c #AF11A7",
"<X c #B011A8",
/* pixels */
"-.s.s.s.a.2.X.B.l.c.g.f.g.g.p.s.q.f.S Z.h.h.f.b.g.f.p.f.a.f.&.D.=.a.s.s.s.2.X.B.l.c.h.f.g.g.<.s.f.f.B.Z.g.h.g.b.g.f.p.g.f.f.&.C.",
"l.).Y.).Y.K.I e @XY.].).]._.U.Y._.).X B._.`.L.U.U.).U.Y.K.K.U.2 l.E.U.).E.K.I e *XY.].).]._.L.Y._./.X B._.`.U.L.K.).U./.K.K.U.4 ",
"k.K.Y.Y.Y.K.l t =X).U.U.U.).).).Y.Y.X g ].K.U.E.L.Y.Y.U.U./.)., k.K.Y.Y./.K.l e =XE.Y.U.U.).).).Y.U.X g ].K.L.E.U.Y.Y.U.U.Y.)., ",
"d.r.K././.Y.l 0 XXY.E.Y._.E.].E.L.U.+  .).K.L.L.K.U.U.U.Y.Y.K.2 h.r.K././.Y.J 0 XXY.E.U._.Y.].).U.Y.+  .).K.U.L.K.U.U.U./.Y.U., ",
"-.# k # # j . t ~ I k x h % j h l z ; C.l h h j z l J U h j k 3 =.# k $ # j . t ~ I k K % % % j l z ; C.k h k h z l J I # h z 3 ",
"X.| | n N n | ] B.;.$.$.+.| +.O.+.X.#.F.N +.O.N +.| G.B N | O.@.| | O.] M n O.b B.;.$.$.V | +.+.O.O.#.F.N +.O.N +...-.B M | { +.",
"U.U./.U.K.r.U.9.e W.Y.)._./.L.U.).Y./.Y.U.L.Y.=XK.U.c B.:XY.Y.K.U.U./.U.K.r.U.9.e W.Y._.].E.Y.L.).Y./.Y.Y.U.U.=XK.K.j V.:XY.Y.K.",
"U.U.K.U.K.K.0.0.0 !.).K.)._.Y.).E.Y.U.U.K.L.L.L.K.K.. B.,XK.U.U.U.U.K.U.K.K.0.0.0 W.).K.)._.Y.).Y.Y.Y.U.L.L.U.L.K.K.$ m.,XU.Y.U.",
"K.Y.Y.K.K.Y.K.0.s W.U.Y.Y.]._.K./.K.E.Y.U.U._.K.Y.K.-  .<XU.U.U.K.U.Y.K.K.Y.K.0.f W.U.U.Y.]._.U.Y.K.).Y.U.K._.K.Y.U.-  .<XK.U.U.",
"Y ) _ _ _ _ ! / s :.6.) ` 9.6.8._ ` ` _ _ _ _ ` ) ` @ S 7.9.) ) ! ) _ _ _ _ ) / s :.6._ 5.9.6.6.` _ ` _ _ _ _ ` ! ` O  .7.9.) _ ",
"C.A.V V V V V m m m m m } ..B.A.m V m m m V m B M | M m V V @.D C.o.S V V V V m a m m m V | B.-.m V m m m V m m N | m B | m @.S ",
"j.E.Y.U.E.Y.Y.U.0.K.K.0.Y.0.i ;XY.E.Y.U._.).E.Y.K.U.K.L.U.K.Y.; j.E.Y.Y.E.Y.Y.K.0.K.H.H.Y.9.i ^.E.Y.Y.L._.).E.Y.K.U.K.K.U.K.Y.w ",
"c.K.U.U.K.Y.K.0.K.K.K.K.0.K.u oXY.L.U.Y._.'.Y.r.U.r.K./.Y.U./.2 h.K.U.U.K.E.K.0.K.K.H.L.0.r.u oXY.L.U.Y.'.)./.K.U.r.U./.U.Y./.4 ",
"c.U.U.K.r.r.Y.r.H.U.K.K.0.e.f  XL.L.E.).U.U.).'.U././.U.K.U.U.2 c.U.U.K.r.K.Y.r.H.Y.K.K.0.e.f  XY.L.Y.).Y.U./.'.U.Y.Y.U.K.U.U.2 ",
":.K.r.0.0.0.0.9.K.r.9.e.e._ 7 f.K.K.U.U.r.e.K.K.0.e.r.9.r.K._ 4 2.K.e.e.0.0.0.9.K.r.9.0.e._ u a.K.K.U.Y.H.0.K.K.0.0.r.9.K.K._ w ",
"A B.B.g g a S g f Z a a i A g Z.f p p p 3 6 y a u u u 6 p p d p A B.B.B g p S g g C g 9 i A g A.f p p p 6 6 y f t u u 9 y p d p ",
"Y./.Y.).).c Z.@X]._._.Y.)._.].)./.).).U.B.|.).)._.Y.E.).).Y.E.Y./.Y.Y.).).c A.+X]._._.Y.).].].).Y.).).U. .|.)._.).Y.Y.).E.Y.Y.Y.",
"K.U.K.K.K.- B.*XU.Y.r.U.U.Y.'.K.Y.Y.U.(.d i.@XK.L.9.L.H.K.K.K.K.K.Y.U.K.K.c B.@XU.Y.K.U.K.Y.'.K.Y.Y.Y.Y.d i.#XK.L.9.L.K.L.K.K.K.",
"U.r.K.K.0.- B.].'.).).K.U.U._./././.Y.r.d ^.Y.U.U.Y.K.0.XX).Y.U.Y.r.r.K.r.-  .].'.).'.K.U.L._./././.E.r.M ^./.U.U.Y.K.0.XXE.U.Y.",
"L.H.9.9.0.& A.Y./.K.Y.e.U.U.K.U.K.K.Y.e.g v.L.).9.0.U.U.0.0.9.0.K.0.9.0.9.- A./.Y.K.Y.e.K.U.K.U.K.r.Y.e.g x.K./.9.H.U.U.e.K.9.0.",
"f 5 a C s F M.Z.m.s H m.G m.p C 7 7 f f Z.D.F F f m.6 p m.G u g u 5 f C q F N.Z.H f H G H H f Z u 7 a p N.D.F F s m.6 p C C f g ",
"@.U.)._._.@X)./.Y.K.Y.Y.Y.E.K.Y.d n.).Y.*X*X]._.).[.U.U._./.@XE @.R.)._._.@X)./.Y.K./.Y.Y.Y.K.U.d n.).Y.*X@X&X'./.`.L.Y.]._.].E ",
"8 0.K.9.K.K.U.r.0.K.0.9.r.0.0.r.@ }.]./.).U.U./.K.K.U.U.K.U.K.z 8 0.K.0.L.0.L.r.9.K.9.0.r.0.0.r.@ }.]././.U.K./.K.K.Y.U.K.Y.0.x ",
"7 K.0.U.K.0.K.0.K.Y.9.K.0.0.9.0.4 }.K.K.K.U.U.K.U.U.).r.U.U.r.z 8 H.0.U.K.0.r.0.L.Y.9.K.0.0.9.0.4 !.K.U.U.Y.U.K.U.Y./.r.U.U.K.k ",
"v U.Y.r.K.0.K.K.9.0.K.0.9.K.r.9.2 R.Y./.K.U.0.R.K.0.r.K.U.K.Y.K v U.Y.K.K.r.r.K.9.9.K.0.9.K.r.9.O !.Y./.K.U.e.Y.r.0.r.K.U.K.Y.K ",
"i R c c c z : z $ & & : z : & j 4 M $ & % & c z z & : & & z : o i R : z c & c % $ & j c c c & z 4 M & & z z T & z & : & z z : o ",
"<.<.f.f.z.z.,.&.{ Z #.f.i.u.u.v.d.d.x.z.z.i.q.*.B.&.z.u.q.i.g.z.<.<.f.f.z.z.2.%.O.g @.f.u.i.x.v.p.d.i.z.g.x.f.*.B.&.z.u.q.x.f.z.",
"K.K./.U.0.r.0.K.` 6 z.Y.)././.U.U.U.Y.K.U.U.U.: B ].K.K.XXY.K.U.K.r./.U.0.r.r.r.` 6 z.).).E.Y.U.L.U.E.L.U.U.K.& B ].r.K.{.Y.r.Y.",
"0.U.r.K.K.r.Y.r._ 1 z.U.Y.U.K.Y.Y././.U.U.[.r.: g r.`.U.r.r.K.K.H.L.K.K.L.r.U.K.) 3 z.U./.K.K.U.Y./.Y.U.r.[.r.: g r.`.U.K.r.K.K.",
"K.K.r.K.K.r.K.0._ 1 u.Y.K.K.U./.U./.K.U././.U.- Z K.0.y.K.0.0.r.K.K.0.K.K.r.K.0.) 1 x.U.K.U.U./.U./.K.U././.U.- Z K.r.r.K.r.0.r.",
"9.0.r.9.0.9.9.8.Y 3 q.K./.U.K.K.K.r.r.e.r.y..X: g K.r.K.U.K.K.K.9.0.e.e.0.0.9.8.Y 3 q.y./.U.r.U.r.r.r.r.U.U..X& g K.r.y.K.K.K.K.",
"3 3 1 3 3 3 0 3 1 3 S 3 3 2 3 3 2 3 < < 0 3 2 < Z g < < 3 < 3 3 3 3 3 < 3 3 3 3 1 3 H 0 0 2 < 2 0 3 < < 3 3 1 1 A Z < < 3 < 3 3 ",
"B.(.).'.'.'.@X'.'.'.'.'.D.b @X@X`.Y.$X@X'.@X'. X .R (.K.U.R.Y.:.B./.).{.'.'.{.'.'.].'.[.D.b +X+X`.Y.$X@X].+X[. X .R U.T.Y.Y.Y.:.",
"+ U.U./.U.[.U.K._.).`.Y.B   _.Y.Y.U./.Y.)._.K.=Xe I r.K.K.K.Y.n.+ U.U.Y.U.{.K.K._.E.`./.B   ).Y.Y.Y./.Y.)._.K.#Xe I K.K.K.0.Y.n.",
", U.U./.K.U.K./.U.Y.Y._.B.X Y.U.).E./.Y./.Y.Y.=Xt J K.K.Y.K.K.d.1 U.L.).r./.U./.L.E.U._.B.X Y.Y.).).).Y.Y./.E.=Xt l U.Y./.K.Y.j.",
"2 U./.K./././.Y.K.=XY.'.} . )._.).Y.).).Y.).L. X0 l /.'.Y./.U.l.2 U.Y.U./.U./.Y.K.=XY._.H . )._.E.Y.).).Y._.U. Xq l /./.Y.).U.k.",
"3 ; = * 4 o O = ; ; = r B.2 O * = O 2 = * ; X A.0 w * * = > > o.3 = O ; ; 4 O O ; ; = r B.2 O = O = 2 O * * o B.t ; * * = * > o.",
"}.R.(.~.i -.R.T.R.R.`.P.R.I.R.`.R.`.R.T..X(.3.D w.t.P.T.I.t.T.t.(.R.`.i.i -.R.I.R.R.`.J.R.R.R.`.R.`.R.R..X(.3.B.w.Q.J.t.R.t.Q.P.",
"K.U.Y.:XD.- K.K.U.L.Y.L.)./.Y.U.).U.Y.U.Y.Y.W.w 0.0.U.U.U.Y./.U.K.U.Y.:XD.- U.0.U.L.E.K.)./.U.Y.Y.U.Y.U.E.Y.W.5 9.0.U./.K.Y././.",
"U.Y.Y.>XB.+ U.Y.E.Y.L.E.Y.K.).E.U.).Y.Y.U.).W.3 K.9.U.U./.U.K.E.K.Y.Y.>Xm.+ U.Y.E.Y.U./.Y.K._.E.U.).Y.E.U.).W.2 K.0.K.U./.U.r./.",
"U.K.U.[.H & K.Y.K.).K.U.Y.Y.Y.`.E.E.U.Y.U.).^.t K.K.K.L.0.r.K.K.U.U.Y.[.g : U.Y.K.).K.K.Y.Y.Y.`.E.Y.U.Y.U./.W.s r.K.K.L.0.K.K.K.",
"k x L ( B., l z h h x J h j x l k l L J x x #.s z x x K z & % z k k L (  ., z k h j x J h j l x z l L J x x #.f & z l L & j $ j ",
"B <.>.>.1.1.,.<.,.1.<.3.3.,.d.1.:.Z.4.,.>.,.,.1.>.>.1.' <.1.1...S >.>.>.1.1.3.<.,.<.<.2.3.,.3.1.:.B.4.,.>.,.,.1.<.<.1.' <.1.1...",
"4 r.K.K.U.).Y.K.K.).K.Y.U.U.L.Y.!.5 9.K.K.0.K.0.K.K.H.K.0.K.K.h.2 r.K.K.U.).U.K.U.).L.Y.L.L.Y.Y.|.5 9.r.K.0.K.0.K.K.0.K.r.K.K.h.",
"2 U.Y.U.Y.Y.r./.U.'./.].).).K.L.OXu e.Y.K.0.0.K.0.0.0.K.'.'.K.b.2 U.Y.U.Y.Y.K./.U.'./.]././.U.K.OXu e.Y.K.r.0.K.0.0.0.K.].'.K.b.",
"2 Y.U.Y./.Y.K.K.'.Y.'.U.K.U.U.Y.%Xu 0.U.0.K.K.K.0.U.K.U.U.K.H.h.2 Y.U././.Y.K.K.'.Y.'.Y.U.U.L.L.%Xu 0.U.r.r.K.K.H.U.K.U.U.K.K.k.",
"2 L ) ) Q 5.! / / / ! ! _ 5.! Q &.6 P ^ Q Q ! ! U Q ! Q ! ! 5.X.2 L ) ) ! 6.! ! ) ) / ! 5._ / Q %.7 P ^ Q Q ! ! U U ! Q ! ! _ X.",
"C Z Z Z C H A C A A a g m.A V.C V.B.B.p B S S m. .B.B m.S Z.C.A.C Z C Z p C A C C S f g m.A N.Z N.V.B.p B S S m. .B.B m.m.Z.D.B.",
"K.L.K.K.Y.Y.0.L.K.L.!.B.y./.E.).Y._.U.U.U.E.Y.)._.B.- U.U.U.Y./.K.L.K.K.Y.L.0.U.K.U.!. .K.E.E.).U.).U.U.U.Y.E.Y.'.B.- K.Y.Y.L./.",
"0.0.U.K.K.K.K.Y.K.E.W.d /.U.U.Y.U.Y.K.U.).Y.).Y.@XB.c K.H.U.E.K.H.0.U.K.K.L.K.E.K./.W.d /.L.U.Y.Y.Y.K.Y.)./.).Y.*XA.c K.0.U.Y.L.",
"K.Y.Y.).r.r.Y.U.K.Y.i.B '.).].).Y.U.{.Y.K./.).).].A.& H.U._.H.K.K.U.U._.0.K.Y.U.K.Y.i.B [./.'.).Y.U.{.Y.K./.).).].A.j 0.U.`.K.K.",
"8.` 8.` 6.T.` 6.9.9.W i 5._ 8.9.9.9.6.` 0.0.9.e.8.B + ) ` ` 8.8.8.` 8.` 6.T._ 6.9.9.W d 5.5.8.9.9.8.8.` 0.9.9.e.8. .+ ) ` ` 8.6.",
"S g N.N.Z B.S.N. . .Z.m.D.B.Z D M.V.S.N.S.M.m.S.Z.Z.H H M.M.M B.S B N.N.S B.S.N. .H S.B.D. .Z B.m.V.S.N.N.N.m.B.Z.Z.H H B.N.M A ",
"J U.)./.Y.Y.U.Y.Y.U.).'.[._.|.w K.H.K.E.Y.U.r.K.K.K.K.Y.Y._.U.N J U.).).Y.U.U.Y.Y.Y._.'.[._.|.5 K.0.r././.U.r.L.K.K.K.Y.Y._.U.| ",
"J U.'.K.U.K.U.Y.r./.Y./.U.{.|.@ 0.9.r.K.9.0.K.L.0.K.K.L.K.H.K.7 J U.'.K.U.K.U.Y.r.Y.U./.U.{.|.4 H.9.K.K.9.9.K.U.9.K.K.L.K.H.K.7 ",
"J 0.K.K.K.0.Y.r.K.K.[.{.Y.).}.4 9.9.K.0.H.K.0.K.0.0.K.K.U.0.K.i K r.r.K.K.e.Y.r.K.U.[.[.Y.).}.@ 9.0.H.0.H.K.0.K.0.H.K.K.L.0.K.i ",
"% K.K./.r.K.K.K.K.r.U.r./.).}.o 9.0.0.9.9.0.0.9.0.r.0.r.0.0.L.v % K.U.Y.r.K.K.K.U.r.U.r./.). X2 9.0.0.9.0.0.0.9.0.0.0.r.0.0.U.v ",
"3 4 e 3 4 5 2 4 w 5 2 2 , 1 B.5 e u e u i 5 7 5 e e e e w w M f 5 3 5 2 w 2 2 4 4 5 3 , , , A.3 5 u e e i 5 7 5 e e e e w w M f ",
").(.`.`.).[.Q.B.[ (.#X{.].[.#X[.[.#X].#X-Xj.g ( /.[.).[.(.'.[._././.`.`._.`.Q.V.[ (.#X{.{.`.#X'.[.XX{.[.-Xd.Z W /.[.).[.'.`.{.).",
"K.r.K.Y.Y.K.{.m - K.r.)._.K.Y.Y.U.r.'./.K.x.< ` K.K.0.e.K.Y.0.K.K.r.K./.U.K.@Xm - K.r.).).K.Y.Y.K.U.'./.K.z.1 ` K.K.r.0.r.Y.0.K.",
"0.0.K.K.K.[.K.Z & r.U.U.U.Y./.U.K.U.).U.).z.3 ` K.K.H.0.K.K.K.K.0.r.r.U.K.[.K.Z & r.U.U.U./././.K.U././.).z.3 _ K.K.r.r.K.r.K.K.",
"H.0.K.K.r.K.U.g $ K./.K.Y.r.K.U.K.'.U.U.K.x.1 ) r.r.0.K.9.0.9.0.K.0.K.K.r.K.U.Z $ K./.K.U.r.r.U.K.'.U.U.K.x.< _ K.0.H.K.9.0.0.0.",
"_ 6.8.6.9.6.9.g + _ 6.9.9.6.6.6.5.8.6.6.6.%.3 l _ _ ` _ 5.9._ _ _ 6.6.6.9.6.9.g + _ 6.e.9.6.6.6.6.6.6.6.8.%.3 z ) ` _ _ 6.6._ ` ",
"s y y s y y A N.6 s s s y y s s t s f s f  .u 9 u t u s f u s t p p t y y y D B.t s s t y y y s t y G s f  .u 7 u s s y f s u t "
};
