/* XPM */
static char *result[] = {
/* columns rows colors chars-per-pixel */
"64 64 227 2 ",
"   c #030000",
".  c #0C0300",
"X  c #0E0B00",
"o  c #110600",
"O  c #150A00",
"+  c #1B0D01",
"@  c #0E1200",
"#  c #151200",
"$  c #1D1102",
"%  c #1B1D00",
"&  c #200F02",
"*  c #231304",
"=  c #291606",
"-  c #241C02",
";  c #2B1A06",
":  c #261608",
">  c #291708",
",  c #2D1A09",
"<  c #301D07",
"1  c #321E0A",
"2  c #1F2002",
"3  c #242201",
"4  c #2C2304",
"5  c #2A2A01",
"6  c #312406",
"7  c #332A05",
"8  c #392D07",
"9  c #36210B",
"0  c #3B240D",
"q  c #362C08",
"w  c #3C2A0C",
"e  c #2C3002",
"r  c #363305",
"t  c #3B3A06",
"y  c #3D3409",
"u  c #3D2610",
"i  c #3F2911",
"p  c #41270F",
"a  c #432A0F",
"s  c #43330D",
"d  c #443B0B",
"f  c #493A0C",
"g  c #402710",
"h  c #442A11",
"j  c #4A2E13",
"k  c #473212",
"l  c #4E3114",
"z  c #4C3B11",
"x  c #533416",
"c  c #543C15",
"v  c #593917",
"b  c #553518",
"n  c #583718",
"m  c #583719",
"M  c #5C3A1A",
"N  c #623E1C",
"B  c #3C4205",
"V  c #3E4708",
"C  c #4B430D",
"Z  c #474908",
"A  c #514C0F",
"S  c #47500A",
"D  c #4B530B",
"F  c #51550E",
"G  c #544313",
"H  c #594116",
"J  c #584C15",
"K  c #5E411A",
"L  c #535311",
"P  c #5C5315",
"I  c #555B11",
"U  c #5B5D14",
"Y  c #604C17",
"T  c #65421D",
"R  c #6A441E",
"E  c #644B1B",
"W  c #6C4B1E",
"Q  c #65551A",
"!  c #6A551D",
"~  c #695C1C",
"^  c #72511D",
"/  c #5C6115",
"(  c #5E6718",
")  c #606517",
"_  c #64651A",
"`  c #6B641D",
"'  c #676B1D",
"]  c #6B6C1D",
"[  c #71681F",
"{  c #6A711E",
"}  c #71731E",
"|  c #664220",
" . c #6C4520",
".. c #6F4921",
"X. c #714721",
"o. c #744B22",
"O. c #794E25",
"+. c #755223",
"@. c #7C5126",
"#. c #745B22",
"$. c #7B5B25",
"%. c #7E5228",
"&. c #6A6822",
"*. c #6C6D21",
"=. c #736222",
"-. c #7B6224",
";. c #726D23",
":. c #7B6D26",
">. c #6D7022",
",. c #737525",
"<. c #7A7426",
"1. c #787927",
"2. c #7C7428",
"3. c #7C7C2A",
"4. c #825427",
"5. c #835C26",
"6. c #835529",
"7. c #895729",
"8. c #855A29",
"9. c #8B5B2B",
"0. c #925F2E",
"q. c #905F30",
"w. c #86642A",
"e. c #8B652C",
"r. c #876A2B",
"t. c #94612E",
"y. c #98662E",
"u. c #86762B",
"i. c #89732E",
"p. c #827D2D",
"a. c #91722E",
"s. c #956331",
"d. c #9B6532",
"f. c #956A32",
"g. c #9D6B33",
"h. c #897A30",
"j. c #947432",
"k. c #9C7434",
"l. c #947C32",
"z. c #9B7B34",
"x. c #A1662B",
"c. c #A36B34",
"v. c #A66D37",
"b. c #AA6E35",
"n. c #A27235",
"m. c #AB7136",
"M. c #AC7239",
"N. c #A37B38",
"B. c #AD7A3A",
"V. c #B3763B",
"C. c #B67A3C",
"Z. c #BB7C3E",
"A. c #C17F3E",
"S. c #BC7D41",
"D. c #C17F41",
"F. c #7E842F",
"G. c #7B9331",
"H. c #83822E",
"J. c #88802C",
"K. c #868531",
"L. c #8A8332",
"P. c #8A8B36",
"I. c #8D8B35",
"U. c #988537",
"Y. c #918C36",
"T. c #918E39",
"R. c #899439",
"E. c #96913C",
"W. c #9B943D",
"Q. c #94993E",
"!. c #A3843B",
"~. c #A8863B",
"^. c #B6843E",
"/. c #A2943F",
"(. c #999942",
"). c #9D9942",
"_. c #AE8943",
"`. c #B98742",
"'. c #B58C42",
"]. c #A39C44",
"[. c #A99945",
"{. c #B69545",
"}. c #BB9C4C",
"|. c #92A645",
" X c #91B44D",
".X c #9AB452",
"XX c #A7A147",
"oX c #A7A249",
"OX c #ABA44B",
"+X c #B2A14B",
"@X c #AFA752",
"#X c #ADAB52",
"$X c #B3AA55",
"%X c #BBA957",
"&X c #B4AC58",
"*X c #A9B255",
"=X c #B5B35C",
"-X c #BBBA64",
";X c #BCBC69",
":X c #C48242",
">X c #CB8644",
",X c #CE8946",
"<X c #C58A48",
"1X c #CB8B49",
"2X c #D28B46",
"3X c #D28D4B",
"4X c #C7954B",
"5X c #D6924D",
"6X c #CA9A54",
"7X c #D69452",
"8X c #DA9553",
"9X c #D69C58",
"0X c #DA9B5C",
"qX c #E19D5A",
"wX c #C6A65A",
"eX c #DC9D62",
"rX c #CAAC62",
"tX c #D8A969",
"yX c #C8B569",
"uX c #C2BC6B",
"iX c #D4B66F",
"pX c #C7BE72",
"aX c #E4A86B",
"sX c #A0C55F",
"dX c #BCC56D",
"fX c #B0CC6C",
"gX c #C8C578",
/* pixels */
"<XrXwX6Xc.l V.c.O.R R 0X8XA.t.9.d.0.0.C.5XZ.d.O.g.v z L V ].u.d a.H T c a O ; l R 3X2X7X>X0X7Xb., N 1 N j v 1 h j j v z 9XtXk.^.",
"yXuX/.yXyX^.b :Xh N N :Xv.c.4.X.@.%.C.M.A.C.O.h x q 3 ].gXfX*XE.] ^.N.d 6 9 n 7.3XZ.Z.>X7X7XeX0XR = 1 o u 0 0 1 g o H ^._.=.rXiX",
"iX$X=XgX;XuX+.X.M T u g. .s.7.@...M Z.v.d.X.0 g h q 2.dXfXfXfX.X#X) rXrX^.{.c.@.5XS.:X:Xb.2X8X0X7Xv.x 1 * 0 1 9 u q w.yXuXgXpXrX",
"C.rX$X=XgXuX}.$ T C.6 c.X.d.O.R 7.7.R @.R l b 1 9 -.).*XsXsX X.X|.{ I.uXgXiX4Xv Z.M.:X,X3X8XC.1XaX>X>X8Xj , @.s.M.z %XpX;X;X=XyX",
"C.4X~.%XOX#X[.7 w ` - v R 6.o.%.| N T M h k 0 > B.~.wX#X|.G..X|.G.*XT.( gXgXiX7 g.%.2X:Xg.@.Z.S.4.c.0Xx.v.0.7.7X4X#.+X-X;X-X].[.",
"5X8X`.r.*.(.-XC Y 3.' $ l j N | x x k p u $ ; v.3Xe.{.}.( ( F.(.Q.P.oXW.Y.%XwX7 G 8.9.9.b.O.g.%.0.D.x.3X3Xb.1 N.wXu.;X<.].#X3.U.",
"8X:X4.g.[ R.*XA z.U.[.f * g h x s O # - y G +.7XC.x Z.a.i.=.*.L.H.3.F.oXW.OX<.` 7 K g.7.R 6.s.M c.v.d.o.>Xb.= 5.wXyX;X(.].&.L.l.",
"C.1Xb.C.'.[.=XH.5 }.oX}.^ + 0 7 3 % t T.-X;.}.1Xv.V.@.B.k.N.z.z.:.*.3.K.H.-XT.` O z O.o.Z.R d.s.o.j 9.N j 4.+ C.-./.#X,.( ).L.=.",
"9.A.x.8X4X}.$X%X6 Q +Xz.^ x $ @ @ S oX3.W.oX{.f.g.c.d.O.O.+.o.f.k.l.*.3.[.-XE.<.5 - x K O.M N 0.7.R 0.0.S.T ; B.~ [.Y.' H.<.u.r.",
"S.D.b.9.Z.Z._.9X< W z tXb.= 8 % F / $XuXwX}.4X:Xc.7.O.N ..b 6.O.$.w.:.D T.oX#XD F - - b X.n M g.8.R C.t.O.@.= w.y ` *.} F.[.!.W ",
"| 0.X.d.V.8X0XZ., 8., 0XeX:Xw O r ` '.5.6X5X>XC.O.N @.M M ..X.q.+.g.j.Z ).Q.=XoXS Q ; $ h p O.O.b.>XC.d.t.M l `.s d p.{.h.l.! 9.",
"0.d.c.S.1X5XqXc.* d.> C.d.C.0X`.i 5.T ,X:XC.t.8.8.O.X.X.h 9.9. .t.T s [ L.oXOX&X_ C $.+ g 4.b M @.7.3X9.b.o.T t.a U.U.{.i.r.g.M.",
"8XZ.8X5XZ.b.:XA.9 9.= 0.7.%.V.Z.v.X.* d.M.d.c.Z.7.Z.3X| j h x 0.7.9.c =.;.I.).&Xp.r N.9 + x b j d.M %.M x x N 1X; E e.j.`.g.5X:X",
"D.>XV.A.d.b.:XC.a T * M M h M o.%.d.u R 4.O.0.8.4.s.7.X.h x 4.4.@.8.+.-.P B ].oX) # G g.9 . < v v n %.j 9 p M.Z.l . x Z.o.0.Z.Z.",
"c.b.d.D.d.c.c.@.+ v , R M g b l j + 0 g N m 7.%...M  .@.4.%.%.X.8.8.@.! h.r V B 7 d f.y.9.+ * 0 j x k g 9 9 n.@.+.a . 9 t.0.9.m.",
"4.4.m h 9.S.o.x 9 M & h m 9 = . . h s.7.1 M | M | O.N M h N s.c.0.9.6.$.% - ] _ r z +.9 a o o o O . o O o q z y - 6 6 . * p 4.O.",
"| b.7.O.l X.j 1 X.%.9 * O . . 4  .9.V.B.| < h l x | x x @.v.v.0.O.b R T z a 7 r 4 a p C.C.9.p = 9 > u u 7 {.U.%X%X{.f 4 ; O < n ",
"4.v.6.O. .j 1 O B.<Xk k $ $ w E c ^.0XtX0Xo.* j T N N b 1 x M d.7.T M g v z 7 H $.9 m.2X9.C.V.< , | +.-.}.$X@X+XOX&X%XJ z 0 + p ",
"g N X.o.x > o , f f l.4X_.j.~.!.~._.`.<X1XD.0.O j h N l N 9 N x n b p ^ k 4 s z z g.y.d.c.O.t.@.+ k J Q &X&XoX/.).oX&XL.6 w ; . ",
"o * : 1 $ o - ; 3 r.W.%X[.L.<.I.J.T.l.z.1X0.C.* > l o.m 9.M | h x 9 k 0 $ 5 G j._.c.T N X.x T 8.+ $ - } $XoXE.F.1.3.W.{.8 9 6.= ",
"1 + . + 0 < X 3 W.+XF.3.OXL.I.] K.3.;.r.B.M.x .., + g 9 9 9 0 u u 0 $   5 F [.[.!.f.o.+.O.o.o.o.; - 3 K.OX).P.F.K.I 1.~.`.w < j ",
"0.M j 0 c 7 # ].XXW.,.>.Q.I.,.I.I.P.h.j.n.d.c.l | g . u 1 9 l u < * # r 3 H.].,.Z E W T n g l 0 O C % I.).1.F S U P J E 5.g.O m ",
"N C.C.y.5.- L OXXXI.S ' I.3.*.3.p.L.:.w.n.g.c.v.h X.g * = j , g 4 o e - { oX].K.` P f R N l l 0 * t # ,./ ] _ t L H +.z 9.:Xu < ",
"1 n c.g.a 4 [.OXP.1.K.J.p.2.<.p.l.h.!.k.M.S.>X,X:XM 9 > * O o O $ 3 5 ,.OXI.1.;.r $.W R l g g o 4 t % >.I >.F Z Q T +.@.%.9.s.N ",
"h 0 X.9.w 4 +X].I.K.Y.h.L.z.l.j.z.k.c.g.V.C.D.c.,XD.m h 0.h x w 7 5 } oXoXp.L.;.C e...k < h + + y # F ( V D t Q T T h N .. .9.t.",
"4.= < W w - U.H.' ,.2.i.a.w.k.g.B.B.8.c.0.d.M.M.0.>Xd.m M.8.$.J e e 3.).).F.<.:.k.5.T h j 9 + s 4 5 } ' / D U G w.T n n ..N O.4.",
"7.9.* < h - 7 Z Z d f W E O.t.9.c.9.8.q.4.M 4.9.O.9.4.9 W $.#.h.% ' / I.K.<.` l.n.g.o.M x $ ; l # Z D / F S Z W g.X.X.s.T N 6.X.",
"6.d.j 1 M 6   $ 7 - k k T R T X.O.o.| 9.O.| j N n ..O.9 e.'.:.5 D K.I.,.] ;.i.n.f.7.M M j : ; s + I ( ,.' I ~ j.g.8.q.s.R  .X.x ",
"0 m 0 O  .c.w o . 9 1 p < b g  .8.| N O.X.R l g 0 w 4 s {.:.( 3.3.*.I U <.Q #.e.t.9.O.b p ; 9 $ q A { 3.I Z r.$.b.b N 4.4.M N h ",
"j h , o 9 V.X.0 O . + * ; g j b | @.o.| l j h < * + G u.Y.E.W.,.1.F.1._ ;.-.5.6.s.N O.T l ; $ . 8 A Z / U P -...s.4.N m R | j j ",
"1 1     l :Xm.V.0 * < > * O 9 x 0 1 j 1 9 0 = o + K {.r W.E.L.K.P.K.,.&.-.$.K s.9.7.O.l j ; + * # q r t 7 G v E R M j j l j h < ",
"; o . 0 R Z.:XZ.:X@.4.v.7.0 * w h 1 1 1 1 * . + $.a.2 Y.I.T.H.1.3.,.*.=.r.8.s.8.@.7.T N n * 9 ; $ + 4 9 s 9 w 0 l N 0 1 , g h < ",
"  + + 1 v.N 0.4.M. .o.M.c.0.p O 1 1 0 : +   + g.c f ,.K.T.3.3.3.&.*.r.$.$.%.e.X.O.O.O.m m & * x 4.M + * * = * * < X.u * . * +   ",
". O & = * %.9.4.7.7.X.@.X.7.j M.> + + . < g @.T ..U.p.K.I.p.3.;.P r.w.$.| X.o.%. .o.| l 0 + 1 d.q.O.0 x +   . O * , +           ",
"* * 1 o @.d.| 4.@.o.M M O.O.0.N O.d.4.V.D.M.d.6 w.:.*.1.K.H._ ~ #.K z M R O.|  .l x M u &  .N v.%.1 $ 1 & + .           o o . O ",
"T T O.O.N  .j j b j 0 j j j O.d.o.9.3X,X3XC.n T 5.! Q ;._ *.=.! W +.R j m N x j x h * . & g.X.< 9 b g M X.M * . + * o ;   * = 9 ",
"0.d.X. .j x j , l m g 1 , + j  .d.O.D.1X2Xc.x  .z $.#.~ ~ Q c H j 0 M R M N 0 0 : * O * > , O 0 O.| M R N 4.| * . 9 j 9 + S.V.v.",
"M h b b j p j < h l h h 1 = 1 l 4.d.j V.V.c.O R T T E H q z ; ; x , h g 1 9 , *   , M o.+ h g h o.O.N N N m x + o t.O.x * S.b.O.",
"x j g j h l p p m h 1 , , , 1 1 b  .h V.v.9.O x j : - g 9 : ; p j * 0 p + = . . > 8.h + l b 1 1  .m N R j x < , o M 9.| O C.4.m ",
"g < h p p 1 < 1 1 M p , 1 , 1 , h O.8.u 9.s.j + + * , 9 > < j g * * > * & o + j m g   9 M N N 1 u l p X.j p l , o h m , o c.o.N ",
"M 9 , j N < , l , h * + + = , 1 l N x j  .4.c.* * * : 1 : > g ; = * * o . h 4.e.; . = m h g N j 1 0 j O.o.l T < + h O.R + t.d.T ",
"M 9 > j 9 9 p m > , : * , * < , l l u X.1 M d.c.+ o * 1 O + * + + . & v 9.O.T 0 > g l 9 g j m h j j  .o.| N R ; + x 4.M o X.c. .",
"j g j l M 9 x j 1 , * ; = * > : h l m X.| 1 s.b.4.1 . + * + +   . & d.C.9.* = M g j 1 1 1 h m j b  . .O.O.j N ;   0 X.b O %.7.7.",
"j l j m j l x g h 1 = : + = h * m N N O.X.1 X.v.d.0.h + o o + = M R 7.x 9 N g j 1 1 1 : 1 h N l 0 O.N N v < j 0   n o.g $ X.d.%.",
"j x l x n 0 h j h 0 9 9 < + > < h M h b m & , p h X. .x * 9 C.4.6.O.c.> M N v 1 1 1 * = 0 0 h g < N x m O.p h $   R y.h +  .0.%.",
"M j v l m j h M l m 9 x g < h p n b h 1 & o + N 9.9.8.M.4.X.d.0.N %.g * j g * + * * * + : , 1 , 1 h < , m * * * + j O.* + O.0.O.",
"l X.j N v p h m b M M n j h g j h u j > = . o M M | | | x  .j c.c.N . 9 n 9 * x 1 , u + : , p = 9 1 g , j p 1 + o N m & + 4.0.%.",
"N M N N n M l h x M N 0 h 9 j p l h h 1 + p o N N < O.M X.M = b d.h o g g 9 = 0 O + + * * 1 b 1 9 = * * M v * + + j x + O X.O.| ",
"N a m M N M n p j j M 1 b < u g 0 g , , b 9   ; x 1 M 4.M O.j * h = . ; * + < = + o + = + 1 u + , * o * b 9 &   O 1 * . o M X.o.",
"N R M R R g b j h p j h * h 1 9 ; , + 0 u M + + + h j | 1 g j < X.u o g : u 1 $ + * * + > < u 9 = * * * j u .   + o + O   g M x ",
"T X.v N | N j * , * 1 h 1 * & + * . x u p < + . O 1 M N j b g j + O O 9 0 g 0 * * + O + $ 1 x j u * * & < O o & o   . O   + > l ",
"h v X.N j g j h 9 9 * $ * + o o . . O 0 t.9.7.O . * j 4.| | X.s.M ; o + * < g , = < * o * < j 1 , & O . . . + o + + + o o   + 1 ",
"+ 9 < x g g g j < * O O O . . . . 0 x | 6.X.| 9 o . j x O. .O.O.N O . . + ; < g * a , + 0 g 0 = O       . + 0 + . o O 1 9 +   . ",
"o & + M x * 9 = , g . O . o 9 . ; p 9 h p p h * l o + | j x @.l * + *   o , 1 j h 0 1 < < * = +     . o ; 9 x < * o * * %.| O   ",
"  . * 1 1 < 1 * + O .   . u O j 0 * * + ; 0 g 1 > *   + > 1 x O.+ = 1 .   O 1 g j * 9 > ; & .     o     . 1 * * + .   + O.c.b O ",
"    O + 1 = ; * + o   = R u x g O . O + u ; M g o m + + 1 l N , . & h *   . = 1 1 * 1 & +     O 9 O   $ + v g u 9 1 > + j 9.0.1 ",
"$ .   . + O O O . . > x , g h + O O + + , + 0 u = O 1 . + 1 j < O O p l *   + * * * o O     = ; .   * * : b b , 0 j >   > %.M 9 ",
"O o     . o . .   . * . 1 g 9 & O o O + < < < 9 u > * + o + < O + + M R ; o   . + * +   . * 9 . g u < 0 h x x 9 < 1 +   * l u $ ",
"  . . .         . ; O . j j ; + o + + o 1 9 , u N a O o     o   o = = , 1 a       .   . o * o   < < * g , g j < 1 9 <   + , +   ",
"+ +   + O .   o > 9 . + x 1 > * + & O * , > + < h 9 O * * O o O , M X.6.M a o .     + j * .   > 1 u o p h u h h u u <   . + . > ",
"j * + . . + 9 , m j . 1 u u 9 1 1 < + * > * * u x p p 0 0 0 j & O x ..M N X.h x + 1 N g . * , < 0 1 1 m h g j , j j =   + o . u ",
"u , < =   + > * + < . 9 N 1 > , 1 , * = , 1 : > x j 1 p h O.p + o M l h 9 j g g N l + : 1 > , h j j j g j g g k g l = . +   . 1 ",
"9 * * 1 + + 9 & . + . u l 9 : > 1 = + ; < 1 1 > x j + x + 9 = o   = 0 > > + > * j + + : 1 < 1 1 j l 0 x l h p j h 0 + o = + * ; ",
"9 < , > 9 o o * + &   g g 9 1 * , + ; > < 9 9 * u < o , o . = ; =   > , 0 * * o + . > > + 1 < 1 j l h a j g < 9 g 9 . . * + g > "
};
