/* XPM */
static char *result[] = {
/* columns rows colors chars-per-pixel */
"64 64 228 2 ",
"   c #1D1106",
".  c #24150B",
"X  c #2B1A0E",
"o  c #2C1C11",
"O  c #311E12",
"+  c #342214",
"@  c #3A2616",
"#  c #3A2717",
"$  c #3B2619",
"%  c #3D291A",
"&  c #432D1C",
"*  c #46301D",
"=  c #49311E",
"-  c #523A1E",
";  c #633C1A",
":  c #4B3522",
">  c #4C3422",
",  c #513724",
"<  c #533925",
"1  c #5A3D26",
"2  c #563C29",
"3  c #5A3E2A",
"4  c #6B411E",
"5  c #76461F",
"6  c #5D4225",
"7  c #5D412C",
"8  c #5E4330",
"9  c #66452B",
"0  c #63442D",
"q  c #6C492D",
"w  c #734926",
"e  c #7C4C25",
"r  c #7B4E2A",
"t  c #7E512B",
"y  c #634631",
"u  c #664933",
"i  c #6C4B33",
"p  c #6C4D38",
"a  c #724E34",
"s  c #744F36",
"d  c #6F513A",
"f  c #745135",
"g  c #7B5334",
"h  c #74533A",
"j  c #7A563B",
"k  c #7D593D",
"l  c #775944",
"z  c #7D5B42",
"x  c #7F604C",
"c  c #814E24",
"v  c #855126",
"b  c #895324",
"n  c #84532B",
"m  c #8A562C",
"M  c #8D592D",
"N  c #945C2E",
"B  c #835532",
"V  c #885630",
"C  c #865936",
"Z  c #8C5B34",
"A  c #835B3C",
"S  c #8C5E3A",
"D  c #935D33",
"F  c #9A602F",
"G  c #8F613D",
"H  c #966135",
"J  c #9B6335",
"K  c #93623B",
"L  c #9B653A",
"P  c #9C683E",
"I  c #A26635",
"U  c #A46836",
"Y  c #AB6C36",
"T  c #A26638",
"R  c #A46A3B",
"E  c #AB6D3B",
"W  c #AE713D",
"Q  c #B3733D",
"!  c #BA763E",
"~  c #825D42",
"^  c #8A5F40",
"/  c #846146",
"(  c #8A6345",
")  c #8B664A",
"_  c #8A674C",
"`  c #946745",
"'  c #9A6B45",
"]  c #936B4C",
"[  c #9A6E4C",
"{  c #9E704C",
"}  c #8C6A50",
"|  c #936E52",
" . c #996F51",
".. c #987357",
"X. c #9C7254",
"o. c #A36E45",
"O. c #AC7343",
"+. c #A8744C",
"@. c #B47542",
"#. c #B97741",
"$. c #B67945",
"%. c #BC7A44",
"&. c #B3794A",
"*. c #BC7D4A",
"=. c #A77956",
"-. c #A4795A",
";. c #B47D53",
":. c #C27E45",
">. c #C27F49",
",. c #BE804C",
"<. c #BA8155",
"1. c #B98259",
"2. c #AE8261",
"3. c #B68967",
"4. c #C68146",
"5. c #C98346",
"6. c #C5824B",
"7. c #CB854B",
"8. c #CE894F",
"9. c #D1874C",
"0. c #D2894D",
"q. c #C48552",
"w. c #CA8650",
"e. c #CC8A54",
"r. c #C68758",
"t. c #C58A5C",
"y. c #CB8D5B",
"u. c #D38D53",
"i. c #D98E52",
"p. c #D18E59",
"a. c #CF905A",
"s. c #D69056",
"d. c #DB9255",
"f. c #D4925C",
"g. c #DC955B",
"h. c #DD985E",
"j. c #E1965B",
"k. c #E7995A",
"l. c #E3995D",
"z. c #CA8E62",
"x. c #CA9367",
"c. c #D49662",
"v. c #D99762",
"b. c #D49866",
"n. c #DC9A63",
"m. c #D59B6B",
"M. c #DC9E6B",
"N. c #C99A75",
"B. c #D79D71",
"V. c #E39C63",
"C. c #E99E63",
"Z. c #E29E6A",
"A. c #DEA16C",
"S. c #CEA177",
"D. c #DCA373",
"F. c #DCA87A",
"G. c #E6A067",
"H. c #EBA165",
"J. c #E4A26B",
"K. c #EAA56C",
"L. c #EDA86E",
"P. c #F4A665",
"I. c #F4AB6D",
"U. c #F8B36E",
"Y. c #E3A572",
"T. c #EAA771",
"R. c #E4A976",
"E. c #EDAB74",
"W. c #E3A778",
"Q. c #E4AB7A",
"!. c #ECAE7A",
"~. c #F3AC73",
"^. c #F8AF70",
"/. c #F2AF78",
"(. c #ECB17D",
"). c #F7B374",
"_. c #F8B475",
"`. c #F8BB75",
"'. c #F4B37B",
"]. c #F8B779",
"[. c #F7BA7D",
"{. c #F8BB7C",
"}. c #F8C27B",
"|. c #DFAF85",
" X c #E4AD81",
".X c #E5B183",
"XX c #EDB483",
"oX c #EBB88B",
"OX c #F4B682",
"+X c #F6BA83",
"@X c #F6BA87",
"#X c #F8BD84",
"$X c #F4BC8B",
"%X c #EABC93",
"&X c #F4BE91",
"*X c #F6C787",
"=X c #F8C285",
"-X c #F6C28C",
";X c #F8C48B",
":X c #F8C98D",
">X c #EAC799",
",X c #F5C394",
"<X c #F8C592",
"1X c #F8CC94",
"2X c #F4C59C",
"3X c #F6C999",
"4X c #F8CC9A",
"5X c #F8D395",
"6X c #F6D69F",
"7X c #F8D39B",
"8X c #F8DB9D",
"9X c #F6E39C",
"0X c #F6CBA4",
"qX c #F8CDA2",
"wX c #F6D5A4",
"eX c #F8D3A3",
"rX c #F8DBA3",
"tX c #F8D6AB",
"yX c #F8DCAC",
"uX c #F8DBB4",
"iX c #F8E6AB",
"pX c #F8F5AC",
"aX c #F8E8B8",
"sX c #F8F8B7",
"dX c #F8F3BA",
"fX c #F8E8C7",
"gX c #F8F9C6",
"hX c #F8F9D2",
/* pixels */
"k z 1.B.m.A.M.v.<.S = & i p 0 p >XfXfXuX2X0XuXuXuX3X'.c.&.` ( h i [.{.J.f.g.n.T.Z.V.g.h.i.7.E S > j ~.~.E.n.u.e.g.J.e.#.I n 7 ` ",
"| rXyX7X1X1X'.].P.7.S & ~ -.~ N.gXaXyX2XXX.X2XtXtX4X#X~.7.@.~ j j V.H.s.g.g.H.l.i.w.6.u.>.7.Y S 2 A I./.J.f.5.u.e.H.8.! F m , ( ",
"fXdXwXoX.XA.J./.V.>.D 1 ~ ( p 1XyXtXqXQ.M.Y.XX.X.X X!.u.5.E ` ] & O.u.Q 6.@.%.%.E N O.E Q T n S + ~ _.'.J.n.4.9.6.s.d.4.J V q f ",
"hXuX%XF.t.c.f.V.u.@.D 2 -._ 7 ;X7X.Xx.e.V.K.M.F. XF.J.u.N m i / , q P M M M M m n n M D D B C k , j #X'.K.8.! Q 8.7.:.Y N t A A ",
"fX2XD.v.u.g.v.j.u.Q D % < f h #X#XM.y.u.6.g.c.J.!.b.r.7.I N A i ) a , 0 , 9 a 1 > @ . X X + X = i ^ =X].Y.j.d.d.l.u.0.:.N e 9 { ",
"uXoXM.u.6.w.u.w.:.R Z * ~ ) -./.=XJ.w.@.8.g.n.E.J./.H.7.Q 5 j s X.-./ =.b.t.o.` ` ^ f i A A ( j ~ =.;XY.A.6.j.g.g.%.i.5.Q n 6 =.",
"0X(.v.7.7.d.g.i.w.Q H q h k ] #X=XB.a.s.j.s.p.f.K.G.u.! U m j i ] l sXdX4X1X].].=X:X8X5X].I.6.' u t.#XY.v.u.d.s.l.w.d.0.I m - +.",
"tX&XZ.7.j.H.k.u.! J D 7 k a -.=X XR.A.l.f.s.h.u.H.d.u.%.I D i q -.F.dXyX1X(.A.M.#X3X3X<XOXP.0.%.1 y._.H.u.7.i.9.s.8.s.0.W Z * -.",
"0X$Xt.u.i.:.W ! :.I m 7 , 7 / #X:XXXR.v.u.g.h.i.8.8.k.:.Q L p 2 z 3XtX2X|.b.b.M.XXF..XXXJ.f.6.@.a y.^.d.7.4.%.4.d.l.4.7.J e & =.",
"uXOXp.u.! ! :.! Y F Z * ~ < -.=X3X.X!.p.8.i.d.i.i.i.k.6.Y R h ` ] -X1XOXb.u.h.I.M.!.Q.Y.Z.e.U v i @.7.E %.! %.%.9.d.k.%.J w . +.",
"qXY.u.! :.! u.7.9.Q m : ] ) d :X7XoXA.g.9.u.g.w.w.u.i.5.%.L h ~ 7 +X=XA.v.9.:.e.c.n.(.T.n.9.Y m 1 C E E U I Q E W W Q W n r @ =.",
"tXM.:.5.:.0.9.9.:.Q Z =  . .u :X[.W.A.g.p.s.g.C.y.j.u.4.W J i =.l ).{.b.7.W u.h.J.E.J.J.H.#.N v > d f f S B L L J F U Q 5 t 2 { ",
"OXV.Q 5.7.9.j.k.9.W Z & < u ^ [.#XA.v.g.g.C.V.h.g.i.9.w.E S i f ~ E.[.C.i.V.l.s.e.f.J.h.d.7.W D , k ) y & > h 9 K D J D e f z { ",
"~.V.5.%.5.9.5.5.>.R V & z s k L.C.g.l.V.k.P.g.i.7.u.i.7.O.Z ( j h p.H.l.u.j.H.C.H.w.7.e.9.8.@.Z i f (  .p / l h u 1 i 9 o 7 7 ' ",
"*.Q E W E @.%.@.L n B O z ( A >.d.4.>.7.>.7.%.E %.Q >.T D C h (  .' i.6.:.9.7.7.#.Q Y Q %.Q H B 6 d p D.:X#X7X8X=X*.k p i / 7 A ",
"A K D M D D D n r B g @ 1 ~ u j $.E I H D N m D N H M Z t ` < / a u T N N m m m n t M H Z n C j 8  .aXiX4X4X1X;X#XC.,.[ = _ k i ",
"& 1 * f 0 1 3 & @ + o k h =.y u k C A S B g a 9 , 1 1 , & . ~ ( i f 7 p f g g 0 < o . + O + @ = / rXiXeX,X.X.X(.L.s.I C : 9 3 l ",
"..l z / / ] / h h ) | ) h f h p 0 , 7 : , + f i h p j ~ 7 9 < : 0 k , > f h h ~ 6 j ] A | u ~ 1 z 8X<XoXm.A.A.n.V.%.J B 9 l -.N.",
"-X[.].'.M.E.!.+X$X#X'.(.D.z.1.&.+.+.( A z k q +.y.q.t.t.v.G.H.y.G.h.).J.J.V.d.$.f # 9XsXsXH.p < z 5X-X!.s.4.j.,.O.M ; 6 -.z XX3X",
"=X$XXX).Y.=X1XrX3X3X7X1X5X#X/.=X{.k.%.K i k pXsX`.`.}.`.`._.U.`.`.`.`.`.U.U.P.k.R 7 5X:X=Xh.9 ` s I.e.$.,.Y 5.J M 5 f . ] wXdXyX",
"D.!.!.!.v.#XOX$X<X.X XXX@XW.M.Z.L.u.Q n y h O.W ,.8.6.%.>.#.>.w.6.q.,.6.>.*.@.N t + s.).n.*.1 ) h %.E m U N H e ; g % # 3.aXeX3X",
"v.V.Z.n.y.J.m.J.m.A.Y.R.x.v.Z.n.f.8.Y n i k % 7 9 i f f A S ` S G a i A j C g j : : , . . & z /  .7 a A g a r k p % z _ sXyX,XQ.",
"u.6.e.u.g.s.e.e.h.v.v.v.n.g.%.:.Q 7.W t 9 d h j _ x h i p ~ p p 7 i 9 [ 9 a ( S ^ +.` ( ( 1.+.k ' ` ^ ` ` +.' r i 7 N.%XiX2XF.E.",
"h.d.u.i.V.e.u.u.G.G.G.K.G.8.>.>.9.j.$.n 6 [ ] wXgXgXdX8XH.%.A B sXpX*X`.`.}.`.=X}.}.}.}.}.}.}.}.}.}.{.}.`.}.I.P.R # ..aXtX0XD.v.",
"f.s.y.f.E.'.p.y.n.Z.!.OXZ.0.0.>.u.i.@.Z < ~ =.sXhXfXtXOXH.w.O.K 8.4.u.d.s.0.s.7.g.g.s.e.h.g.s.e.g.g.s.d.i.7.:.I V +  .dXtX0XOXM.",
"M.E.Y.R.W./.!.Z.J.!.!.~.Z.u.7.>.:.i.*.m 0 ~ / 3XaXuXoXB.s.%.R < 0 g K S K K J P P P K J L P S L K K P ' S L L V f : z.rX0X0XQ.m.",
"K.Y.E.M.@XOX/.K.T.K.Y.V.v.i.0.! d.9.Q J < h l !.&XoXQ.J.%.F D 7 k k 7 < 7 * + + # # X + . % % + 7 # O X : O . O , 0 b.1X%X XXX!.",
"T.L.L.Z.^.L.v.f.h.C.v.u.i.:.9.0.d.5.I Z f 9 ~ ).'.R.c.C.8.I Z ( y _ ..x _ d u ) S k 6 0 x.X._ z ] / ~ s i h ( 3 7 i x.:X@XOX'.~.",
"w.*.*.e.*.*.Q #.E >.*.0.w.%.E E Q Q J 4 B y ~ [.'.M.f.i.Q b n h m.dXaXtX1X-X+X'.I.0.' # p |.3X*XD.b.<.y.q.o.v.s p u &.g.v.e.v.n.",
"R J P D D D w L L Z D D M V m D V n e g 9 k A #X!.M.d.j.Y J Z ( 6XhXhXuXwX4X4X#XI.4.D # +.pXsXiX[.`.`.U.U.P.k.#.i a a R R @.@.J ",
"A 7 s g s ] 1 6 y 3 a 1 7 9 9 u 3 1 f : , d ( ;XOXJ.g.d.4.U Z / oXaXfX0X%X&XXX!.h.J m % o.:X:X!.y.r.q.6.%.@.N m q p p : q f C g ",
"% * ( z l a h < < 0 < y q j q 3 0 2 , y : 2 ;.=XY.Z.u.i.6.U S ~ W.&X2X.XF.D.A.<.W J t o 7 o.&.{ o.K L S D C B g + h 0 h 0 > 7 = ",
"& z 7 7 y h z s p s u 1 p d j i i 0 ~ & a = y._.E.b.7.i.! @.P h E.+X.XM.v.v.K.C.! N D $ * , p < y 7 7 : > y < * y p h 3 u ) p : ",
"..3.6XiXrX1X=X=X-X-X1X6X9X4X#X=X).e.K j y & t.[.J.f.6.k.6.E L u ~.[.'.I.6.6.0.:.Y N S 1 p | .X<X#X(.E.D.Y.B.'.:X5X-X/.T.y.o.a a ",
"] sXtXyX3X3X-X3XwXeX4X3X3X;X=X'._.H.e.A y j ;.G.J.T.7.d.:.Q K a /.=XJ.p.4.i.>.Y Y c B > =.sXaXyX4X<X-X4XeXrX1X3X1X+X].'.).j.O.A ",
"=.8XyXqXoX.X.X,X2X2X3XoXXXXXOXR.~.n.Q Z 0 h ~ ).K.a.>.d.4.R C f +X#X!.h.0.j.7.d.%.c C : !.rXwXqXoXXX$X,X4X4X2X$X X@XR.Y.).C.#.C ",
"' #X(.Q.Y.b.y.Q.Q.@XD.m.Z.y.r.J.n.8.6.M > k [ _.E.b.u.i.7.@.a A =X'.Y.w.j.i.>.d.7.E Z , T.+X$X.XA.m.m.F..XoXQ.A.G.<.t.+Xg.7.@.C ",
") _.J.y.,.6.e.V.b.].f.n.d.p.T.J.n.d.%.V y s ` =XE.c.u.d.7.J g ' =X_.b.p.d.i.u.l.i.E C $ t.E.!.&.&.e.y.v.n.OXn.n.e.a.~.J.G.*.Q n ",
"i ^.H.V.#.Q d.7.C.s.*.6.g.n.A./.J.k.%.R g 0 [ {.E.A.g.j.>.F C +._.~.c.u.u.u.e.C.6.E Z # &.`.f.f.@.7.d.7.K.e.C.7.s.G.E.n.n.V.#.K ",
"f _.~.b.*.%.i.7.5.g.d.u.V.J.R.'.A.V.6.R g f ` =XT.f.s.l.>.D Z [ ~.Z.T.e.i.l.h.h.7.J C > <.I.).v.&.4.:.Y 9.l.d.6.f.J.Y.'.V.g.%.J ",
"9 `.'./.7.O.9.k.:.i.:.0.K.M.R.R.T.g.#.R g 7 ` =XH.v.i.7.i.L B B ~.'.Z.g.u.g.C.V.9.E B % &.).E.w.,.4.9.d.4.j.7.s.T.!.(.!.G.V.@.J ",
"h ~.).p.6.i.u.6.9.:.i.9.V.J.b.T.J.H.>.J B i S ).I.u.7.7.7.J B ] T.I.c.9.u.d.u.d.7.Z C : ` I.~.,.4.9.i.5.9.! i.C.T.b.M.E.J.j.%.J ",
"k I.).w.:.j.i.5.0.5.U l.V.V.Z.J.s.l.>.N C 7 a w.:.#.:.@.%.D B g {.=XJ.u.i.u.6.d.7.E Z , j _.H.u.0.i.i.9.0.5.Y l.g.v.G.L.s.g.W M ",
"9 u.`.u.j.i.9.d.0.i.! i.w.>.7.u.u.7.6.M C 7 q o.#.U J r M w A u {.].b.e.4.u.u.j.i.E C # 0 P._.g.l.0.9.i.0.0.4.d.s.u.e.e.g.9.%.n ",
"=.o.u.7.:.%.@.#.>.0.#.%.%.E %.O.#.$.E v g & 1 p A r B g n A , ( I.].y.s.7.i.w.C.4.E S % X.u.7.u.4.4.! w.4.7.%.>.@.@.>.%.6.>.R e ",
"~ a O.E N Y M m J D m J T Z D M L H n C i h k 7 : < < $ A q , j C./.E.V.d.h.V.j.7.J C : ] S @.W U R P H H T U L L D J J J J r B ",
"0 $ , 9 q i s S f q f A g s i 9 g q 1 > . 7 z X.x.rX4X].P.7., 9 n.'.v.h.6.n.C.V.u.R B % i = a S S B K C Z B S C C S Z C Z Z g q ",
"f A ~ f 0 a 7 ~ [ A [ ] ~ ) / ] ] [ ) ( ~ / k _ sXaXeX!.6.T q ( v./.J.f.s.h.C.d.w.D A 1 f j h f 2 , % - = 2 y 1 9 < , 7 < y k ] ",
"m.B.D.B.M.z.r.O.g 3 7 z -.S.N.N.N.x.t.;.&.i ) x yXaX2X Xq.I g h L.*XK.f.d.g.0.7.T t h u p j z.c.1.1.z.x.r.1.;.;.;.1.=.<.t.t.y.t.",
"=XrX7X1X#X'._.u.@.g / S.gXgXaXtXyX6X3X_.>.R k l rXqX3X!.*.5 A 3 K.~.g.e.u.7.5.W n g 8 / _ gX8X=X}.=X:X{.*X:X-X:X:X:X}.5X`.e.P.}.",
"R.F.&X&X$X!./.7.R Z | dXfXfXfXtX0X3X/.<.@.H > h +X#X!.f.g.I f s v.I.g.7.:.7.@.m t h d | gXeX.XE.].n.E.T.'.!.J.c.J.L.,.a.H.h.6.g.",
"M.Y.@X'.R./.L.*.E C } yXuXuX%XF.F.Y.M.$.e g ) ~ H.~.^.w.E D g f $.d.:.Q Q N n w / + ..gXfXoXF.y.y.g.n.J.v.e.f.f.e.f.w.s.s.s.w.g.",
"Q I.V.V.f.q.7.6.D S / 5X,X.XF.Y.v.C.6.I w & h j g 9.i.Y R m g h ' @.J J n w r S X 3.dXgX%XQ.f.%.W E >.V.C.7.7.i.! 4.:.%.Q ! ! 4.",
">.7.@.%.*.%.%.$.J Z h {.T.a.6.%.7.Q J 9 g o ~ , - ' 5.%.J v a u 0 A S n C g A O 1 F.iX6X+Xf.e.4.U Q 7.7.Y @.I F Q Y Y b ! $.,.%.",
"D n m r L J R T n a i :.6.I E O.W J 9 ; g 9 1 7 ~ f O.$.R ; 0 7 p , + + + + > p 0 o.U.K.y.R Z H D I R H T n n e n n M n D Z Z J ",
"2 : % + : % 2 S B = > j R M C n m ; B 7 : z N.*X( < j K n t O 3.j ] =./ [ z ] 0 y 7 X     . % : 0 > j i 0 3 < 1 , 1 : 0 , & , 7 ",
"z ~ | h N. .} 7 2 ~ ~ h 2 h k [ j 3 $ q ..N.gX:Xq.K > > % o i / ..z u l z -. .j ..-.3.2./ z  .X./ ..] d | ] -./ X.x.3.x._ p _ X.",
"1X<X5X5X5X1X1X#X#X;X:X8X7X;X[.[.j.S $ ~ N.gXaX,Xr.E a 7 7 7 >X4X1X;X7X:X8X1X#X$X#X1X8X5X1X:X:X#X1X-X5X1X5X1X:X-X+X1X7X6X5X<X1X:X",
"7X3X4X1X-X6X1X:X1X1X1X7X-X;X_.P.u.R , | eXaXyX$Xf.R g > h dXsXaXtX4X1X:X1X4X;X5X1X1X1X7X4X#X#X-X7X<X3X1X:X7X<X1X:X:X5X6X<X;X$X+X",
"Y.-X!.R.D.(.[.+XY.R.+XB.(.E.b.<.#.D ^ ) +X4X&XJ.6.J n & z 5XwXqX2X$XQ.Q.D.'.@X!.D.+XQ.(.!.W.W.W.W.$XQ.Y.A.!.+X+XD.XX$XD.(.OXR.(.",
"n.y.f.y.w.,.w.w.*.f.e.r.f.6.6.L D b S -.Z.=XV.>.E D r > j (.#XQ.F.b.r.e.f.q.6.r.E a.r.f.f.6.$.&.a.c.y.f.f.*.*.a.E q.q.r.f.r.q.,.",
"E E W E @.Y H U W %.W @.N N b M v w A ] q.d.*.O.I m r > j u.H.a.%.R U U W U U %.W U %.J J U J Z R E W R Q W W Q W W Q R v N m N ",
"n J E D J c J H H T V n v n D v V A i ~ g *.%.E D r g : i +.%.T J R U m 5 v U J J L Z v v v M H N R J m v e J H Z R m n e m N N ",
"= : i f k k i 7 0 7 & $ # # : g ~ , j ` u & i u a % % u 7 9 + % > , h A ( k i 9 q i = % = & $ f : , f j k k i 7 9 7 % & % & % A "
};
