/* XPM */
static char *result[] = {
/* columns rows colors chars-per-pixel */
"64 64 23 1 ",
"  c #030000",
". c #0B0000",
"X c #160000",
"o c #1D0300",
"O c #210600",
"+ c #250900",
"@ c #2B0D00",
"# c #300F00",
"$ c #2F1000",
"% c #341300",
"& c #391600",
"* c #3D1900",
"= c #431D00",
"- c #491F00",
"; c #472000",
": c #4B2200",
"> c #522600",
", c #552900",
"< c #5A2C00",
"1 c #5F3000",
"2 c #612F00",
"3 c #623100",
"4 c #6A3600",
/* pixels */
":>:*%*=*&*&@%@#@$*=:*%&*%&=;>;&*&::<>:*%&%=><<,22>,:,<,,>--%*=->",
"@%%@&%&+OXXXoooO+O++++%%%&=:*&===:;:::<,,>,->;>:-*%-;*%:=%=*%&%%",
"=&=:=::::&:-**&=&%*:-%*%@&-&%*;&*:,::-=&*$%&==*:;&-*&&=&*-=*:=::",
"@+O%@@@oO@O@+@o@o+@@OOO@@O@%%%%%+XOO@@@@@%@X+%@$@+$%+o+@O@X%o@O+",
"oo=**&#@+%@&@%o@O@@@Ooo&&+#*=*==+o+O=#&%$*%.O:&**@&;@@%%$%X*+@%@",
"oO::>:-*%-&>&-+&%=*&@++>-&%>>->>@+%@:&;-%:= @,:>>*;>&$;&&&@;%&-@",
"@O-:>,:=;==,*-O&$%%%$@@:-%%>2=>>+@&#>&:*&>:.%>::>*;>&$;%**@==&:@",
"@@::<,>-:;=2*=o%$%%&$@@,-%&>2->>@+&#:-:&&:: %:>;:*:>&@=%%=@;-=:+",
"%@::<,,;;:;3==X$%$%*$$$:>$&:1;>,@@&@>;>*&:> $:>*-*:<*+:$%-@:=*:+",
"%@,:<<,;&:=<;;o%%&&=%$@>>%&:3:><@@&@:::-*:>.+>,**&>1;+>$&;@:;*:o",
"&$,-<<,;%:=>*-o%%&%-$$+,-%&>4:,<+@&%>:::;,,.@<,;=%:<;+>&*>@:;;:+",
"%$>-,<>=%;=,&-O&&%&=%@@>-&&>4:,:@@&%<,:>*,, %<>::=:3:+:*&>@:::;o",
"%@<=>,<=%-:<==O%&%&**#%>:*%><*,;#@&&<<::*,, *,::<:>1:@:=*>@::::@",
"*%<;>,<-%->2;;o%%%*&==&>>-%,3&>=&%&&>>=>%,3 ;;:;,,:3>@;**>@:>::$",
"*%<:,<<:%:><=;o%&%&==*&,<=@>3%>;&%**:>->&>1 ;*;*>,:<>$;;*>$>>,>%",
"=@<<,<<:*:>3*:o%=%&:==&>--%:<%::&%==>>=>*:1 *&*=-:=2>@***:@<,>,&",
"*@>4><2:=>><*:@%=%&::**>--%->=;:*%**<>:,*:1 *;;;*-&<>@&**;@,,>,%",
"*@>4<,3:-,,,=,$%:@&:===>-=%>>#-:&%=&,<;:*,: =>><**%,>+&;=:@,::<&",
"=%><<,<::<<<:>@@:%&:=*->:=&>-#*:*%;&>4=:=>=.;,,3>*->:@==*;@;;=>&",
"=%:<>:>::3><>>++:=*;*=->:*=>-%%-;%;=,3;>::% :,,3>:>,;+--=;@&;;:=",
"*&:<-==:>3:,,,++;;=;-&=1>*::-*%-=&:=<<:::,% ;><1:,,::@==%;@;:;;:",
"*&><*-&:,<-:>,@@;;*:-%%1<*;:;;&;&*:=1<>::,& *,<<:>,=:@:%%;@>>>;;",
"=&:<=>*:<:==,<&$:=&;:%%<:=;:;:&:%*:*><<::>& &>,>:<<=:+:%&:$>,>>*",
";%>,-:=-<&=%<>=$:=*;:%*:-=-=;;&:%*:*>,,:;,* %>,>:,3::o:%%;$>:>>=",
";&><:>:*:%;%,:-$,==:;%*>-==:;=%:#&:=>:,:;,; $>,::,1:;o;%&*+>*;>&",
"==>>>,:%==:&<;*$<&*:=%;<:==:;%%:%%:*::,:;,> %11:>>,:;o=%&;$;&*>&",
"*;>:>,;@&:>*1=&@,&&:;%=3-=*:=@@:%%:*>:>:*>, &1<:>:<;;o*&&=+;$;>%",
";;,::>*%=>>;3;%@<-&:;&=<>*&=-%%:%%-*::>;;:1 &<<>>;1;;o&&%*+:&;:$",
";*,>:>;%:,,:1;%$,:&>-&*,:&=#==%-%@*=>:,:;;> &,>>:;1=;o*&%*$>&::$",
";&:<>:;%>,>:<;%%,:*,-%*,>==@#&#-%@%*,,::=&* &,,;*-,=:o*&&&@>&;;$",
";&;,<>:%,,:>1:%%<:=>;&%,-&=+%=@&%+%%>,::;$$ &>>;*;:*;+*&**@>*:=$",
"&&:><::*>:=>2;%%<;&>==%,=%&+==@=%@&%>,:-*$+ *::=:**-;o;&&&$:&*=$",
"%&:;,>;=;;&><=@%<==:=;*<:%&@*=#-%@&%,<:=*%+ *::*:$%-=+=&%%@;%*=@",
"%*:*>,%*&;$,,=@%,;*:;&&,-&&%*-%=&%%%:<:==*@ =;:=:+@=*+*%%@@:%,=@",
"**;*>>&&%:%>,;@&>=*:;%&>;&*$=-%=%%&%:>:;;%@ %=>==+@=*+=%$#@>%>*+",
"**;;;>=&$>%>,;@*:=*;;*&-:%=@==#-O@&%:;:*;%$.+&:=*o%-&@*&@@@>%>&o",
"**=::;=&%>&:<:O&:=&===*::#*%==%>o+&&<==**=@ o&*=*+*:%@-%@@@>*;%+",
"*=;>>;&*;:&;>=+&;*=*%-*::%%&=&%>o+&&<***&:% +%*=&%::%@:&$%$:**$@",
"*&;:,:%&:,&;>=+%=&=&%=*>-&&&=@*:o@%%,**=&:$ @%***%::@@:&%*@;==$@",
"&%::<;%%>,*=>&@$=&=%%=%>>%%@*@*:o$%%:=&;&&%.+&-=*@>>#$=*&=@:=:$$",
"$%=-,;&%<,*=<%@%-&=&%%$:>%%O=+&:o%&%*;*=%@% O%&*&@=>@%=&&=@:;:$$",
"$$*=>;=&,:*:2%+%:&=*&$%;>%%o=+%-o$&&*;;;&o% +%&&%@%;%#=&&;$>;;$@",
"$$%=:;*=:=%>3*+%;&*=&@&;:#&X=#&:$+*&&*;=&o% %%&&&$@-%@-*&*$;:&%+",
"@$%%:;;**=%,4;+*==&;&$%=-#=X=#&>$+&&**;*;o$ %=*&&%%-%%-*&;@*:%$@",
"%@%$;*:&&-%:<:O;*;&;%$$=-#=O&%#>$o&&;*=*;++ %;%;**=;%@:&%=@*>%$+",
"&$%&;*:$&:%-<;O:*=*:&&@*-#=@==%:$o&%===&=$+.%:%:-::*@@:@%-@;>&@+",
"*@$*:;;%&>$*,-+;**&:*&$*-#&%&=&=$$%&;==%&*@ %-%::>:&O+-%%;@::&@+",
"&@%;:;:&=>%%,&o=%%%;*&$:-%+==&%=$+$%;==&$:$ %:=;:>:%XO=%%;$;;&%o",
"%$%:;::&;>%%:*o&$%%*=%%<;%+--%=&@@%$:*-*@:& %:=:,,;&oo;%$;@*&*$o",
"&$$:;=:%;:&$**o=$%%%*&%<;$o=-#=%+$%@:*-&o-; @>=:,,&*o+*$$=@*%*@X",
"&$$;;*:%=:*&=&o=&%%%*&&1>@O*-&=&o%&%;=>%+=: +,=:,>%*o@*%%=@=-&@X",
"%$%:=&-@:;*$*%+=:&%%%%%,-+O*-%=%o%=$*=:$O=: +,->>:$*o@**@=@*-&@O",
"%$*:;%*@:;*%-%@&-&%&%%%:-@+=-%&=o$=&=->$+=&.o>=>>>$&o+*=@*@==%%@",
"&$=:;&;+:=;&:@@===%=%%%:=@O-=%&&X$-&;=>%+-$ X>&:>>$*+$&=@&@**&*@",
"&%:;*&=$:;;;:@@;*=%;&%$:&@+-@%==o@=*:->%@;@ O,*:,>$;++%*+&@&&&*%",
"&$>;%&*$::;::@@:=*&;*&$;%@@-+==-$@=*::>&@:% @,;:,>$;++%;$*@%%**&",
"&$>*$**&,>;*:$+;&*%-&&%;%@%;$;*:%@;*::>&%:; &<*;,:*:++*:%;@*$**%",
"&%>=%;&&>,:&:%o*@%%-*%&*%+*;$;=;%$;*:;<*&:> &<&;>;;:+$=:%;$*$;*%",
"&$:;*;&*,,:$;%+*@%%&=&&*&O=;%;;=%@*=>;,&=;> *<&*>;*:+$*:&;@*$=&%",
"&@:;&;%;>,>+;@+*%%@&*%*;&+=;$:;=&@%*;;1&=:: *<*&>*%=$$&;%*@&&=*$",
"%@:*&-&*>>:@=@+=&%%%&%=-%@=-$>;=%o$*::1*;;- &>*%>*%=%%%*$&$*&*=+",
"+@>%*:=*::>$*++=&&#%%#&-&#*-;>>:%o$=:;>;=:> &;;;>*%=&%%=$&@&+%=+",
"o+&@@%%&%%%o+XX@++o+@O+@@@@#****+Xo%&$*%@%* %$&$*++&@oo$o$$+X$$X",
".o@@@%+&%%%Xo.X@OOXOOXo++@O@$$&&+XX+$+%@+$$X$$$o%oo%+Xo@o@@@.o@."
};
