/* XPM */
static char *result[] = {
/* columns rows colors chars-per-pixel */
"64 64 93 2 ",
"   c #0D0E0D",
".  c #0F100F",
"X  c #110F11",
"o  c #141414",
"O  c #191714",
"+  c #171817",
"@  c #181817",
"#  c #151718",
"$  c #181718",
"%  c #171818",
"&  c #1B1C1B",
"*  c #211F1C",
"=  c #1E201E",
"-  c #21211D",
";  c #201F20",
":  c #1D2123",
">  c #232423",
",  c #282623",
"<  c #262926",
"1  c #2A2A26",
"2  c #282728",
"3  c #252929",
"4  c #2B2C2B",
"5  c #312E2A",
"6  c #2E312E",
"7  c #32312D",
"8  c #2C2E30",
"9  c #322E31",
"0  c #2D3131",
"q  c #333433",
"w  c #383633",
"e  c #363936",
"r  c #3A3A35",
"t  c #323639",
"y  c #393739",
"u  c #35393A",
"i  c #3B3C3B",
"p  c #413F3D",
"a  c #3E413E",
"s  c #42423D",
"d  c #3B3E40",
"f  c #3E4242",
"g  c #434443",
"h  c #484745",
"j  c #464946",
"k  c #4A4A45",
"l  c #434648",
"z  c #4B474B",
"x  c #464949",
"c  c #4B4C4B",
"v  c #514E49",
"b  c #4E514E",
"n  c #53524D",
"m  c #57594F",
"M  c #4D4F51",
"N  c #4D5151",
"B  c #535453",
"V  c #595652",
"C  c #565956",
"Z  c #5A5A55",
"A  c #555758",
"S  c #55595B",
"D  c #5B5C5A",
"F  c #605E5C",
"G  c #5E615D",
"H  c #63635C",
"J  c #5C5F60",
"K  c #5E6464",
"L  c #626462",
"P  c #686660",
"I  c #656965",
"U  c #696A63",
"Y  c #65696A",
"T  c #6B6C6A",
"R  c #726F6B",
"E  c #6E716D",
"W  c #71736C",
"Q  c #6D7272",
"!  c #737573",
"~  c #767975",
"^  c #797B74",
"/  c #75797B",
"(  c #7A7D7B",
")  c #7C807C",
"_  c #81817A",
"`  c #838582",
"'  c #868D8D",
"]  c #888C8C",
"[  c #91918C",
"{  c #8B9090",
"}  c #969996",
"|  c #9BA09B",
" . c #A0A19A",
/* pixels */
"o o o $ O o # & & & > > 4 4 q u i N T ] b i p g f k l i q t 4 0 6 > < > > e j p q 4 9 > > 0 8 4 q 6 < > < < > > > * ; & # & o o ",
"o o o o O & # & ; > 4 4 > 4 > q i B N A g f j h i u q 4 4 < 4 4 4 > > & > 0 g i q 4 > > > 4 4 > 4 8 < 3 < < 4 < > > , & ; & & o ",
"$ & & & & & & - < 4 4 4 4 2 & > 4 h N N g y i u q 8 4 < > > < < > & = & > w u q 4 8 4 & : < 4 4 4 q i u q q w 4 4 4 < 2 > & & & ",
"> > & - - > 4 4 q q r p e > ; & : q j f i e 9 4 4 4 4 < > = & = & ; > & & 1 2 4 > < > > 3 < 4 0 i g i j e s i u i u 4 4 > > > > ",
"> 2 > > < 7 e i s a s s s q & & & < i f i 0 7 4 4 4 4 > > & & & + & ; & & & > > > 4 4 4 q 7 e r c c v z i i g s e y e 4 4 > < 4 ",
"> < 4 7 e i i a j n k g i u 6 > O & < a t q e q 6 q 4 4 : % o o + * : & > > > ; > < 4 q k h p B L D B g g c j g g i q 4 > > < > ",
"< < q u i g c j b B k h j g e < & & & 4 q 0 q e e 4 4 > & @ o o % = > 2 3 4 4 4 > > u j B n u k g z j x k B b I B g 4 4 > > > 4 ",
"> 4 i i g k A c x v c B z g g e 4 = & & : < 4 4 4 3 > & @ o + + & > 3 4 4 5 4 4 w q p i g i 6 r i g g x n L L G n 4 4 < > & < > ",
"4 e r i i c L ' I I H b C g g r 4 = & % & & : > < - : & & & = = > > < 4 7 6 q 6 e e e g v s g b i g k C B T B D j , > * > & > 4 ",
"q u e a g A ) ! T U ~ H G m b g e 4 & & & = > ; = = - - > > = < 3 < 4 q r 6 4 4 6 4 7 i k h c r i g a j k g j g 0 > & & > & > > ",
"q e u p c C B ! W ( E H I b b j g e > > > < < 3 < < < 3 q q 6 g s i i s s r < 1 < 7 5 q h r r 7 s l g s g g s e 4 > @ & & > 3 4 ",
"q e u s c b n ! W T T C D c k j a e 4 > < 4 4 5 q q t g B B j b x g j B c r 6 4 < > r 4 s i e i x e q i s i e 4 > & o o & ; > 4 ",
"4 e e s g g n T H D g x b b j r e 4 > > > < 4 e e j g x G v n b D k j C k h r 1 > 4 < c v r s r w r w r i w e 4 4 = + o $ ; > 2 ",
"< 4 e i i f b B k i q 6 u r e e 4 - & & > < q i j b k g ) G G H m Z n Z Z s r 4 < = < 3 q p q e r s i i q e e 4 < & + o & & > 4 ",
"> 4 q i s j B b a r 5 < 6 q < > > & % & & > q i s g j g G a W H H H H m b s r 6 < - > 6 4 e 7 7 i i w i 4 7 e 4 > = o + & = > 4 ",
"< , 4 w j g i a a i e a q 6 > = & o o + % 4 e i a B x k v s s G I L H C k s a 7 > - ; > 4 5 q e w 7 7 q 7 7 6 > - & & % % & > 4 ",
"< 4 5 7 i s w 7 e f a i e 4 > @ o X o o = 4 q a g A b b s h g s K L D G j s g q > & o O , 4 e e i i 7 7 5 w 1 > & & & + + > > 4 ",
"4 4 4 < 7 7 s r f a q q 4 & & o   o o @ > 7 a a b B s C b c x s j N c j s 7 q < & o o X & 4 w r s s q 7 4 > = = @ + @ @ & > > > ",
"< , 4 4 4 7 e 6 a i 6 4 = o + o o X & > 6 6 e x b N j j g f e j g s g s u 6 , & @ o o o O - 4 e i i e 7 4 > o & + + + & & > > > ",
"< 2 4 > 4 < 4 4 > 4 < > = + & + @ o & 4 i i a g n i 0 g b a h b j g a r w < > & o X o o o # - < e g 7 6 > & & o + o + = - > 4 4 ",
"4 > 4 4 > > 4 4 5 4 > > > > & & & o : q f a f j c b n b b x e j h u i 7 4 - & o . o o @ & # & 2 4 q 4 > > & & o o + @ = > 0 6 q ",
"e 4 4 > > = 4 4 4 4 4 < > > > : & o > e a g j i g x b c x j g g g a q 4 - & % o . @ & = > > > & > > > : & @ o o + & & > q i e e ",
"u 4 4 > > = < > 4 6 q 0 8 4 > > + o & 0 i f a a g c j x j g l g g e 4 > & o o o o & & , 4 4 > > > > ; & & & @ o @ & > 6 q q i u ",
"6 7 < > - > > > 4 e i d i i 4 > + o & 4 i f a i d i i e u i f d i 6 > + o o X o @ = > 4 q 4 4 < , < > > > & & & = > < 7 i e h e ",
"> 4 > ; > & ; - > 7 i N j u 4 > % o o > i f i e i t 0 q e i i i e 4 + o .   o o * 3 4 q q 4 q 8 4 4 > 4 4 & > > > 4 q e u e e 5 ",
"4 < > & & & & & - 4 a c b u 6 > & o o : y i f c u e e u d i i 0 < +       o + & & q d i i w i i i q 7 5 , - > 2 6 6 8 7 u p w 4 ",
"2 > - & & & @ & - q j K D i > > & o . @ 4 i f B f i i e u u q < %     . O o & 3 e B h r i b a k c i u y < > > 4 6 7 5 4 7 q q 4 ",
"9 < > > & o & % : e f S N q & o @ o o o & < q j a l i i e 4 > & o     o # * > s g c s g j k p a g p i l e > 2 2 e e B e e y 7 7 ",
"q 7 4 < > @ o + = 4 g M g > & & & & o & o & = 4 q e q q 4 > o .   o o o & 8 g m k c D B c c B A g u k j i 4 4 , q i i u i i w q ",
"i e u 4 & @ & @ & 1 q g > & & & = & = & + o o % % * : & & o o     o & > e g c v g B n D A T A D B z j i i q 5 3 e e i i i e q e ",
"e 7 4 = & & @ & & = 1 > > > 4 > > > > 2 = & & o o o o o . o o o @ & - u g H i g v h D R R I T L z g s d u e 4 8 7 i y e u p u r ",
"4 - & & o & - & & @ = > 4 4 4 ; > > 4 4 > > & & % % o o o o o & & < q g c Z j D Z D T L ! Z L B v j c k g i 9 5 4 q q i g p u e ",
"& o o o @ & & > > & & - > > 4 4 4 6 6 6 4 4 < > > & & + & + & & > u w c v A c n D D W U T U L L D B z x a i e > < > > , 4 5 t 1 ",
"X X X O $ & > - > > - < > 4 q q f B b A x f g 6 4 < > > > < > 4 q e i Z x L U L B F D n L Z F I D B l a e 9 9 > > > - > & > & & ",
". o $ & ; > - = < 4 > 4 4 u s x G C K L B A D n j i q 6 1 4 4 0 7 e f m U ^ I h j k c B D D D I L Z b g y e 8 > > - - & & $ @ O ",
"& > > 2 , 5 ; - > > 4 7 w x T A D C T I A B G G T T c i y e q 6 7 q u Z W F Z v l c k Z A H L D I B x x g q < & ; & > & $ $ # $ ",
"4 > 4 6 6 4 < > - > 9 p g B ` D n U E G ! T L U Y I I A j i q 4 9 q p Z U V v p i i s M B F L J Z B b w e < 3 & * > > 4 , > 2 4 ",
"e 0 e e q 7 4 : & & e g i D R I H I E G L K L ! I ~ ! Q D s e q 4 q M v D v Z d i i s v B F D L B h g e 2 > ; & & > q 6 4 u e e ",
"g u a e q 4 4 & & & 4 z g n I E G T E E / ( / T T ! T Y T B 0 4 4 < y c A V c D y i q s D D B L B B i 4 > & & $ ; > u i q q q u ",
"g e g q 4 4 > & - - q x B b Y Y G T ~ E / Q ! T Y Y K Y Y x 4 1 4 > 5 p r i q y h c c N D D D B M z q 4 & & $ & > 3 e i q q e j ",
"e e u 6 4 < & & > > e B B C D H E / / Q Q Y L T Y D J K A n i 0 4 > 4 4 0 e e j x Z v c Z B B x i q > & & & & > 2 4 e u e q q u ",
"7 4 q 0 > > & & & 4 e B A n G L G E ! ~ Q Q / L D K B c A x a 7 8 4 4 4 > > 4 e z c g l k g g u 4 > * $ & & & > 4 4 4 4 4 4 4 5 ",
"> > < > > > & & ; 4 u x G Z B D G G L G J Q Y L Y K M d x j g w 4 > 4 < > > & > 7 p g s g 7 4 > ; & & & & & > 5 u 7 4 & > > ; > ",
"& > > > = & & + & 9 g j j b Z D c Z c C A A N D N D c M i a u 4 1 4 6 > & & & $ & 2 1 t e > & & & & & o O & > 4 4 q 3 * & $ & > ",
"o + @ & & & & - - 4 q B j b G B D c x x j c b c c N c p u q e 4 4 4 e u 5 < ; $ + & & 3 > * - * & & & & - > > q e q 4 < ; & & $ ",
"@ o @ @ % & o > > q r k b c c b B C g p i l g j a a d i w e q 3 4 > q u q 4 4 & @ o & & & ; : > & & & & > 1 s c Z v i e 4 > & & ",
"> = > o @ = - & > q e g E C B z N j e w q y e q 4 q 4 > > 4 4 > < > 4 i q 4 4 2 & & @ & & & & & & ; ; 4 w g L I G B B c c y q ; ",
"s 1 4 < < > 4 - < 7 r a I c c N S a t q 4 q q q 4 > ; > ; > > & > : 4 6 y e q 4 & & * > & > > ; > > q c B G T T Q L L G Z N c i ",
"x x j 7 5 t 5 1 < > q a W g A Z A z f g u i u w > & & # o o # $ = > < > 6 4 4 > > , > > 4 > > < 3 i B L F L T R T ( T G G h c g ",
"V D Z B B x a 4 4 > = 6 j j N D L B b B s j i q 2 * o o   o O # & - < 4 4 4 > , < > - 4 4 , 4 4 e z Z L ! W ! T ! R H E I B c B ",
"W T F H D A C a w > & & 7 u j B L b c j z i u q > o         o & > 4 q 4 > < < < > > 4 q 7 5 4 q h B L G ` W P H T T B H D D n I ",
"I L Z m D K A N g 1 > + & 4 u j B x g j e 6 < > & X     o o = > j x e u q 4 < 2 < 4 5 z 9 4 4 5 k B D I ^ U T ! L L D Z R ( ! G ",
"L D Z D Y v S z i 4 > o @ & > q e e i e 6 > & o X       X & < i c D s i y e > 4 > < 7 p > > & 4 i b T U I v U n W H ! ` [ } | ! ",
"T F _ ( B z A B g g 4 & & & & & > > 4 < & o o X       o o > 4 g c x j d i p 4 4 4 4 - 5 & & & 4 g L H I L W P U U ^ ! ~ ` ] [  .",
"c D ! ~ M l B g g c e 4 > > = & & & = & & & # o O X o o @ > 4 B g g e p g g y 4 > , 5 , & o & 7 c B A Z c I W T ` U ! W ! ~ ! ~ ",
"n n D D D B g p g i u 4 4 4 > > > > : > & & & & # # & o & > > i 9 e u d i u q < 4 < > > & & & p n C D G k V ! ` ( R T H B B C D ",
"e i l M b l g s e i i q 4 6 q 6 < > > < > < > > ; > > % & & > > 3 4 4 9 e e q w < 3 3 2 & & - u z B B B c Z T ! T R L B v c z g ",
"q 4 y g g i e 0 4 e e q 4 6 0 6 e 8 q 4 0 4 4 4 4 < ; = & % & & ; > > 3 4 t 4 > 4 < ; 3 & > < u k B B B c g D C D D B k s p a i ",
"q 7 e e i q 4 4 < 4 5 1 6 4 q 7 0 i g g g g u q f 0 4 > > & & @ & ; > ; < 4 4 4 4 4 4 4 < > 2 7 p s h k B h x v N B h i u g g u ",
"e 9 5 e e 6 4 > > > 4 > 4 q q w s j k h q f g g j i i t 4 ; & & & & # & > > 4 4 5 e 4 4 > > < e y g g j g g i p i y i w w 5 e e ",
"q q 4 q 4 < > > * , < > 4 4 a j c C l d k g i N N e 4 e 0 4 > = : = & = > > 4 4 w i t 4 4 3 > < 4 e y 7 u r e u q e 7 q 5 4 4 q ",
"4 > < < 4 > > & - > > > 8 6 c B b j g G D Y A T D f u e t q 6 > > > < > 4 4 q z k p w 4 > > > > > > 4 e 4 q , 9 4 6 4 4 > & > 4 ",
"& > > > - & = & & > > > 9 4 j c D j ) ! ! B x k M j k a y e e 4 4 < 4 < > 4 e g i w q 4 2 < 3 > 2 > > 3 > 4 > * < > & & @ @ @ > ",
"& & @ & o & + & @ & > < 4 t p i x B { ` T z a l L c j i q q q e 4 4 4 < > q i i 7 q q , 3 4 3 4 4 2 > * ; - : ; ; * & $ $ O o & "
};
