/* XPM */
static char *result[] = {
/* columns rows colors chars-per-pixel */
"64 64 60 1 ",
"  c #060606",
". c #0C0C0C",
"X c #0F100F",
"o c #110F11",
"O c #131413",
"+ c #171817",
"@ c #191719",
"# c #1B1C1B",
"$ c #1F211F",
"% c #201F20",
"& c #232423",
"* c #272827",
"= c #282728",
"- c #2B2C2B",
"; c #2F312F",
": c #302F30",
"> c #333433",
", c #373837",
"< c #383738",
"1 c #3B3C3B",
"2 c #3F403F",
"3 c #403F40",
"4 c #434443",
"5 c #474947",
"6 c #484748",
"7 c #4B4C4B",
"8 c #4F514F",
"9 c #504F50",
"0 c #535453",
"q c #565956",
"w c #5B5C5B",
"e c #5E615E",
"r c #636463",
"t c #666966",
"y c #6B6C6B",
"u c #6E716E",
"i c #706F70",
"p c #737473",
"a c #767976",
"s c #7A7C7A",
"d c #7E817E",
"f c #828482",
"g c #868986",
"h c #8A8C8A",
"j c #8E918E",
"k c #929492",
"l c #969996",
"z c #9B9D9B",
"x c #9EA19E",
"c c #A2A4A2",
"v c #A6A9A6",
"b c #AAACAA",
"n c #AEB1AE",
"m c #B3B5B3",
"M c #B6B9B6",
"N c #BBBEBB",
"B c #BEC1BE",
"V c #C2C5C2",
"C c #C6C9C6",
"Z c #CACCCA",
/* pixels */
"xMbbh7fftwwMblaisaajvksts8507ls7a0774#>5evcvvMmg-7:957,14407bVhl",
"VCvVVk7k200lffuwttghlht47<>xZZMlych4><7yvllzbbMmr-:&,>,>1#0lzpMC",
"VmmVVVew701gwaytrwjgse2,21sZZZCMbaMMlzhtblzzhvbmbd5,&<>,>>iBCVVN",
"zNbMVVc=0h,sratwyywtq57><pxmVNvbxahVZZbqlhzcvbkcNzvv7-tsgqbCVVMV",
"lvkMnnc35t-8qyrrq00824,;jlMbvkvcjnkpZZB<fuzlsthlifmggyybxyvBBNxv",
"bbzdsxB7wft-440w554,>&-gxplcpyhzljvlhMm,0yaastsyykgbvj,gMfBgzbfh",
"vkpsiznwgjz8&1242$$*48tnh0lssyahffgbznst<0siwyp7sgsyzg-yMNNxcshg",
"hvfjzcnf<cbvr$1<;*2gBavxghpgsghhssfhhMkp#5tthrspt6yq8u&jazvsykgp",
"pkgcvcnn,rvjt5&@$8xgxnvgffsywrtsghafcNks,-78q8qateaskw;gtxhyhddf",
"hlgukxzn>w8md;2*8unBnnvlfyt0w0utyaa0kvm00--7w70aprksye;u4yppszlq",
"qsydknml>t;MMz2&4txsnvxjtwt70wrptss7llMv0r;&44rtgzhfa84k47hcfgtp",
"sfhlcvmg-a-hdjMj2yexxhduytrq5yuepq6thcbmt0t&<r00eaxudrws1dkxdsdg",
"bkbxhgzk<a-ptthkde-sffshthzw245aya0yphzMf<g1$575y7t757ql;0agkfcz",
"kzjlffkh1q*0040qus,qytspyayw45ryyytpt0lvt&qf,O;570t4,4dk5@5hrpkk",
"fgdldfft*7:q91757&,280ute0wtryyrpptta17645ssu$&,455<1,fyt1O1autf",
"ty05yjy5,0&15,*O+2ut>800wt794epsyyyp--tt<5t<2+@+@++#@<72->>#&1rr",
"rftr0q5;qr,&#+@>wahh0-177q77waspr7w044<4><4hhp2*>*<1,lkMmz0>-+:7",
"tfueq5>#fz44&$1q0kmNMe&3q009>50uy07204>7e<hcskg-*wtpxmnbbmb97,&<",
"<0ww7;+*57fblfkklklvcla#43047105574q2-175ddssrsr&50rMmczcbng><-O",
"#*-;&@*-;sknxhsjgkhkzsg&-4q7t70<212,&>0flgwww7qy#**pnblgsslc2,r-",
";$+#<:@>kvggbhhpggaakg7w-&<,,,,,1,$X>wlcjawerwew:>>fvzhgsesjl2;4",
"p77<7,&zvlaplkahjhfggdd501+,>,4,>*&<;dzfqer0014,#5*hzaq8erwwps&7",
"0hgst-evxh0phfasggaafdff4q<&*1><;#,;pczhyq5q845,&2&aryy5qwe7ul1>",
">7dd1>xvgdhgfdsdgfhgglzzl0,>*###&->svjdu4teq511#;4-pepw7ewtrypa0",
"4,0p,>cxkhjghggfggfdhhlgcl84y45<,>pcvghy8pr2,1$$1&wt807eww30qwaa",
"r*>0,-jfypdsdsffhhifsdhfpxp7fuy0,,szzfssgy044>$<:,atr0e0p070wqrt",
"ut*>4-,8777ewtsuspipt8tuypt,euys-yykgsyggfe75&-5&7qtq00rfrwp0qtr",
"ts4>8> &1:15q0qerrwprw207we,sls<0ghsaasgsy084&>1&qtsyetssyaawqw7",
"10,#0d1#O>>1>72qtq0rqw51<,-7lsysspttptyasur52->&<0psr7dyg70yt003",
"41;@1hr2$O&*-<270ew054<-&&0sjllasfsyayiisqr04-&@<00te0ueatq7qq14",
">>OX5zhh1*;&*#,5<,1,><-@&0x4lkhfhhaypy0spyt64-&&&,34<00qw744531>",
"*@.<rklkkrtgt,&<1>,-:&+&ts>hhkfssspyspayyyq07*-:##><4,<<70<>*<1:",
" @#,gqaygwtgga1&>>,-@o&s87ahhfsaupayutpqrtr75&*5t9&*&*-&,w<*@&#O",
"+&&*-tutyyrtwy7s-$$@;4t0wgfhhgdpwaatqretqr04,$>dpe,4#+O#*-# . ..",
"&&>+esqtrr90wtaqearhlhs<apishftrr059weqq458<&00sr>&-&#.Oo. O#@O@",
"00er0q5474,444tseuvxvk00ptepypyrwrq5707471*O&ar>>417w9-@&&@*X&*,",
"sawq452>77<<-*5qselcvf5q7yttte79118077><*&@&;-&<wq800tq*+,4,$khf",
"01754<4,152,;->4rs5jha&000w015>>5-1<->-&O;8e&2<1we08084&@ar6&lgt",
"52<215,,71>*--,,7w2gfu#44--1<;,11*,<&*+O*r4$27;>07qq44>:@8pq%hy0",
"1>11,>>>,0,->---1ry2aa4#&&->*,11**-&&+%47,+>8882141w515-#10>@dr0",
"5,-40>-3><*&&&--50740ts-&&*>--<;-&&#@1yp-@-72472,<6rw5w-$2t0$asq",
"8>-4,,,5--*&-*>:541q-0fs&+*:$#&&#O&7pt0,-<2,<172450rq00-#5y7#esq",
"4,457<51,-*-*=>-157w0-sgt,+#&&#.O*sjt**712-;-4727qwrr40-.<e4@tpy",
"44274561<>**&*,*590rw>wgsy1$@#$&5wu8,742;>;*>104<w807>4,O5r<&est",
"45155<141<>>>#*>47179*-21eq7*,hyyts*077,;>&*,,3<,057r13&O0s1$wat",
"7575741756,6<>11552>&@&7ypydtwsswt1*22*&&&*&*->->1>>7**&@4r&$ear",
"5q707447770741124<2;*+@800007w4sd0@,5,*4>*;&-*1*>,,;4<>##07&%tpt",
"0980775178711,4<421>&<#77,r0w0-7s2+1<>-1#$$**>5>:-*&75=#&45&#qtq",
"04770761347,4;>1<1;>7>X>2>7t8e1*2-+>&&>*&##*&-<%-*#&5,&X#;&@#7ee",
"0w8ww3743143&1>>-*$<17#$&440<15;0;+1-,>&%&&&-:1,-=&&4<O.##$@.185",
"0r70075>:&;1;&&$&+7<1;$O@>704511$$#;<1,&*&#&&;51<&&&-@+&@++@.&-7",
"17w05131>>&&&$@@O+&1put$+*2r0qeu7-+&&;<-*-&@&;4;;&@OOO&@$$@#@.@>",
"&>:51<11;*#$#++OO;70teq>@+24rwrt7#+O&->1-1-&,,,*$X .+&,@@@#>,#.O",
"+&&75&>-->+@O+>O-,,21<4*4+#877e7*&&O+;>11<,-;**&X.O+*>5-&#&-rw% ",
" +&,>:-=&#+.+,$2>*&$-<2;**X&-,4w$*>O.#><4->*>&+O.@OX@>&&#+O#rs7@",
"OO@#---&#+O*8>2,#+#$1;71@7#&,40-+&1=.O*->&-&@..@;#X&&71,>,*$6up>",
"&+.##$@#@O*5-<1&###$;$<<-#>@&;2>#@14&.#&**@#.+*-+X&**57-,1*X-r7>",
"@#  +@++.+&+>1>&#@$$>;-,1-*#+&;##&77-#o+#&#OO&>@,,;><55,->&.&5,&",
"OO+O . .O*#O42-#@#&#;>-<01@#O.+.@*->,<O OOOO+&+o---,-14:,<- #-#+",
"&@O#@@X+*>@%5>-*&&@&--&-1,#**@##;7wt84#+ X$2&O.*>,#14,1<<,-.@&O*",
"4*$O+&;;54+;1,>:>*&=-=&<5<1<<14&@5e00w24@>5<O&*-,>>6114-44- &@O,",
",-;&X$-&&*+,0>-->-&*-,-*54>1<w<$@051,121q5&*;-;<424<4114<4*+#O+>",
",**;#$>&+#O<4>*->&&*>>;*61&4&>*#X->*-&*-2#$*;;>,14<441121<@@*#&-",
">-;->+@=#&o,3>>=-&*-:>,&,;+*#+--*.->>&&#$O-;$-->44144<>,1>++&&1-"
};
