/* XPM */
static char *result[] = {
/* columns rows colors chars-per-pixel */
"64 64 174 2 ",
"   c #040405",
".  c #090606",
"X  c #070807",
"o  c #0A0907",
"O  c #03030B",
"+  c #09070A",
"@  c #07080C",
"#  c #0B0A0B",
"$  c #110E0C",
"%  c #0F100F",
"&  c #13110E",
"*  c #020213",
"=  c #080714",
"-  c #0C0B12",
";  c #02021B",
":  c #08061A",
">  c #0A0A1C",
",  c #100F11",
"<  c #0E1010",
"1  c #141212",
"2  c #181515",
"3  c #181518",
"4  c #020323",
"5  c #060823",
"6  c #0A0A23",
"7  c #02022B",
"8  c #08072D",
"9  c #07092D",
"0  c #0B0B2D",
"q  c #131324",
"w  c #11112D",
"e  c #030334",
"r  c #080735",
"t  c #070834",
"y  c #0B0B34",
"u  c #03033C",
"i  c #08073C",
"p  c #07083D",
"a  c #0B0B3C",
"s  c #100E3C",
"d  c #101234",
"f  c #12133E",
"g  c #16183A",
"h  c #030343",
"j  c #080742",
"k  c #070844",
"l  c #0A0A44",
"z  c #03034C",
"x  c #09074D",
"c  c #07084C",
"v  c #0B0B4C",
"b  c #0F1044",
"n  c #0F104C",
"m  c #121244",
"M  c #1D1C43",
"N  c #12124D",
"B  c #030353",
"V  c #080751",
"C  c #070855",
"Z  c #0B0B53",
"A  c #03035B",
"S  c #08075B",
"D  c #070859",
"F  c #0B0B5C",
"G  c #100E54",
"H  c #100F5E",
"J  c #0F1054",
"K  c #121352",
"L  c #191955",
"P  c #13135C",
"I  c #191659",
"U  c #1B1B5B",
"Y  c #030363",
"T  c #080763",
"R  c #070863",
"E  c #0B0B64",
"W  c #03036B",
"Q  c #08076D",
"!  c #07086D",
"~  c #0B0B6B",
"^  c #100F64",
"/  c #100F6C",
"(  c #0F1068",
")  c #121163",
"_  c #181763",
"`  c #171862",
"'  c #191967",
"]  c #13136C",
"[  c #171A6B",
"{  c #1C1C6D",
"}  c #030373",
"|  c #080772",
" . c #070872",
".. c #0B0B74",
"X. c #03037B",
"o. c #07087C",
"O. c #0A0A7C",
"+. c #0F1077",
"@. c #0F107B",
"#. c #131373",
"$. c #161873",
"%. c #14147C",
"&. c #1A1A7C",
"*. c #21236A",
"=. c #222373",
"-. c #23217D",
";. c #2C2E7A",
":. c #030383",
">. c #080782",
",. c #070886",
"<. c #0A0B83",
"1. c #03038B",
"2. c #07088B",
"3. c #0B0B8B",
"4. c #0F108A",
"5. c #121384",
"6. c #11128B",
"7. c #17198B",
"8. c #1D1C8D",
"9. c #040493",
"0. c #080794",
"q. c #0A0B94",
"w. c #03039B",
"e. c #07089B",
"r. c #0B0B9C",
"t. c #110F9A",
"y. c #0E109B",
"u. c #121293",
"i. c #13139B",
"p. c #1F218E",
"a. c #222491",
"s. c #0303A3",
"d. c #0708A7",
"f. c #0B0BA3",
"g. c #0404AB",
"h. c #0807AA",
"j. c #0608AC",
"k. c #0A0AAB",
"l. c #100FA6",
"z. c #0F10A5",
"x. c #1313A3",
"c. c #1719A4",
"v. c #1F1FA5",
"b. c #1314AA",
"n. c #1A1BAB",
"m. c #0303B3",
"M. c #0907B6",
"N. c #0708B4",
"B. c #0B0BB4",
"V. c #0203BB",
"C. c #0807BB",
"Z. c #0709BB",
"A. c #0B0CBD",
"S. c #0F11BB",
"D. c #1515B2",
"F. c #1A19B3",
"G. c #1313BC",
"H. c #181CBC",
"J. c #2022A4",
"K. c #3132AE",
"L. c #2020B1",
"P. c #2120BF",
"I. c #0303C3",
"U. c #0B0BC4",
"Y. c #0404CA",
"T. c #0F0FCF",
"R. c #0F11CC",
"E. c #1313C3",
"W. c #1618C3",
"Q. c #1213CB",
"!. c #0B0ED4",
"~. c #0D0DDB",
"^. c #1313D4",
"/. c #1616D8",
/* pixels */
"= ^.I.Z.T.Y.U.m.h.s.U.m.s.g.U.~.V.R.U.w.m.A @ # T q.9.2.9.,.9.f.:.q.l.1.m.V.m.s.s.S./.s.r.f.9.s.M.h.U.>.  & h.U.A.s.U.U.w.m.B # ",
"1 M.f.e.w.m.d.D.z.e.d.s.:.e.k.s.:.m.i.} B 7 # @ ..h c h e 7 a j k )  .} 3.1.b.:. .! 2.3.Q S Y X.%.q.9.C   = g.:.o.:.1.e.:.e.h # ",
"# k.x.M.g.s.M.W.m.9.W U.1.s.m.} X.X.} !  .a # . X.h A W B v A z h B O.W w.Y w.9.1.} o.k. .>.9.Y %.Y w.S     s.w.g.1.1.m.X.w.c + ",
"+ 1.M.I.m.s.I.k.Z.E.g.m.U.g.l.X.B Y X.:.} 7 1 # u ; * 4 4 4 4 u * * 4 7 7 7 4 ; 4 ; * 4 4 ; ; 4 * 4 7 7 O # j.9.I.s.9.V.V.9.u . ",
"# 1.M.I.E.N.w.9.f.B.w.V.A.s.w.1.W X.r.>.W 4 o   # , - O O 3 = #   @ O . - # # 1 O - - @ # # @ + + # # #   o m.s.9.X.d.V.f.9.h + ",
"# s.D.N.g.I.I.V.g.U.V.w.9.s.m.9.4.<.} } ~ ; , o w.j.M.Z.h.A.~.!.m.w.T.Z.B.g.g.s.g.U.W + # # - 1 = = # + 1 - h.s.Q.^.N.g.k.d.B $ ",
"# :.E.d.s.m.j.9.V.m.g.s.9.s.Q.w.o.Y W } A 4 @ # q.>.o.D.} 9.C.s.R 2.1.W q.q.W } } W e 1 . m.Y.Y.V.V.I.X.# - j.G.V.h.V.g.w.g.h . ",
"@ S.T.A.s.M.h.X.m.s.h.9.:.U.N.9.W R W X.X.7 2 @ o.<.9.V.r.1.B.b.W W X.y.w.e.:.h >.} r @ @ s.h.A.:.2.s.u o O N.G.V.s.g.j.w.g.Y $ ",
"@ G.j.m.C.m.f.} <.0.u.X.d.h.9.9.O.A Y >.9.u 1 & B 1.i.1.D.m.s.9.s.Y W l.1.f.! h ] A r   2 M.d.B.w.>.M.X.# , w.s.:.m.w.w.s.9.u $ ",
". k.e.m.g.m.r...X.W } e.s.o.B B z A A Q >.e o . W } :.3.f.:.:.1.9.}  .0.f.h.o.x Y ~ t @ @ X.W :.q.1.9.A . # k.:.w.w.1.9.d.q.e o ",
"1 1.0.s.b.0.r.A } 1.e.l.e.R u h ~ p A B R 4 o # } d.l.} X.A A u.9.>.:.9.9.q.i.x | 0.7 # 2 ~ x } X.Y 1.7 # # s.W 9.E.A.1.:.<.7   ",
"# 1.:.@.,.q.R h 5.:.r.o.W z e h h h D v C 7   @ o.9.w.:.X.} E o.f.q.X.W >.D.O.h R X.u o   1.#. .9. .} 4 @ = } W 1.k.h.q.>.} 4   ",
"O s.1.2.u.] B B | ../ ..B P e h z z z D T * o @ M.i.} n.X.e...~ e.q.0.<.X.! O.| 2.t.e 1 # 0.R A } ,.O.t   2 L.1.N.w.:.X.W O.4 @ ",
"# 1.Y 5.r.V z ~ A B k V B h h 4 7 h h V  .: o # w.9.X.1.} X.C B X.X.X.1.1.u.A f.2.:.e + . e.c A ..} ! 4   $ x ; 4 4 4 4 ; 4 r # ",
"# ! ; 4 4 * ; * * O O O . O   O O O = * ; * 1 # 1.b.q.W =._ h ~ :...S W 9.R O.f.q.>.i . O V k R ! A B ; . - @ o $ o o & & @ @ # ",
", # $   @ . , , , + @ #   @ # . # . # @ # O @ = 2.q.W A v v B [ ....h +.1.o.B R ..S 4 # # E K { B E u : # o + + - $ $ @ o $   o ",
"r.m.9.s.I.w.m.k.f.w.m.X.W j.A @ T 2.c.r.f.B.6.+ Y A A B u Y y h ) S B ! X. .W F P i * #   P e p h N u * $ # M.e.1.e p 1.d.w.9.9.",
"Y >.A Y } W k ! } <.q.a.E } 4 & i j h c F W j @ 2.) Y A u i V C k c h B ! <.a.u i a ; 1 3 F y m 4 p l = o @ x h u * i Y Y Y Y Y ",
"} >.W O.} S V 0.>.} A h B >.; 2 e ; E %.7.Y 4 1 >.A 5.r.A h 8.c %.N S ....+.A x B u : # + z u 9 4 ; N : , # O.Z B ; c o.Y T Y z ",
"3.9. .W D c A z R  .B $.W x.a 1 u y B W 4.7 ; @ o.9.K.q.,.B c K e ` ~  ...B ) ] 8.E > # + H i a ; ; e 5 # . k 8 7 * Y h B x B C ",
":.:.X.q.Y X.} R z z z W 1.f.e # c e Y } Y 5 # # e r 7 i ; ; j ; ; = 4 ; : * * * = O O 1 o ; * O O   * * , + : O O O u e 7 e e e ",
"Y S z Y A D A C e j A W r.b.* 1 } x A o.2.e.i @ , 1 # # @ + $ + @ # @ & @ @ & & 1 % # + o # . # @ # 1 @ # @ o $ o + u 7 4 h u u ",
"B C :.H } B ~ B h B A } q.H.4 # v ) ! ..u.6.8 # + # # @ # , 1 - @ - @ # 2 # @ # # . # - # @ @ # # Q q.%.d.A # &     W r e e h u ",
"S E &.A B Y A W Y R W 6.r.e.e # c.S ..1.9.:.a o # d.U.m.I.P.A.g.D.f.s.B.1.N.<.r.r.X.s.>.9.k.B @ @ %.K ) G * @ # #   A S j h R u ",
"5.B 5.Y h z B A ! u B ..3.y.9 . D.o.<.f.w.0.V $ O 9.1.x.W.e.:.q.X.Y .. .! o.F 9 7 u ;.' &.<.7 X - -.] ] D ... @ 2 & z z i 7 z A ",
"B h h z u h A  .A B c Y A A : # n.>.X.l.g.x.A # # X.} <.X...~ A A E S E R ~ P 4 7 K $.S E A ; # # x u J u 5 o # # - B S u e e 7 ",
"h B h u h e B o.W W  .#.c V O # h 8 e 7 4 8 5 @ = w.F. .A u h P A u z P ] k =.r x #.J...B 4 O # # E r P e r i = 7 # a B A B h h ",
"h T h B j i B R Q W h B i u O # o @ @   #   $   + 1.F.Q z z r B ! z ` 4 h u k i h 8...c u V O #   r r k e U u h ; # - B h c k B ",
"B h j B u h X.B A A A z $.R O # # 1 # # @ - 1 # $ 9.>.o.R F c E z v P e j e L _ O.z h c l j O 1 # B u r i E 7 u B   c c h u h h ",
"l 7 i B >.W h A S ..z B ~ A = @ - W.j.E.S.U.| @ # x.O.8.%.W N a u u h i V 9 a u h ] =.K f 4   + . c 9 4 k h ! A ; o u h h h k h ",
"y ; m h B 3.:.1.D B } h V Z = # O f.u.u.1.>.e @ O i.} ~ r r v ..<.B h T h h e K [ h v 0 > > . 1 X V ; 5 7 4 i ..v & u z B u F u ",
"a 9 h z  .,.W T W  .B ] Z u =   1 f.! >.q.v.7 # # X.B E m t h u z A N p ~ z n x e J a ; O   # @ # r > O t 8 7 z 4 @ X.B e F F V ",
"e t R  .A >.W Y A E u u Z u O o # r.} %.} 4.) @ # %.! X.) 0 i k e c u v ] O.7.9 4 m 9 w >   # 3 @ 7 m q F P 9 7 * @ c B r 7 ! B ",
"u h k B o.} W Y c 7 a h *.b     + r.X.| X.r.V & X E Y R i u 7 a i 7 i 7 V { z b 9 7 9 0 d N - 1 1 . > J 7 y e r O @ 7 h 9 4 h e ",
"x B h E ! Y Y A B z h i A z O # # ..2.2.f.W e   & A ..i.B B B t ; 4 u ) B ] B c z L p k y 6 O     1 c ) 7 t 4 e ; 1 u k / B h h ",
"h e u B A h h B Y B A i B z     @ O.1.d.b.W u # - 1.E W i.B e 7 ; e c h B R S e h ~ u J i f O o # } y.7 t 7 4 4 O   z h A Q R E ",
"h u u z B h h A B B c 7 B E * & o ! r.k.x.<.4 @ o h ; u * * * O   O O * ; = O O * O * ; = O O . # e r M 4 5 * = . # z A A B Y h ",
"h 7 e h z B B Y B A h 7 u ) O $ . Y X.u.q.t.c + o   o   2 #   & . + # o # @ @ @ # .   2 # # - o @ e 7 0 ; * ; * * + } Y E B T h ",
"i u u e >.B B Y W A h 4 $.a O o o <...6.q.2.R - # # O O & & o & O % O # . . # , O . - @ o # $ + # Z 5 * 6 - 5 O   . z } W ! r.z ",
"O O     O O O O   O O   O   + @ + o.W } 9.f.e # , R.j.f.1.i.s.:.q.,.X.2.9.9.2.q.9.9.9.0.6.w.c 2 # c w * 5 6 = ; O . O * O * * O ",
"# o $ o + O 1 , - @ # - O @ , o # %.E r.0.d.u + O 1.Y A %.! ..B E u e x [ S B 7 B B #.h / h : @ @ Z 0 > O - > h   - # # @ - O @ ",
"@ @ 1 # # s.w.0.w.9.f.f.9.w.D # # 3.6.q.:.e.7   # o.~ ! A X.H V c h h T T p.B u k k B B B U O #   u q > = O R     X . u X.9.o.  ",
"# :.w.w.r.s.A e h z ! B u e O & # A W W A } e + & :.:.A B n ^ h z i z ! B R ..e B z z S t ;   2 # D > @   O   e     % . e   O   ",
"# S 7 7 e z u #.u B B v x v * 1 # B W B O.W ; 1 # 2.q.O.E ! S S 9.( E J R X.Y r h c u x 7 4 O # $ y = - O   = O     @ O e * ; o ",
"#  .i e u 4 7 7 h h h z u P * 1 1 e * ; * = O . - ..i.W A <.h ~ 3.i.Y B T A ( W L.k 4 a 4 e O # o e   q O         + # i r * O o ",
"+ B e u i z h G S h h B j v ; # & 1 , + # - # # # Y 3.O.Y A Y o.n.X.<.W A u z <.Y E i e y 7 O @ # *     #     = O # , u * : *   ",
", Y 7 u z t 7 u e u h u e 9 * 1 $ # @ o $ @ # @ - 3.W u x E h R y.t.z Y r.V B ! %.h u 9 * O   o @ , $ o # # + $ @ # o 5       @ ",
"# B e u B Z 4 i i c h m 4 ; * $ @ 1.:.>.1.i.p # + ~ k c L C h z o.x.R B o.B Z A c u p ; O O   + # # # # + $ , 1 # + # # @ 2 @   ",
"# Q i z z C h h 7 7 7 b r ; ; @ @ e 7 4 7 m * o + h j I Z T ] B Y ..B D W Y #.Y a I l ;   3   # o B o.o.X.9. .W w.Y 4 4 c w.O # ",
"# A h B u B r t 4 9 4 r i x O X @ J y 9 y 0 O # o 4.h z ~ e j v r R ~ B A A 5.k t 4 f t ; B - o # b 5 ; t v 4 O = * : O O *   # ",
"  z u u h x x h z u e B 7 e ; # 2 u k e v d O o # C h A h l z 7 r i B  .X.B B k p 4 4 7 ; e O + + e O : ; 5 * 9 4 O * 6 ; ;   @ ",
"1 } e c B k B Y B A h R h e ; # # B E u h 8 ; # @ h h z B 7 p d f v 3.} 2.A h i 7 4 j c p g   # # r * a 7 ; ; 4 9 * : j 4 t O @ ",
"# W j x z h B k R z u B 7 c 4 # O D k c z e O . + u u z u p i k r N W z O.v l 7 9 p l a 8 e * # . k 4 b r ; 4 4 7 4 7 e ; e O + ",
"o h v B z B 2.S A Y W h i B e # # z e u e e O # $ W i c l j h ! 7 t S R B B z e h t r y 4 4 * , # z i r i 4 ; 4 A 7 7 7 ; 4 * . ",
"# h h B W Y h z :.O.Y B F A h @ - B u i a e O . @ z r s V <.V 7 4 r l 7 h h u n x G V a 4 7 6   . B i e h h R u e 4 e 4 ; e * # ",
"$ B h h X.w.1.W X.,.W h D Y t # O A x k e Z O + + h 7 7 4 i k ^ V y F C k B u m B z Z 7 4 h 5 1 . S i k A i e h  .B u e r e * $ ",
"# u ..Y } 1.W e A :.B W W } i   1 2.u B c k O @ @ e 5 y 4 e i e 4 7 i t k B x i e V k i k e ; o # B h u X.z h 7 i u h h h V O . ",
". A >.W A :.} e z A z A } Y ;   @ B ) B z u ; # # c = f 7 * r 7 9 4 t 4 e E z 4 e e 7 i a t O 2 @ k Z A 9.} u p u e 4 z e e * # ",
"@ :.A A B W Y h B W X.A A c *   # B ~ Q z u ; $   h p ; 6 r 5 5 7 4 4 y ; G u 4 k u F i a a * 1 , j h ..h h Y e 7 A h e 7 ; O , ",
"+ :.z z Y W R h W } k.u.Y z * o # >.B j u h *   $ 7 I * = ; 9 7 e e 7 l e h h 7 h u S k i a O o . Y h h k Y z u u Y Y u u h O o ",
"< } Y A A u h Y :.} } X.} W *   + Y B h p 4 O # # u : > * 7 4 4 e h 7 k x e e h Q B h V u 7 O o # B h B k h h u W W B A z Y *   ",
"1 X.Y A ~ i h Y } A X.Y } W * & @ z F u b 7 O o @ Y 5 * O O = 6 4 e 7 u a e i R A u h ) j a * o # h u u B u h B W >. .B z Y * . ",
"O 4 * ; ; * * * ; ; ; * O * * # + e * * * O O @ @ ;             * O   O * * * ; * * * * O O O @ # 4 O * * * ; ; ; ; * * * * O + ",
"# o   o & # # @ #   $ +   # & @ . # o @ # # @ # # + +   $ # o & @ # X # X + # # @   @ o + # $ @ # # @     # $ o # . % X #     - "
};
