/* XPM */
static char *result[] = {
/* columns rows colors chars-per-pixel */
"64 64 218 2 ",
"   c #1E1E1D",
".  c #280908",
"X  c #310D0B",
"o  c #3B0E0F",
"O  c #2C100C",
"+  c #3A100D",
"@  c #2E1613",
"#  c #2D1915",
"$  c #2E1618",
"%  c #221D1C",
"&  c #2D1D1B",
"*  c #331513",
"=  c #3B1614",
"-  c #321815",
";  c #391815",
":  c #341A1A",
">  c #3A1A19",
",  c #22211F",
"<  c #28211E",
"1  c #34221F",
"2  c #242524",
"3  c #292525",
"4  c #262826",
"5  c #292927",
"6  c #262929",
"7  c #2B2C2B",
"8  c #322221",
"9  c #312C2B",
"0  c #2E312F",
"q  c #302F30",
"w  c #2F3231",
"e  c #333433",
"r  c #3A3434",
"t  c #373937",
"y  c #3A3937",
"u  c #393739",
"i  c #373939",
"p  c #3B3C3B",
"a  c #4A0706",
"s  c #550404",
"d  c #5B0304",
"f  c #5D0806",
"g  c #540509",
"h  c #5B050A",
"j  c #550A0A",
"k  c #5B0B0A",
"l  c #41100B",
"z  c #5A100C",
"x  c #4D0F13",
"c  c #431311",
"v  c #4C1514",
"b  c #4A1818",
"n  c #5C1717",
"m  c #630405",
"M  c #6C0404",
"N  c #620907",
"B  c #6C0807",
"V  c #64050A",
"C  c #6A060A",
"Z  c #640A0C",
"A  c #6B0A0B",
"S  c #740404",
"D  c #7D0202",
"F  c #7B0906",
"G  c #73060A",
"H  c #7C0609",
"J  c #730A0C",
"K  c #7D0A0C",
"L  c #7A100E",
"P  c #680811",
"I  c #720D11",
"U  c #7D0E14",
"Y  c #681413",
"T  c #671619",
"R  c #741213",
"E  c #7B1113",
"W  c #7E131A",
"Q  c #481C21",
"!  c #741B22",
"~  c #472727",
"^  c #562F2D",
"/  c #4B322D",
"(  c #5D332F",
")  c #5E2D31",
"_  c #473330",
"`  c #423E3D",
"'  c #563733",
"]  c #5A3634",
"[  c #5D3A35",
"{  c #563C39",
"}  c #5D3D3A",
"|  c #762423",
" . c #6D312B",
".. c #6D382C",
"X. c #673734",
"o. c #623935",
"O. c #643E3A",
"+. c #6B3E3A",
"@. c #753532",
"#. c #7A3D39",
"$. c #3F413F",
"%. c #42413F",
"&. c #5E423C",
"*. c #64413C",
"=. c #6A423D",
"-. c #423F42",
";. c #613F46",
":. c #733E43",
">. c #3F4041",
",. c #434443",
"<. c #494645",
"1. c #474847",
"2. c #4A4947",
"3. c #494849",
"4. c #4B4B4A",
"5. c #5B4745",
"6. c #554748",
"7. c #524E4E",
"8. c #4F504E",
"9. c #5D524B",
"0. c #504F50",
"q. c #515351",
"w. c #595756",
"e. c #565857",
"r. c #585958",
"t. c #6B4144",
"y. c #634945",
"u. c #774548",
"i. c #645350",
"p. c #840303",
"a. c #8B0404",
"s. c #840907",
"d. c #8B0807",
"f. c #850709",
"g. c #8C0609",
"h. c #850A0A",
"j. c #8C0A0A",
"k. c #920504",
"l. c #9B0405",
"z. c #930907",
"x. c #9A0807",
"c. c #920609",
"v. c #9A0708",
"b. c #930B0C",
"n. c #9B0B0C",
"m. c #85120F",
"M. c #8C110E",
"N. c #93110E",
"B. c #9D110F",
"V. c #820E13",
"C. c #8B0D11",
"Z. c #940E11",
"A. c #990E12",
"S. c #861414",
"D. c #8D1413",
"F. c #8C1A15",
"G. c #86141C",
"H. c #8B151B",
"J. c #8D1C1C",
"K. c #951314",
"L. c #9B1213",
"P. c #931A13",
"I. c #981A14",
"U. c #951519",
"Y. c #9B151A",
"T. c #941B1A",
"R. c #9B1A1C",
"E. c #A10504",
"W. c #A60709",
"Q. c #A30C0D",
"!. c #AA0D0B",
"~. c #A10E12",
"^. c #A31213",
"/. c #AC1414",
"(. c #A31816",
"). c #A3161B",
"_. c #AA1519",
"`. c #A31B1D",
"'. c #AC1B1B",
"]. c #B4171D",
"[. c #B51818",
"{. c #88201D",
"}. c #97201E",
"|. c #AC221F",
" X c #851C22",
".X c #8B1B25",
"XX c #931B24",
"oX c #9D1D21",
"OX c #A31D24",
"+X c #AC1E22",
"@X c #B41F25",
"#X c #B01828",
"$X c #842422",
"%X c #982623",
"&X c #9C2425",
"*X c #9B262C",
"=X c #9D302C",
"-X c #992E34",
";X c #8B3636",
":X c #993636",
">X c #A42224",
",X c #AB2424",
"<X c #A52925",
"1X c #A3252B",
"2X c #AA262B",
"3X c #A52B29",
"4X c #AD2B2B",
"5X c #B72728",
"6X c #AC302F",
"7X c #B32734",
"8X c #A93233",
"9X c #B33436",
"0X c #C2212E",
"qX c #C82D38",
"wX c #C43537",
"eX c #884947",
"rX c #A94B5E",
"tX c #C24448",
/* pixels */
"1.,.7.<.q.8.2.4.q.,.1.1.q.y 2.q.,.e.2.4.<.4.e.4.w.7.4.7.e.4.,.<.q.7.1.,.q.q.q.q.4.4.2.1.4.1.,.1.4.,.,.<.e.4.8.4.<.4.1.4.<.4.,.0.",
"4.eXD.D D.M.S.m.f.F.F.h.Y r 4.1.#.K.^.A.A.1XA.Y.).A.~.OXj.j.K.T.c.A.L.A.~ 3.7.7.1XK.U.U.A.U.n.A.c.L.c.A.U.L.j.C.L.K.T.K.L.W r 4.",
"2.:Xa.b.a.x.^.B.a.a.k.c.p.2 7 ,.-XQ.l.k.k.l.l.l.k.n.n.c.'.x.k.l.k.x.~.n.Z 2 1.u.].N.b.b.A.a.a.b.a.a.a.k.a.Q.k.^.L.p.v.p.n.c.8 e ",
"1.6Xk.p.N.b.p.g.b.b.p.d.s., 2 ,.&XW.k.k./.a.[.5Xk.k.n.^.a.b.b.N.x.c.k.^.j 7 -.:.^.n.N.a.c.v.p.a.v.c.j.p.b.Y.z.g.b.K.g.a.a.h.& 7 ",
",.9Xa.p.d.a.c.p.j.j.j.g.S , 7 ,.3X/.k.k.c.k.^.^.k.k.^.x.^.k.~.v.n.l.k.~.m 7 ,.t.Q.b.a.a.k.z.~.p.g.a.n.a.L.b.c.g.).A.a.a.c.p.< 7 ",
"p 2Xp.p.f.a.g.z.p.a.a.b.H 2 4 -.3XE.x.k.k.x.k.v.k.l.k.k.a.v.k.n.a.k.k.a.d 7 y :.l.k.b.z.z.z.z.z.c.a.c.a.a.g.a.p.g.j.c.a.c.C.3 7 ",
"-.9Xg.L.Y.p.b.c.v.g.p.g.f.2 7 p <X!.l.n.n.x.l.z.k.a.n.k.k.^.n.k.x.k.n.n.d q p t.x.k.v.k.N.a.a.d.c.c.c.b.a.a.a.k.k.c.A.A.a.C.3 q ",
"$.1Xa.D g.b.p.p.a.a.b.a.h.9 7 p 3Xl.k.k.k.k.k.a.k.k./.n.k.l.^.x.x.v.k.n.V q e u.Q._.d.a.k.z.n.a.a.c.a.c.a.c.b.a.c.A.b.n.a.c.1 q ",
"1.eXV.S T.D M S M M F S z   6 $.@.p.c.a.U.j.h..Xf.p.D f.D f.D s.d.C.j.K > 7 1.5.R j.H S K m.D S D D j.h.D K.p.U G M S D D j 7 e ",
">.1.e q 6 7 7 6 6 2 6 7 7 6 e t 4.5 2 2 7 7 3 6 2 7 7 6 7 2 4 6 2 2 4 7 2 7 $.1.4.7 q 2 6 6 7 7 4 2 7 2 , 2 2 2 3 7 7 7 0 7 7 e ",
"1.1.0.p p >.$.e ,.,.,.>.>.i p <.q.q.1.4.4.2.<.<.$.,.,.>.1.4.<.<.p >.<.1.,.,.8.4.r.2.p ,.1.4.p p ,.,.%.4.,.$.p p p p ,.,.$.,.$.p ",
"H.H. X*XK F.K.D.S.m.F.h.G. X X/ >.2.9.@.S.Y.T.oXD.U.T.oXR.R.K.Y.U.K.A.T.%XP.I.XXS.T.U.U.T.R.T.F.D.&XD.$X( w.4.p 9.M.U.D.T.oXXXXX",
"b.p.p.j.d.Y.a.a.L.p.a.j.p.h.p.S 0 p 4.@Xn.v.b.a.a.].z.x.a.k.a.l.A.k.a.a.a.n.p.n.L.b.z.z.z.a.n.z.b.p.p.a.g 4 4.4.<Xl.k.a.a.b.c.c.",
"b.p.A.b.K.a.g.p.b.a.j.p.b.D p.B 2 p 2./.n.n.Q.v.a.x.k.n.b.k.a.k.k.a.k.z.a.c.k.a.c.p.z.n.a.a.d.p.a.a.p.j.g 2 p r.2Xl.k.p.a.a.a.j.",
"a.a.A.j.b.n.a.g.b.b.a.a.p.j.b.m 2 y 2.qXv.n.Q.k.n.v.n.b.a.k.a.v.l.c.k.k.^.p.a.a.c.a.a.c.z.z.k.a.g.g.b.b.a 5 y 2.,Xk.b.p.c.p.g.a.",
"j.p.p.A.p.z.c.a.p.j.b.b.p.M.d.M 3 ` ,.+Xv.v.c.k.k.^.a.n.x.Q.a.l.a.c.k.Q.n.a.a.a.c.k.a.L.n.a.a.z.c.A.c.a.s 2 e q.,Xk.a.a.p.a.a.a.",
"a.p.K.p.p.Z.p.d.b.M.d.p.j.D p.m e ,.<.|.k.a.a.n.5Xa.k.l.k.a.a.a.a.g.n.a.b.p.c.(.p.k.Y.b.p.g.g.p.c.a.p.g.j 2 p 0.6Xa.R.p.b.p.j.a.",
"D a.a.d.a.s.D D D S p.d.p.h.p.m e ,.%.wXk.a.k.x.a.b.a.k.k.a.k.k.B.b.b.A.a.c.z.g.b.a.p.a.c.n.a.(.p.g.p.b.h 2 p ,.>Xk.g.Z.c.p.n.a.",
"p.D H D f.C.C.f.K.p.s.D d.H h.j 5 3.0. Xc.v.A.c.a.p.j.L.b.).c.a.b.a.p.g.b.b.d.d.p.D oXg.b.a.p.D g.p.a.S.x 2 t 1.-XD.K f.f.f.D h.",
"# * - @ $ : $ - = * * = c - > 2 e ,.<._ c * * > o o c v > X * * * : * * * - @ @ = > * ; @ # @ @ : * = * 2 7 p 1.6.Q : = = - > X ",
"$.,.p p >.p p e p ,.t %.p ,.p y p ,.,.4.,.7 e q e w i e u e 7 p 7 e e e w w 7 y 0 e 9 p e e e e q e p 0 e 7 %.,.<.y 4.>.,.p ,.e ",
"4.6.X. .o.O.+.o.&.' =.O.o.' [ o.*.[ y.*.5.] ] } ] :.X.i.1.1.0.+.=.+.=.=.O.O.u.&.*.o.*.^ [ [ } O.=.t.=.=.' =.*.*.[ O.[ o. .] ,.,.",
"4.;XA.A.d.j.K.p.j.a.d.N.p.p.j.d.M.N.F.f.D p.p.h.g.c.f.R u ,.5.C.l.a.a.c.z.N.p.b.B.L.a.n.k.k.n.c.Y.N.b.b.K.f.a.a.N.j.b.j.p.V.1 ,.",
"<.}.c.D d.a.a.p.b.b.d.b.p.p.b.a.s.D a.p.s.f.d.d.a.D h.m 2 p { l.x.b.l.a.a.c.k.a.a.k.k.g.a.a.z.k.p.a.d.a.z.a.d.d.z.d.p.a.j.f.2 7 ",
"t &Xc.b.p.g.p.a.D s.D a.M.p.d.p.D p.d.p.d.f.D d.D s.f.N q i ' l.v.b.z.d.g.b.a.a.c.k.b.a.a.A.a.n.p.p.p.p.D p.a.b.g.p.p.j.a.j.3 2 ",
"$.&Xn.d.p.B.a.c.a.p.N.j.j.d.p.D p.d.D a.j.a.s.a.f.D p.J w y +.^.z.z.k.c.a.v.a.).a.c.A.a.A.c.a.g.p.d.p.L.g.a.L.c.b.L.c.4Xb.f.% 4 ",
"%.8Xz.p.OXg.g.a.D H a.D f.j.a.p.f.p.p.N.D p.p.p.h.j.p.B 6 >.O.a.n.c.a.(.v.a.5Xa.a.p.j.a.a.c.g.b.p.a.b.a.b.`.g.a.a.p.a.p.j.H 3 7 ",
"p &Xa.b.a.D a.b.a.p.a.D j.j.d.D D D p.D g.d.D g.K.D p.J 7 p } +Xa.z.z.z.n.a.a.p.A.a.A.a.c.a.c.a.p.a.p.p.p.a.c.b.b.a.a.a.n.a.3 2 ",
",.=Xa.Z.j.f.D a.M.a.a.g.d.C.d.D p.a.p.f.d.D p.f.f.j.M d 3 y ;.Z.a.p.b.L.a.a.k.n.p.a.b.d.p.D a.b.p.p.D a.A.d.p.S d.b.d.b.c.C 9 2 ",
"%.] C Z Z Z s s d h d d d s d s d d d s d d g V h P g : 7 p ,.c s s d h m V G d d Z d C d Z V d m d m m m A d d d Z V m h = 7 e ",
"p 1.y y q e e e e y 7 e i e e e e q q e y 7 e 7 q q i p p e >.4.e 2 7 6 5 7 2 7 7 7 7 6 7 9 7 2 7 2 7 2 4 2 4 2 7 7 2 4 7 6 7 q ",
"4.7.4.4.q.<.,.4.<.,.,.$.4.,.<.<.,.,.%.,.3.>.,.,.p >.,.,.,.1.<.4.<.,.4.1.<.1.4.>.,.p p >.p ,.,.,.>.y >.,.<.,.p ` p p >.<.$.<.p p ",
"k.A.U.c.^.E.Q.W.~.b.b ,.3.<.qX/.[.W./.W./.Q.E.'.!.!.W.[.[.W.!.!.Q.!.E.[.Q.n.OXT 1.8.q.0Xl.!.E./.^.!.(.n.b.Y.n.l.B.B.x.^.B.n.~.n.",
"a.a.j.d.p.a.n.a.a.p.d e 1.-.@Xk.k.l.k.k.c.a.a.x.z._.k.k.l.l.Q.k.k.z.n.a.z.v.p.A e 1.4.].v.l.a.v.c.x.p.b.j.a.k.z.a.a.d.p.a.a.x.d.",
"p.f.p.g.a.a.j.h.D C.h w 4.<.^.n.n.a.k.a.a.a.a.k.|.a.g.`.B.a.b.g.b.d.p.z.d.z.a.R w 4.q.qXa.a.p.d.N.s.D a.b.s.N.d.a.N.I.a.d.p.p.d.",
"D p.d.j.d.f.D p.f.U.f e ,.4.5Xk.n.].k.k.a.n.p.c.d.a.j.a.A.k.b.b.,Xg.c.p.z.a.z.f 0 ,.<._.b.b.f.>Xb.j.p.p.z.g.d.b.p.D b.N.N.d.d.p.",
"D p.p.d.D p.a.j.p.p.j e 8.<.5Xc.x.l.k.Q.c.a.n.a.a.z.p.z.c.b.n.a.Z.a.g.A.n.c.n.B e 4.9.Y.b.p.p.p.a.s.N.a.z.p.L.d.c.|.z.b.b.d.p.a.",
"p.L.D.a.N.b.a.d.a.h.s e ,.4.W.n.~.x.Q.x.A.L.p.a.`.b.L.b.a.a.d.a.g.A.k.n.a.p.A.J w 0.7.`.b.p.a.p.L.a.b.d.d.p.h.b.z.b.p.p.b.a.p.a.",
"h.j.p.F M.f.j.h.m.F f e <.2.@Xb.a.a.c.b.p.p.s.p.a.p.`.a.L.d.a.a.g.A.j.f.D b.a.A q 1.<.wXd.j.d.a.a.p.p.D p.a.a.j.K.D d.f.D j.f.b.",
"L K K S B M A B m L = e $.,.M.K H S h.M D D s.9XK S S D K F D M.S D h.f.M M H.a e 1.2.C.D D S S F M S J M J.B S h.E J K h.S M D ",
"7 3 2 5 q e 7 7 7 7 5 t 4.4.,.e 5 5 7 5 9 w 7 7 6 e w 7 5 , 2 7 2 e e 6 7 7 0 7 e 8.4.,.0 7 4 6 5 7 5 7 5 3 3 7 0 0 7 5 6 2 w e ",
"%.2.p %.,.4.1.1.4.4.$.p 2.4.8.4.0.4.4.3.,.4.q.4.8.%.4.q.q.4.$.<.4.,.,.<.>.4.8.8.,.8.q.e.2.2.1.<.2.4.4.,.<.2.4.%.4.1.4.,.,.,.1.<.",
"4.6.! $XS.h.F.T.U.F.M.D.T.%Xm.D.T.S.h.F.T.j.J.D.S.U.F.S.{.F.S.| ` 1.>.;XF.F.P.M.D.K.R.R.P.P.P.F.M.D.}.F.F m.P.F.J.M.D.S..X.X) ,.",
"p @.R.g.a.a.j.g.a.b.p.b.D a.p.j.g.D j.h.a.p.c.p.j.p.D p.D D F F . t 2.Z.g.v.b.A.^.b.v.a.(.z.n.a.g.b.p.z.a.a.k.k.a.B.a.Y.a.x.G e ",
"0 *.d.b.^.p.f.S s.p.D D d.j.s.f.a.p.D f.D f.s.D D s.p.D s.F M.H - y 2.+Xa.b.+Xa.p.p.p.a.p.p.g.A.b.c.a.b.g._.j.a.p.b.j.a.j.p.S 3 ",
"7 [ a.j.Z.D F a.j.p.d.D p.D d.D b.D d.p.s.D s.D p.p.p.s.D D D D O u ` A.^.c.j.a.b.b.b.p.a.a.a.a.b.d.a.p.p.p.a.D p.p.g.a.p.g.C 4 ",
"7 [ p.s.j.H p.p.a.D p.p.p.p.d.j.p.a.j.d.s.D h.D b.D p.D f.D D D # e ,.).c.c.c.p.g.a.a.g.c.a.a.c.a.p.p.p.d.p.D a.g.b.g.p.p.D m , ",
"6 o.9X4XD h.j.a.K.b.D f.D D a.K.d.m.M.p.S d.F M.s.h.C.D s.D D h.& e ` b.L.+Xa.a.p.b.d.b.g.d.D j.b.p.b.a.a.D.p.K.a.a.a.p.D b.M 2 ",
"7  .a.j.p.f.j.p.p.p.p.a.a.s.D p.N.s.h.F p.D a.H f.p.D M.s.D D D 1 7 1.Y.a.j.d.>Xd.D a.d.b.p.p.D f.b.p.D D D K.f.a.p.d.a.D b.I 7 ",
"7 ..s.D f.D D p.D D.h.j.p.s.D d.D a.D D F s.p.S D D h.S h.D D m.= 9 <.+Xa.b.b.L.p.D a.p.a.p.p.d.b.Y.L.p.d.A.a.D f.j.p.d.K.d.N 7 ",
"e %.j Z z d f N f h f f Y f d f d d m s f d g s N s d f k s d s % 7 p N m m C d m d d f Z A m N d C A d N k N Y Z m m Z s j & 2 ",
"w %.4.e e e 7 7 t e 0 w q i e w 7 w w w w w 0 0 y e e e u e e e 7 p y 3.7 2 2 2 7 7 7 7 7 7 5 4 0 7 4 2 7 7 7 7 4 5 4 3 7 7 4 2 ",
"y ,.4.,.1.,.,.1.,.0.1.3.,.-.4.,.t 4.,.$.,.y ,.<.4.,.,.p ` ,.,.,.,.1.4.p 4.` p u y ,.-.-.y ,.$.e p p p >.y ` p i p i p e p e -.p ",
"K.K.Z.R.A.C.H.T.C.oXL.U.U.Z.j.Z.W _ 4.4.,.rX#X`.OXY.L.L.2X&XR.Y.U.OXK.oXK.`.>XU.U.R.Z.,XL.J.n e.4.>.#.D.U.Y.Z.b.T.U.>XK.A.K.U.U.",
"p.N.d.D d.K.a.d.g.b.d.j.a.d.D j.d.j 7 ,.` 7XE.n.x.a.k.'.a.B.a.g.a.a.a.j.b.a.B.d.b.a.wXD b.b.k q 1.%.2Xl.a.a.a.p.b.>Xa.k.b.a.a.a.",
"K.D s.h.h.p.j.h.f.D h.D p.p.D b.S o 4 t ,.K.b.p.K.b.n.g.a.c.z.a.g.j.a.j.d.j.p.b.a.g.a.a.a.D m 7 e ,.L.j.j.N.d.Z.Y.L.D a.p.j.d.b.",
"f.f.D j.f.s.a.d.R.p.a.s.p.a.S K.M o 2 y ,.>X^.b.g.p.(.a.b.a.A.b.b.p.g.a.p.Y.a.a.b.g.p.K.p.d.h 5 e ,.4Xp.A.`.b.p.a.K.a.D h.D N.d.",
"K.d.p.j.j.a.j.j.p.p.p.a.f.d.a.d.D b 2 e p U.v.`.z.g.A.p.n.g.c.a.a.a.a.g.d.c.n.a.p.L.z.g.a.p.z 4 i 4.&Xp.b.A.p.f.f.p.D d.p.a.a.p.",
"N.d.a.D f.p.p.b.p.s.p.p.D a.D j.h.= 4 0 p tXb.b.A.b.a.p.b.Y.j.g.a.p.a.a.n.p.b.a.a.a.a.p.j.A.s < t <.&XZ.j.p.p.j.a.f.j.p.h.p.D D ",
"D a.a.M.h.p.D D D d.s.D p.f.d.D C.+ 6 w <.T.a.a.a.b.g.g.b.a.a.p.g.k.p.n.p.j.Y.K.g.j.c.j.a.j.j 2 e ,.8XD D p.p.D a.s.p.a.a.Z.j.D ",
"f.h.p.D D s.h.U.S f.h.a.h.p.s.p.G x 2 0 4.&Xp.A.p.K.n.j.a.p.a.a.A.p.p.p.d.f.D j.j.A.a.j.D f.N 2 e ,.H.D.p.s.f.j.D p.|.p.D p.p.p.",
"E J A M U I I m I A B m B Z A P z # , i p T S C U G V.U C R m E M G H S G J C V.M S U C Z N l 7 p ,.! J B J J E I W m R m S m M ",
"2 7 2 4 7 2 7 4 , , 2 3 2 4 4 , 3 2 2 7 >.4.4 7 q 7 2 6 2 %   , 3 2 2 3 4 2 7 3 2 7 2 2 2     4 e 1.>.4 7 6 2 2 2 2   2 2 2 2 2 ",
"e w e p y i p p y y e 0 t y t e 7 e i u >.0.,.e p y p p e p y e e u w y e i u e t y y e p y t e $.1.>.1.e y e e i e e e e e e y "
};
