/* XPM */
static char *result[] = {
/* columns rows colors chars-per-pixel */
"64 64 61 1 ",
"  c #070707",
". c #080708",
"X c #0B0B0B",
"o c #0E100E",
"O c #100F10",
"+ c #131413",
"@ c #171917",
"# c #181718",
"$ c #1B1C1B",
"% c #1F201F",
"& c #201F20",
"* c #232423",
"= c #272927",
"- c #282728",
"; c #2B2C2B",
": c #2F302F",
"> c #302F30",
", c #333433",
"< c #373937",
"1 c #383738",
"2 c #3B3C3B",
"3 c #3F413F",
"4 c #403D40",
"5 c #434443",
"6 c #474947",
"7 c #4B4C4B",
"8 c #4F514F",
"9 c #535453",
"0 c #565956",
"q c #5B5C5B",
"w c #5F615F",
"e c #636563",
"r c #676967",
"t c #686768",
"y c #6B6C6B",
"u c #6E716E",
"i c #706F70",
"p c #737573",
"a c #767976",
"s c #787778",
"d c #7A7C7A",
"f c #7E817E",
"g c #807F80",
"h c #828582",
"j c #868986",
"k c #8A8C8A",
"l c #8E918E",
"z c #929592",
"x c #969996",
"c c #9A9D9A",
"v c #9EA19E",
"b c #A3A5A3",
"n c #A6A9A6",
"m c #ABADAB",
"M c #AEB1AE",
"N c #B2B4B2",
"B c #B6B9B6",
"V c #BABDBA",
"C c #BDC0BD",
"Z c #C2C4C2",
"A c #C8CBC8",
/* pixels */
"#+2$,5=;+6w9=<$=792*68,2##X#;,969$37=9=67e<5++0;re2%7$787$2@2#7*",
"$,,*:o=$=@%aNNmmBNVmNNNmnh7@7kmCBChpvxcbVd<5+=78@;$+er6+6*,q#$d&",
"=;<<<$,*$#@rnbnbmBmjnmmcjar$*czjhBvxMxjbcw8+<,<07:@+e2748,=6$;*6",
"zcxclvncc0*ucflzydsckdlljq4@+xcxfakxfkudh33O5=CVBNbbdjapypatzccB",
"AZAnknNbnr+ukapyqareaypug03*+nMdlphaakwey<,@,69mnnvzVMBNNMNBBbMm",
"fldaaddtq9+rdp000qpadreee9<$#qbvxjkruuphf3,+6+jNzkjccmmVCNcczcjr",
"dprrwtu62$+ecyqqereterhpww,$Xqvmfuyuarafy,$O$2dBzddzjjxdjkfyaaaa",
"fayeep02,%#kza9qrarafuyfwq<*o3dBztpqe7e765*XXitcleahhdddpagptpda",
"dddttr9<=X$hknpqueepyadhrr3=Xq3vr97<,12577,X@@lkdjafrdzdlfufffha",
"dpaddr52@#7fnzpqewuapehatq6=@o5w2=+#O$&@*#8.X4tbjadfdypfppwaefrr",
"assatr55@X#qmlyjydfupejrrr,,$+78,;%X+>##&@O+*4jnaadahttdkdhupfru",
"73<ere<,$@=*bMttddfhqtyarr<*@=e872wvbbzvmbi,2+qNqee0wyrsay7,,226",
"-=><<6,;$$=Ozbhyyydtpddhae9*@#8*lcmBmvncbzk#XX6q<=57955,@+++#$-;",
"X+X+#@;#$@>+lMt90yjjfdhpda7:$,5xNmmdadapfr2+#=-;++=@@$+.:*;$+*XO",
"#$@XooX *,#2kMfqdpjdjkhdhf2*+2wnNjdddjyfzp, **e7O=5=+X$,+yr%52;<",
"6@=2==**%,6#0vddjdpudrqdaa1*+@<MNadjjjdaha7XX$;,+@=6&5557eo*<2=7",
"jjvnlxhbNdq7,xzkhhaaydgqyy,=#*:vcadjadyrpp6$*6qd2*,+qzqfbnt77xcy",
"jdczvlkcld<q$dckardtsraaye,;#*:vndaaytdlhq3@#qNM,X1qVVBVmNzzfckN",
"fyytw7wah5=07pzaqeerrrdhdr,=+;#cVdrrpup732<=$cmj,X6eNedkdehjhyic",
"aturaa0aq;-9,,jvy68erpwpdq;*.*8zMpdr2<7026* qMmk*+7Bbrppuhkypraa",
"tppasqthe*#,**ay75,,,767775X, Xah9r=+XXX$$o;cmle=X2Amwaaddpqyrat",
"quae0qwuq;X=#@9*o$*+X+*@*=++$,+#*#X#X@@.+%;$xBha*$,mxdhardtqrkfy",
"yyrtyaqe5=$$$*<@*+X$#=*+X@=60tty8*,<q<2>@,,7Vczr;=*jpteddpqrdpsy",
"ra0eeaer7*-4akxBjy0r;#:,$tmNNNBNVVVmzcvp<XXjmjdt;**nfayddqpkjjyr",
"aayrerpd9=X2zmzxnza0,$<,8zmxkzbzxNZxvMc01;+nVkh0=@@xdpppyddhfyyr",
"rftyqyya:=O:jmyffdh6>&6+$jmjaytaldphfhqw@,9pVhjp*X#2q9ytttypuprr",
"9aut72<===X$mNyjjdr7,$==@cbjehqqahahzfe5$=9yBldr@X$,,2,7878eeqap",
"=,,=$+X+X#*2Bnkhhdu85=X*$lNkpyyyhehkfhr<$$9rlztt#X2;@&@#=,,<5956",
"X$X#$XX:*=<6nmhdueap5*X*$kBlysahjkdxdfp8*#5fnnpyX.*+=@@Oo7+#+;,=",
"*=$2eajvza5<lhqppday<,#X>emcdhypjtddfuy2,@#0nkdq+X+&w*6;5,%$@XOX",
"$2jhhzvzxjh6cvrqjqyap7$+2zxdphkxxhhdhauw;X@0mkdeOO,nvnx,9e1zfk7$",
"60zvjheyyxd;kcpedrady7=O1pjsepkjaiuapdq3,X=9mhut#.amlnNNMbBMjl2=",
",azvddrra00*pafuhjtpj7=#$9kfqrjdhdjkuw63,$<qzjfw$+9MppcnnNzxa8,;",
"2kjjdtqpp8;,fcpuhhddd5,@Oqzjppjppypfkfq5;==dmade*X0chdaijhjtp2<*",
"7mjsahadp5$+fBzfrjjreq,$@9kbrtrrpefjdjq<=X3yxhe<*+<mppattayyw52$",
"6jrdpyape5XXankkdjapdq;*#,kxtydf9yrfpkr2*$$hk6;=*#>nfdfudtpdd56#",
",ddyeardr5@%tcbhjhuaa7<*#*xhpapdarfpdyq6+@*;0% o&<dbdttreyptk82+",
"4hyyyaeyd0+,0nbjdjr0r0,$ ,dxduqqyw09r7*,+.<+=+*27,jr52423750663+",
"+kpeqjfyj5$%0bmadarey0:*@05hq<,2692,52,-@*<,=$+o03=2,,;**%%**:$+",
"5haq0kzarq=$9nbdydeqeq,$Xqw++*$X%:<XXX$X563,=+w,*$>,$XX*+$o$*+*X",
"<da0pqyatw:X6nnyqer9ay2% e<6#=*+X,=X*o@$,6*7hfaydyye9<20edzjf>+,",
"%dart907ue,X6bxpqwatth2=X;dcvxjkyydafxzBBvpnzxahzxnMVNcVbbzkcq,,",
"*ajuy0twy7;X,njweeyeaq2;XXvmcnbBcmNcMbmCCVjNkpmzdbcxccmbkvmma5@,",
"=kcuauqute*=+kfyq0jspe:,.OcBckphxjkkhdrrtruyyfdteteeaehyjjpaat@2",
"edatqrpad6+@*yp6j8aj0k;=.$fmupftpgdutaqqdtrwdlpdqqahetyfjfppe6@X",
"=jadtyapp5+$+ew2qdayd0;@XXaxrhadhjqrfpatpredudpfaddurrhdhdau82#*",
"4cdrruyq7$*&5n0kjp0p<>*X#Xdckpp0t9ydruyqrepatphddkrrtdaafupu72#7",
"<775<5=6<@<OOdkcdt0966<$X+jjhwerqaddyrppppydpuardpeaudaaaput96$6",
"8;;**;<2=o *=0j6963<6q$X@#0xcyaptpjyygaedperpqrrjppqahjyjde622+;",
"702%$$#$%o+*@>,===$:*$#$X+<br97qepdiy8tpqpruutydiyapdjajjjy66,+,",
"0+q2*2@,X@*$,#X+$+,*,%=#;==6d4,<2657frwrrturheyyqppadfsyesy6<<$,",
"22djhhyy8:<=+O$+=@50q0#X4==#@*$$OX@*;;,9eptyreaeq8979e087q94,>Xw",
"=xxjmczxzmjqq9,2,#q+9*X#++#q<<=6+O+$*+$=<5533<526735337951,-*$,,",
"%llldkahkxykypkmvbclvued77;7,<5<5=$,q*+@@$%*%=2,<,=,:+,8$X#$*#,i",
"<xzayea0tr97sadakzzldbbvhlznjcncl@=>y5<*2#,+##o+**X@$XX*XX*>6=<a",
"repdt9teq9q9ygpdrrju7y9fdzk9jxxmj51:q9*2<527#$;+,%<%=<+OXX$&5$6=",
"*jyqyqe0pqerqtadtyaptwpaphhjpyep2,,9#edzcc02>OO>1725=,5++X7O+<qq",
"ejgeryrtewee0yaytyrauappq6hr5jep25#6=3knNMjq9-**7djfhcxxhxxcjaq#",
"9ha69009q9e0yerqq7079edyu0qqu9qd0,=72<rkfvhtpq;2dhkjmbNnxjjakjwX",
"=66;>,,,,,,5<57,321522256<5<7693=*Or:52qad9ahy#6chy0etfuddyded$+",
"6$<2,*$$#++++#++=****$X%X XX++$@o+5r$@;;,5222*+qcdww0tqedydd05$X",
"#=75@+,@X*$#** XO&-,%<**..X+#X ,#Xe6:@$$$$$##$X,ed86e<27,,;>=$*1",
"**,82,2<6$++7-;r<5=,<q7,t+#X+2+9#%p354*&=#<*>3q=@%***&@@@#@$@@&8",
",245#7522=+<75*@6=$7e<+#@@@$e32#=*q,#p$#%7&de797X$+#@;7#;+,5@e@*"
};
